<?xml version="1.0" encoding="UTF-8" standalone="no"?>
<svg
   xmlns:dc="http://purl.org/dc/elements/1.1/"
   xmlns:cc="http://creativecommons.org/ns#"
   xmlns:rdf="http://www.w3.org/1999/02/22-rdf-syntax-ns#"
   xmlns:svg="http://www.w3.org/2000/svg"
   xmlns="http://www.w3.org/2000/svg"
   xmlns:sodipodi="http://sodipodi.sourceforge.net/DTD/sodipodi-0.dtd"
   xmlns:inkscape="http://www.inkscape.org/namespaces/inkscape"
   width="210mm"
   height="297mm"
   viewBox="0 0 210 297"
   version="1.1"
   id="svg8"
   inkscape:version="1.0 (4035a4fb49, 2020-05-01)"
   sodipodi:docname="dividers.svg">
  <defs
     id="defs2" />
  <sodipodi:namedview
     id="base"
     pagecolor="#ffffff"
     bordercolor="#666666"
     borderopacity="1.0"
     inkscape:pageopacity="0.0"
     inkscape:pageshadow="2"
     inkscape:zoom="0.87055056"
     inkscape:cx="400"
     inkscape:cy="181.0955"
     inkscape:document-units="mm"
     inkscape:current-layer="layer1"
     inkscape:document-rotation="0"
     showgrid="false"
     inkscape:window-width="1541"
     inkscape:window-height="977"
     inkscape:window-x="162"
     inkscape:window-y="72"
     inkscape:window-maximized="0" />
  <metadata
     id="metadata5">
    <rdf:RDF>
      <cc:Work
         rdf:about="">
        <dc:format>image/svg+xml</dc:format>
        <dc:type
           rdf:resource="http://purl.org/dc/dcmitype/StillImage" />
        <dc:title />
      </cc:Work>
    </rdf:RDF>
  </metadata>
  <g
     inkscape:label="Layer 1"
     inkscape:groupmode="layer"
     id="layer1">
    <path
       style="fill:#000000;stroke-width:0.264583"
       d="m 96.716762,161.41078 -1.6308,-1.97154 -26.631797,0.14444 c -28.63597,0.15531 -28.715739,0.15924 -31.180034,1.53656 l -1.125881,0.62926 -1.887631,-0.79309 c -1.82588,-0.76716 -6.781301,-1.80743 -8.60983,-1.80743 -0.931591,0 -1.1987,-0.35564 -0.475531,-0.63315 0.230183,-0.0883 0.914793,-0.16216 1.521354,-0.16407 1.971342,-0.006 6.06562,-1.00125 7.849715,-1.90772 l 1.719791,-0.8738 1.322917,0.70983 c 2.203023,1.18206 4.237929,1.30984 18.388541,1.15473 7.057761,-0.0774 18.785417,-0.19892 26.061458,-0.27012 12.221998,-0.11959 13.254978,-0.16481 13.568258,-0.59393 1.09848,-1.50464 2.8742,-3.50078 3.10049,-3.48534 0.14552,0.01 1.03243,0.92011 1.970908,2.02262 l 1.70633,2.00456 26.20721,-0.17062 c 14.41397,-0.0938 27.25297,-0.28358 28.53111,-0.42164 1.47838,-0.15969 2.85769,-0.4954 3.79099,-0.92268 l 1.46709,-0.67166 1.01829,0.51949 c 1.41375,0.72125 4.41196,1.50908 7.50966,1.97331 1.4389,0.21564 2.68561,0.46149 2.77046,0.54635 0.32815,0.32814 -0.61959,0.58509 -2.69939,0.73187 -2.87591,0.20295 -5.53599,0.83231 -7.31746,1.73127 l -1.4552,0.73431 -1.60118,-0.72106 c -3.04687,-1.37211 -2.94381,-1.36831 -31.73632,-1.17019 l -26.72292,0.18389 -0.65907,0.83906 c -1.0925,1.39086 -2.701808,3.08803 -2.928168,3.08803 -0.11691,0 -0.94642,-0.8872 -1.84336,-1.97154 z m 4.259158,-2.70426 c 0.27643,-0.5079 0.16586,-0.7618 -0.95055,-2.18281 -0.694838,-0.88443 -1.335088,-1.60555 -1.422768,-1.60247 -0.20366,0.007 -2.42333,2.96492 -2.44235,3.25452 -0.008,0.11957 0.55329,0.93982 1.24699,1.82279 l 1.26127,1.60539 0.9973,-1.16133 c 0.548508,-0.63873 1.138058,-1.41997 1.310108,-1.73609 z m -3.285018,0.83766 c -1.06732,-1.27686 -1.06795,-1.26725 0.18567,-2.84418 l 0.79003,-0.99377 0.7387,0.86148 c 1.129758,1.31753 1.152358,1.65216 0.20108,2.97681 -0.47081,0.65558 -0.87015,1.19196 -0.88742,1.19196 -0.0173,0 -0.4799,-0.53653 -1.02806,-1.1923 z M 63.0037,161.07617 c -0.08768,-0.22848 -0.08716,-0.48768 0.0011,-0.57599 0.08831,-0.0883 7.389992,-0.20104 16.225964,-0.2505 14.531348,-0.0814 16.099248,-0.0492 16.419828,0.33712 0.19493,0.23488 0.30769,0.47076 0.25057,0.52418 -0.0571,0.0534 -7.44655,0.16091 -16.42097,0.23887 -14.667674,0.12742 -16.333242,0.0998 -16.476541,-0.27368 z m 38.59227,-0.11127 c -0.37458,-0.60535 1.64768,-0.70282 17.0217,-0.82042 15.9158,-0.12174 16.47032,-0.10944 16.47032,0.36531 0,0.46115 -0.33671,0.49456 -5.49011,0.54473 -12.21116,0.11888 -27.90397,0.0687 -28.00191,-0.0896 z m -38.739227,-4.72162 c 0,-0.49856 0.170646,-0.53425 2.579687,-0.53948 1.418828,-0.003 8.860234,-0.079 16.536458,-0.16873 9.375084,-0.10957 13.956774,-0.0749 13.956774,0.1055 0,0.14774 -0.14883,0.38685 -0.33073,0.53135 -0.20532,0.16311 -6.47569,0.32767 -16.53646,0.43399 -16.133625,0.17049 -16.205729,0.16888 -16.205729,-0.36263 z M 101.88732,155.979 c -0.48105,-0.53155 -0.47313,-0.5342 1.6081,-0.53788 1.15034,-0.002 8.78879,-0.0797 16.97434,-0.17249 14.79128,-0.16775 14.88281,-0.16551 14.88281,0.36348 0,0.50981 -0.21494,0.53844 -5.09323,0.67848 -2.80128,0.0804 -10.22219,0.15889 -16.49091,0.17439 -11.11578,0.0275 -11.40965,0.015 -11.88111,-0.50598 z"
       id="path847"
       inkscape:export-xdpi="86.335846"
       inkscape:export-ydpi="86.335846" />
    <path
       style="fill:#000000;stroke-width:0.264583"
       d="m 107.59177,115.87704 c -0.19387,-0.2336 -0.26547,-0.71977 -0.17363,-1.17897 0.18343,-0.91715 -0.37225,-1.40934 -2.80653,-2.48589 -2.16707,-0.95839 -2.34062,-0.94867 -3.38352,0.18933 -0.74986,0.81823 -1.15884,1.03817 -2.111529,1.13551 -1.48479,0.15171 -2.76782,-0.58247 -3.317669,-1.89845 -0.437597,-1.04732 -0.774943,-1.11328 -2.568379,-0.50219 -1.127144,0.38405 -1.215178,0.47669 -1.082657,1.1393 0.251984,1.25991 -1.174511,1.84013 -1.857382,0.75547 -0.414658,-0.65864 0.267049,-1.79228 1.43221,-2.38168 0.886312,-0.44835 0.362622,-0.46029 -14.028277,-0.31976 -14.76739,0.14421 -14.954657,0.15272 -15.41814,0.70109 -0.451306,0.53397 -0.448784,0.5694 0.06615,0.93007 0.294431,0.20623 0.535329,0.65736 0.535329,1.00252 0,1.42885 -1.762019,1.98175 -2.538579,0.79656 -0.364498,-0.55629 -0.386691,-0.85087 -0.138393,-1.83695 0.162647,-0.64593 0.295722,-1.24076 0.295722,-1.32184 0,-0.0811 -5.536406,-0.14742 -12.303124,-0.14742 -11.782234,0 -12.303125,0.0207 -12.303125,0.48816 0,0.56503 -0.791342,1.36393 -1.351025,1.36393 -0.6901,0 -1.559392,-0.80888 -1.559392,-1.45101 0,-0.36832 0.298748,-0.86225 0.7237,-1.19652 l 0.723699,-0.56926 13.497655,0.11941 13.497654,0.1194 1.767152,-0.88613 c 5.385202,-2.70037 12.734118,-2.89385 24.492743,-0.64481 2.073672,0.39663 3.770313,0.69461 3.770313,0.6622 0,-0.0324 -0.665928,-0.39587 -1.479839,-0.80767 -2.707772,-1.37001 -3.348818,-3.18849 -1.372089,-3.89226 0.739706,-0.26335 1.334516,0.54946 1.144254,1.56364 -0.163619,0.87216 -0.161467,0.8742 2.028711,1.92772 3.1287,1.50495 3.531325,1.57045 4.225901,0.68744 0.657957,-0.83646 1.972747,-1.45299 3.098637,-1.45299 0.80712,0 2.134249,1.05843 2.967919,2.36701 l 0.41233,0.64721 1.4324,-0.54995 c 1.29076,-0.49556 1.42451,-0.62066 1.35267,-1.2652 -0.0977,-0.87693 0.35025,-1.46365 1.11753,-1.46365 1.35757,0 1.62594,1.45602 0.45066,2.44495 l -0.76048,0.63991 14.32038,-0.12041 c 13.8835,-0.11674 14.34367,-0.13687 15.08365,-0.6598 l 0.76327,-0.53939 -0.69712,-0.50783 c -1.26262,-0.91975 -0.77934,-2.31576 0.80169,-2.31576 1.34621,0 1.83786,1.42555 1.02744,2.97914 l -0.38089,0.73019 12.48465,-0.0687 12.48466,-0.0687 0.13578,-0.78413 c 0.1505,-0.86913 1.24062,-1.65518 1.92909,-1.39098 0.23262,0.0893 0.61695,0.45837 0.85405,0.82023 0.33634,0.51332 0.36676,0.77815 0.1384,1.20485 -0.73036,1.36468 -0.52407,1.34444 -15.51934,1.52316 l -13.9912,0.16676 -1.71979,0.86021 c -2.88118,1.44112 -7.00577,2.23011 -11.65837,2.23011 -3.19995,0 -9.97381,-0.68376 -13.05543,-1.31783 -3.20578,-0.65961 -3.47789,-0.65489 -2.1414,0.0371 2.21149,1.14509 3.09832,2.4724 2.38218,3.56537 -0.46664,0.71219 -1.23505,0.81407 -1.72127,0.22821 z m -7.42809,-3.99161 c 0.64804,-0.54529 0.81406,-0.8916 0.81406,-1.69815 0,-1.38148 -0.20174,-1.80411 -1.077259,-2.25686 -1.02669,-0.53093 -1.63581,-0.48619 -2.48599,0.18256 -0.82185,0.64647 -0.65647,0.83355 1.00006,1.13129 0.75358,0.13545 0.98717,0.29459 0.92366,0.62924 -0.0629,0.33134 -0.41156,0.46893 -1.33941,0.52858 -1.02086,0.0656 -1.25439,0.17289 -1.25439,0.57611 0,0.63041 1.20797,1.59221 1.99975,1.59221 0.33301,0 0.9718,-0.30824 1.419519,-0.68498 z m 30.05051,-0.62464 c 3.71177,-1.01534 3.19364,-1.15172 -3.70416,-0.97495 -3.4925,0.0895 -9.07852,0.16389 -12.41337,0.16531 -3.33485,0.001 -6.01376,0.0511 -5.95313,0.11033 0.108,0.10554 5.8238,1.08519 7.65087,1.31131 0.50933,0.063 3.48589,0.0814 6.61459,0.0408 4.87976,-0.0633 5.98948,-0.15612 7.8052,-0.6528 z m -41.544472,-2.09018 c -0.05055,-0.0509 -1.325531,-0.30664 -2.83328,-0.56835 -8.880173,-1.54144 -18.272442,-1.31195 -21.103245,0.51563 -0.253932,0.16394 3.937714,0.23475 11.817468,0.19964 6.716038,-0.0299 12.169614,-0.096 12.119057,-0.14692 z"
       id="path863"
       inkscape:export-xdpi="95.135124"
       inkscape:export-ydpi="95.135124" />
    <path
       id="path854"
       d="m 14.821404,61.40047 c -0.07151,-0.03532 -0.178461,-0.06421 -0.237597,-0.06421 -0.05906,0 -0.09832,-0.0093 -0.08699,-0.02057 0.01117,-0.01133 -0.01819,-0.05931 -0.06544,-0.106637 -0.08411,-0.08416 -0.09497,-0.15819 -0.0913,-0.624852 0.0032,-0.393806 0.0032,-0.966284 0.0014,-1.032691 -0.0032,-0.08906 0.0474,-2.101351 0.05411,-2.144304 0.0032,-0.01832 -1.6e-4,-0.05353 -0.0064,-0.07823 -0.02235,-0.0829 -0.02123,-0.33672 0.0015,-0.336739 0.01277,-1.2e-5 0.02681,-0.419267 0.03208,-0.931681 0.0048,-0.512412 0.02011,-1.59842 0.03304,-2.413348 0.01277,-0.814927 0.03464,-2.360597 0.04852,-3.434818 0.01436,-1.074225 0.03256,-2.296616 0.04182,-2.716425 0.06496,-2.989536 0.106141,-4.650307 0.136946,-5.545102 0.02873,-0.831379 0.02873,-0.830383 0.02713,-1.133714 -0.0016,-0.333517 0.02426,-1.469214 0.06145,-2.68275 0.01436,-0.48155 0.0348,-1.219023 0.04437,-1.638835 0.0096,-0.419811 0.02889,-1.086569 0.04278,-1.481686 0.06512,-1.851875 0.104386,-3.177177 0.141256,-4.759357 0.0166,-0.71615 0.04581,-1.342497 0.06496,-1.391889 0.08411,-0.218254 0.202961,-0.294323 0.45446,-0.290845 0.132318,0.0018 0.361903,0.0026 0.51007,0.0015 0.148119,-0.001 0.461339,0.02825 0.695952,0.06504 0.845524,0.132637 1.728843,0.117203 2.244978,-0.03925 0.547801,-0.16604 0.746549,-0.222899 0.808191,-0.231208 0.03703,-0.0049 0.09768,-0.02019 0.134711,-0.03377 0.03703,-0.01357 0.117793,-0.03795 0.179595,-0.05416 0.06177,-0.0162 0.182978,-0.04849 0.269407,-0.07173 0.412834,-0.11101 0.879968,-0.08316 1.549026,0.09235 0.275776,0.07234 0.498705,0.08218 1.818433,0.08035 0.827281,-0.0012 1.696092,-0.01901 1.930688,-0.0397 0.234596,-0.02069 0.59594,-0.04268 0.802988,-0.04889 l 0.376458,-0.01133 0.151152,0.174822 c 0.08316,0.09615 0.151152,0.207373 0.151152,0.247154 0,0.03977 0.02697,0.112175 0.05985,0.160891 0.06879,0.101864 0.209537,0.588791 0.209537,0.725206 0,0.05058 0.05203,0.143906 0.115399,0.207416 l 0.115399,0.115463 2.163193,0.0027 c 2.628939,0.0032 2.810704,0.01373 3.03874,0.176031 0.121145,0.08616 0.24968,0.313522 0.289503,0.51185 0.01436,0.06791 0.03591,0.179036 0.04932,0.246949 0.06321,0.317955 0.120985,0.467182 0.191054,0.493693 0.04198,0.0158 0.101672,0.05395 0.132637,0.08461 0.06017,0.05938 0.35863,0.03596 0.435195,-0.03414 0.02346,-0.02148 0.07997,-0.03906 0.125614,-0.03906 0.04565,0 0.166634,-0.04041 0.268849,-0.0898 0.102311,-0.04938 0.21265,-0.0898 0.245386,-0.0898 0.03272,0 0.09465,-0.01785 0.137426,-0.03966 0.13136,-0.06685 0.290556,-0.129476 0.57187,-0.225032 0.148119,-0.05033 0.471443,-0.164417 0.718394,-0.25352 0.24695,-0.0891 0.539916,-0.192742 0.651037,-0.230306 0.11109,-0.03757 0.373794,-0.134664 0.583698,-0.21578 0.209905,-0.08111 0.563491,-0.212318 0.78575,-0.291568 0.542199,-0.193337 0.888411,-0.327372 0.942886,-0.365038 0.02474,-0.01708 0.115559,-0.05203 0.202052,-0.0777 0.213432,-0.06337 1.033657,-0.357534 1.144938,-0.410636 0.04932,-0.02358 0.453487,-0.163464 0.897988,-0.310876 0.444501,-0.147417 1.101157,-0.370779 1.459245,-0.496364 0.358071,-0.125582 0.812676,-0.280719 1.010226,-0.344742 0.197567,-0.06402 0.399619,-0.13235 0.449002,-0.151838 0.04932,-0.01949 0.221125,-0.08107 0.381646,-0.136835 0.160521,-0.05577 0.332263,-0.122853 0.381646,-0.149061 0.04932,-0.02622 0.170625,-0.07136 0.269392,-0.100331 0.262417,-0.07693 3.261733,-1.090406 3.367475,-1.137858 0.04932,-0.02217 0.190831,-0.07005 0.314306,-0.106413 0.123539,-0.03636 0.830632,-0.260883 1.571483,-0.498933 1.435862,-0.461369 1.431185,-0.459894 2.357233,-0.744397 0.333379,-0.102423 0.818294,-0.255983 1.077582,-0.341244 0.259288,-0.08526 0.501753,-0.162349 0.538799,-0.171306 0.09305,-0.02249 0.520843,-0.171365 1.055141,-0.367163 0.246951,-0.0905 0.600521,-0.21362 0.785734,-0.273607 0.185212,-0.05998 0.377161,-0.125183 0.426544,-0.144895 0.502967,-0.200657 1.282603,-0.186574 2.402132,0.0434 0.436727,0.0897 1.712515,0.418035 1.897009,0.488198 0.06784,0.02583 0.123539,0.03708 0.123539,0.02501 0,-0.01213 0.07183,0.0081 0.159755,0.04482 0.08779,0.03671 0.26007,0.08006 0.382668,0.09633 0.122581,0.01626 0.233718,0.04712 0.246982,0.06855 0.01277,0.02144 0.06464,0.03898 0.114281,0.03898 0.04964,0 0.306023,0.04926 0.569812,0.109446 0.81432,0.185809 1.321261,0.295069 1.602112,0.345293 0.14812,0.02649 0.360322,0.06432 0.471444,0.08407 0.111089,0.01974 0.323276,0.05928 0.471443,0.08788 0.313716,0.06054 0.387647,0.0727 0.987801,0.162444 0.246934,0.03693 0.560107,0.08586 0.695936,0.108711 0.315599,0.05312 0.773923,0.124098 1.032684,0.159935 0.11109,0.01532 0.66676,0.126268 1.234752,0.246406 2.19478,0.464229 3.388607,0.645081 3.669602,0.555902 0.06528,-0.02072 0.08108,-0.01325 0.05634,0.02677 -0.02713,0.04388 0.159132,0.04886 0.88423,0.02364 1.030864,-0.03585 1.17943,-0.01261 1.748635,0.273015 0.297818,0.149475 0.308704,0.151279 0.909001,0.151279 0.685849,0 1.004768,0.05318 1.250984,0.208607 0.362301,0.228719 0.985072,0.450288 1.493737,0.531454 0.0988,0.0158 0.240214,0.04736 0.314306,0.07021 0.1478,0.04562 0.661955,0.15412 1.593945,0.336385 0.33338,0.0652 0.71726,0.155397 0.85309,0.20043 0.2503,0.083 0.79831,0.192884 2.58172,0.517691 0.96675,0.176071 1.59002,0.321472 1.88578,0.439926 0.54073,0.216559 0.75409,0.311042 0.78575,0.347931 0.0946,0.110292 0.75117,0.363784 1.25966,0.486356 0.33203,0.08003 0.72489,0.175673 0.87307,0.212537 0.14812,0.03685 0.40072,0.09583 0.56125,0.13104 0.1605,0.03521 0.32214,0.07647 0.35918,0.09168 0.037,0.01516 0.28962,0.08362 0.56126,0.151982 0.40915,0.102981 0.52635,0.152492 0.68307,0.28857 0.22754,0.197557 0.28141,0.354548 0.31389,0.914845 0.038,0.655242 -0.0947,1.159313 -0.39323,1.493679 -0.0728,0.0815 -0.13232,0.164833 -0.13232,0.185203 0,0.07446 -0.4497,0.4748 -0.59316,0.528054 -0.0812,0.03015 -0.18692,0.07593 -0.23487,0.101736 -0.87492,0.470772 -1.37977,0.641729 -2.29774,0.778076 -0.26876,0.03992 -0.54927,0.08411 -0.62335,0.09821 -0.23469,0.04466 -1.96601,0.05457 -2.20008,0.01261 -0.12354,-0.02214 -0.40634,-0.07147 -0.62859,-0.109653 -0.59677,-0.102487 -1.14148,-0.229409 -1.32454,-0.308632 -0.037,-0.01604 -0.17847,-0.05767 -0.3143,-0.09253 -0.13583,-0.03486 -0.36778,-0.0987 -0.51545,-0.141878 -0.27725,-0.08105 -0.44271,-0.07979 -1.59484,0.01213 -1.23708,0.09867 -2.779786,0.0064 -3.892482,-0.232791 -0.406945,-0.08748 -1.608322,-0.416393 -2.043358,-0.559422 -0.179259,-0.05895 -1.050113,-0.02326 -1.360333,0.05575 -0.224461,0.05716 -0.812006,0.140841 -1.638839,0.233397 -0.08635,0.0097 -0.207654,0.02742 -0.269392,0.03944 -0.06177,0.01197 -0.607272,0.09502 -1.212294,0.184428 -0.999421,0.147704 -1.5432,0.214889 -2.177622,0.269048 -1.085403,0.09265 -1.116176,0.101194 -1.232517,0.341989 -0.08268,0.17118 -0.0838,0.194919 -0.01835,0.391206 0.03831,0.114935 0.08795,0.228162 0.110291,0.251623 0.02235,0.02346 0.04054,0.07902 0.04054,0.123475 0,0.04445 0.01596,0.08089 0.03368,0.08099 0.01851,8.9e-5 0.0723,0.09607 0.119549,0.213274 0.04724,0.117202 0.183569,0.420165 0.30307,0.673241 0.119548,0.253076 0.217246,0.47069 0.217246,0.483585 0,0.01293 0.07853,0.189728 0.174615,0.392956 0.286438,0.606141 0.49888,1.070762 0.49888,1.091049 0,0.01053 0.07326,0.175689 0.162836,0.367142 0.08954,0.191457 0.178413,0.388511 0.19747,0.437901 0.01899,0.04938 0.06544,0.160515 0.10295,0.246949 0.09257,0.21294 0.337274,0.913772 0.415372,1.189838 0.190304,0.672619 0.214517,0.987329 0.112046,1.456785 -0.117952,0.540774 -0.307059,0.868701 -1.068069,1.852769 -0.653528,0.845093 -1.666101,1.526031 -2.492295,1.676016 l -0.167528,0.03041 10e-4,0.567631 c 0.0016,0.895846 -0.172763,1.510997 -0.616514,2.174241 -0.181557,0.271366 -1.113542,1.244514 -1.191879,1.244514 -0.05842,0 -0.408126,0.227233 -0.431844,0.280623 -0.008,0.01852 -0.04916,0.03368 -0.09098,0.03368 -0.04182,0 -0.115877,0.02693 -0.164622,0.05982 -0.190592,0.128727 -1.100822,0.477336 -1.35197,0.517783 -0.145885,0.0235 -0.339812,0.07827 -0.430966,0.121752 -0.147481,0.07034 -0.168486,0.101672 -0.190831,0.28476 -0.05427,0.443871 -0.259703,1.208994 -0.405013,1.507818 -0.164065,0.337413 -0.5731,0.794697 -0.923718,1.032691 -0.109174,0.07408 -0.20518,0.149859 -0.2134,0.168374 -0.008,0.01852 -0.03958,0.03368 -0.06975,0.03368 -0.08459,0 -0.776189,0.344055 -0.813713,0.404758 -0.02554,0.04121 -0.04086,0.04142 -0.06608,8.49e-4 -0.02426,-0.0392 -0.08412,-0.03049 -0.230111,0.03347 -0.344282,0.150832 -0.639706,0.271048 -0.861086,0.350392 -0.118113,0.04233 -0.225387,0.09417 -0.23838,0.115207 -0.01277,0.02104 -0.06895,0.03824 -0.124337,0.03824 -0.05538,0 -0.119868,0.01697 -0.14333,0.0377 -0.02346,0.02073 -0.113324,0.06418 -0.199802,0.09653 -0.08651,0.03235 -0.217773,0.08391 -0.291848,0.114569 -0.07406,0.03066 -0.23573,0.08035 -0.359205,0.110435 -0.123539,0.03009 -0.310141,0.09289 -0.414829,0.139564 -0.104705,0.04669 -0.22692,0.08488 -0.271643,0.08488 -0.04469,0 -0.101991,0.02069 -0.12721,0.04595 -0.02522,0.02527 -0.09497,0.05676 -0.154822,0.06997 -0.158654,0.03497 -0.164113,0.0366 -0.575526,0.169238 -0.207223,0.06681 -0.399156,0.135494 -0.426545,0.152621 -0.04932,0.03088 -0.07997,0.03883 -0.296717,0.07725 -0.06177,0.01101 -0.212538,0.05139 -0.335119,0.08991 -0.139181,0.04375 -0.400401,0.07112 -0.695937,0.07294 -0.451539,0.0027 -0.494555,-0.0056 -0.94453,-0.182396 -0.259288,-0.101912 -0.506797,-0.204583 -0.55002,-0.228145 -0.04326,-0.02356 -0.113962,-0.0621 -0.157217,-0.08566 -0.27327,-0.148917 -0.931538,-0.45108 -0.982678,-0.45108 -0.03368,0 -0.06129,-0.01596 -0.06129,-0.03532 0,-0.01943 -0.100555,-0.110355 -0.22336,-0.202077 -0.144129,-0.107594 -0.282129,-0.268918 -0.388988,-0.454718 -0.09114,-0.158382 -0.212826,-0.309465 -0.270525,-0.335755 -0.05778,-0.02629 -0.104865,-0.06844 -0.104865,-0.09366 0,-0.02522 -0.02777,-0.04586 -0.06177,-0.04586 -0.034,0 -0.08619,-0.02927 -0.115878,-0.06506 -0.02969,-0.03578 -0.128167,-0.08951 -0.218763,-0.119405 -0.09066,-0.0299 -0.308943,-0.121848 -0.485122,-0.204346 -0.176194,-0.08249 -0.340418,-0.149986 -0.364934,-0.149986 -0.02458,0 -0.06799,-0.02822 -0.09656,-0.06271 -0.02857,-0.03449 -0.09002,-0.0528 -0.136308,-0.04067 -0.05475,0.01437 -0.101992,-0.01101 -0.134552,-0.07198 -0.02761,-0.05171 -0.07358,-0.09403 -0.101992,-0.09403 -0.0506,0 -0.374687,-0.138303 -0.551392,-0.235351 -0.04932,-0.02712 -0.205962,-0.107051 -0.347968,-0.177631 -0.187863,-0.09337 -0.258171,-0.153227 -0.258171,-0.219814 0,-0.135669 -0.08236,-0.264999 -0.169954,-0.266624 -0.0423,-8.49e-4 -0.116197,-0.03109 -0.164144,-0.06734 -0.04788,-0.03626 -0.128806,-0.06657 -0.179611,-0.06735 -0.05076,-8.5e-4 -0.130242,-0.03009 -0.176545,-0.06512 -0.09114,-0.06902 -0.271611,-0.05219 -0.499583,0.04656 -0.119389,0.0517 -0.494986,0.158925 -1.028774,0.293683 -0.09656,0.02439 -0.197295,0.0577 -0.22371,0.07403 -0.02634,0.01633 -0.07869,0.03377 -0.116197,0.03879 -0.03751,0.0049 -0.20957,0.04097 -0.382428,0.07992 -0.172875,0.03894 -0.376603,0.07117 -0.452753,0.0716 -0.07614,5.09e-4 -0.149396,0.01181 -0.162836,0.02519 -0.02251,0.02254 -0.643312,0.07376 -0.95591,0.07888 -0.270238,0.0045 -0.989988,-0.05162 -1.070305,-0.08333 -0.04533,-0.01792 -0.116037,-0.03606 -0.157217,-0.0403 -0.282607,-0.02923 -1.218343,-0.29665 -1.436803,-0.41063 -0.06576,-0.0343 -0.138063,-0.06249 -0.160888,-0.06263 -0.06448,-5.09e-4 -0.625292,-0.229387 -0.690078,-0.281763 -0.08826,-0.07135 -0.503876,-0.257309 -0.575095,-0.257309 -0.03464,0 -0.06289,-0.02257 -0.06289,-0.05013 0,-0.02804 -0.03958,-0.03977 -0.08986,-0.02664 -0.04948,0.01293 -0.07901,0.0061 -0.06592,-0.01532 0.01277,-0.02134 -0.04038,-0.07208 -0.11907,-0.112749 -0.131839,-0.06819 -0.146204,-0.06827 -0.183824,-10e-4 -0.05491,0.0981 -0.122741,0.04943 -0.09257,-0.0663 0.01772,-0.0679 -0.0012,-0.09905 -0.07151,-0.117442 -0.05267,-0.01373 -0.09577,-0.03928 -0.09577,-0.05669 0,-0.01741 -0.106141,-0.0791 -0.235714,-0.13709 -0.129604,-0.05799 -0.245833,-0.118049 -0.258187,-0.133483 -0.04501,-0.05617 -0.371095,-0.229151 -0.392228,-0.208023 -0.01117,0.01197 -0.09992,-0.02764 -0.195508,-0.08798 -0.09561,-0.06033 -0.191262,-0.1097 -0.212665,-0.1097 -0.02139,0 -0.10279,-0.03187 -0.180872,-0.07084 -0.369611,-0.184387 -0.603026,-0.234754 -1.03645,-0.223652 -0.699049,0.01791 -0.832069,0.147976 -0.878196,0.858636 -0.01436,0.220656 -0.04469,0.502217 -0.06752,0.625689 -0.02282,0.123475 -0.05283,0.376035 -0.06672,0.561245 -0.01437,0.185211 -0.04709,0.403749 -0.07358,0.485637 -0.0265,0.0819 -0.03815,0.18744 -0.02586,0.234554 0.01277,0.04712 0.0048,0.161955 -0.01596,0.255205 -0.05906,0.26479 -0.07661,0.377429 -0.111409,0.711478 -0.01788,0.171136 -0.04964,0.332797 -0.07055,0.359241 -0.02107,0.02645 -0.03591,0.107259 -0.03304,0.179599 0.0048,0.123507 -0.165326,0.978041 -0.29477,1.479734 -0.07821,0.303039 -0.260613,0.581135 -0.4664,0.711047 -0.304123,0.191982 -0.524625,0.211796 -2.636312,0.236891 -2.336834,0.02777 -2.19759,0.01725 -2.321927,0.175314 -0.0565,0.07178 -0.09816,0.135845 -0.09257,0.142357 0.0048,0.0065 0.0032,0.03732 -0.0064,0.06844 -0.008,0.03113 -0.03926,0.218233 -0.06799,0.415792 -0.02873,0.197559 -0.08188,0.50063 -0.118272,0.673494 -0.03639,0.172865 -0.09545,0.455731 -0.13104,0.628594 -0.119549,0.578472 -0.163187,0.762686 -0.201972,0.853093 -0.02123,0.04938 -0.04884,0.130211 -0.06129,0.179597 -0.175237,0.691879 -0.547243,1.226021 -0.99741,1.432113 -0.428859,0.19634 -0.619355,0.222553 -1.187426,0.163398 -0.656641,-0.06838 -0.665451,-0.06957 -0.85309,-0.115335 -0.193624,-0.04721 -0.187415,-0.04544 -0.269407,-0.07746 -0.03703,-0.01453 -0.178478,-0.04953 -0.314291,-0.07792 -0.246455,-0.05151 -0.326899,-0.07751 -0.538799,-0.174142 -0.102311,-0.04669 -0.623473,-0.199032 -0.897988,-0.26254 -0.06177,-0.01436 -0.122422,-0.03984 -0.134712,-0.05677 -0.02219,-0.03055 -0.374814,-0.137058 -0.48268,-0.145821 -0.0308,-0.0026 -0.05618,-0.02356 -0.05618,-0.04678 0,-0.02322 -0.02969,-0.03084 -0.06592,-0.01694 -0.03623,0.01389 -0.07789,0.0059 -0.09242,-0.01765 -0.01436,-0.02362 -0.06688,-0.04293 -0.116356,-0.04293 -0.04948,0 -0.07741,0.01997 -0.06241,0.04439 0.01596,0.02546 -0.0016,0.03298 -0.0423,0.01765 -0.03831,-0.01469 -0.06975,-0.04048 -0.06975,-0.05728 0,-0.01681 -0.04517,-0.03395 -0.100396,-0.0381 -0.05523,-0.0041 -0.105822,-0.02413 -0.112685,-0.04439 -0.0064,-0.02025 -0.09289,-0.02913 -0.191486,-0.01973 -0.112845,0.01085 -0.179211,-0.0015 -0.179211,-0.03341 0,-0.02903 -0.04661,-0.04204 -0.109653,-0.03061 -0.06033,0.01085 -0.130881,-0.0059 -0.157057,-0.03725 -0.02937,-0.03547 -0.119868,-0.05074 -0.238363,-0.04029 -0.508234,0.04485 -0.689121,0.07213 -0.737068,0.111201 -0.02873,0.0234 -0.108057,0.05269 -0.17645,0.06507 -0.06831,0.01245 -0.145885,0.0361 -0.172269,0.05272 -0.0265,0.01662 -0.0972,0.03695 -0.157376,0.0452 -0.06017,0.0083 -0.195396,0.05422 -0.300612,0.102167 -0.105183,0.04793 -0.202754,0.08715 -0.21672,0.08715 -0.0233,0 -0.252026,0.09634 -0.585677,0.246784 -0.07406,0.03341 -0.307155,0.143076 -0.517922,0.243723 -0.210766,0.100635 -0.413376,0.182986 -0.450231,0.182986 -0.03687,0 -0.106939,0.02795 -0.15562,0.06212 -0.04884,0.03416 -0.229872,0.105726 -0.402428,0.15902 -0.348351,0.107594 -0.690047,0.111968 -0.893678,0.01149 z m 11.287617,-4.498047 c 0,-0.02469 -0.03144,-0.0449 -0.07007,-0.0449 -0.03847,0 -0.05746,0.02021 -0.0423,0.0449 0.01596,0.02469 0.04677,0.0449 0.07007,0.0449 0.0233,0 0.0423,-0.02021 0.0423,-0.0449 z m -1.647458,-1.209181 c -0.02841,-0.108632 -0.15179,-0.159892 -0.200216,-0.08321 -0.0225,0.03559 -0.008,0.07912 0.03863,0.113771 0.111728,0.08353 0.187639,0.06916 0.161559,-0.03056 z m 5.028293,-0.703453 c 1.419597,-0.0282 1.476977,-0.03345 1.634018,-0.149555 0.312184,-0.230804 0.312758,-0.246614 0.262592,-7.16467 -0.01277,-1.679246 -0.02633,-4.462459 -0.03144,-6.18492 -0.0048,-1.722459 -0.0265,-3.131745 -0.04756,-3.131745 -0.02107,0 -0.01756,-0.03874 0.008,-0.08608 0.02729,-0.05092 0.0565,-0.697371 0.07151,-1.58271 0.01436,-0.823149 0.03432,-1.627967 0.04517,-1.788484 0.0399,-0.590543 0.05507,-2.636992 0.02107,-2.823209 -0.05858,-0.320622 -0.396171,-0.598776 -0.831638,-0.685322 -0.61463,-0.12215 -3.655397,-0.134887 -3.73956,-0.01564 -0.01756,0.02493 -0.108536,0.08546 -0.201924,0.134521 -0.211134,0.110818 -0.37614,0.347637 -0.406514,0.583447 -0.01277,0.09878 -0.04389,0.341237 -0.06927,0.538794 -0.02538,0.197559 -0.05682,0.547399 -0.06975,0.777424 -0.01277,0.230027 -0.03256,0.432468 -0.04325,0.449869 -0.01117,0.0174 -0.0316,0.373669 -0.04629,0.791705 -0.01437,0.418037 -0.04661,0.884446 -0.07087,1.036468 -0.02426,0.152013 -0.04182,0.678404 -0.03895,1.169745 0.0064,1.044887 -0.05108,3.896605 -0.116197,5.787399 -0.01277,0.370422 -0.03511,1.168513 -0.0498,1.773535 -0.01436,0.605022 -0.03559,1.261678 -0.04661,1.459236 -0.01117,0.197557 -0.02873,2.207937 -0.03942,4.46751 -0.01915,4.035706 -0.0096,4.400159 0.117633,4.400159 0.01804,0 0.04501,0.03829 0.05985,0.08509 0.03831,0.120618 0.168501,0.135573 1.437984,0.165093 0.6172,0.01436 1.13019,0.03409 1.139974,0.04389 0.0096,0.0097 0.03607,0.0064 0.05858,-0.0073 0.02235,-0.01389 0.469161,-0.03371 0.99275,-0.04412 z m -1.280193,-0.940655 c -0.01277,-0.01357 -0.105982,-0.02916 -0.205435,-0.03472 -0.129764,-0.0072 -0.264221,-0.06696 -0.475705,-0.211108 -0.162181,-0.110547 -0.295345,-0.225544 -0.295935,-0.255544 -5.91e-4,-0.03001 -0.0415,-0.07617 -0.09082,-0.102598 -0.04932,-0.02643 -0.08986,-0.07765 -0.08986,-0.113835 0,-0.03617 -0.0166,-0.06578 -0.03687,-0.06578 -0.04996,0 -0.217119,-0.389205 -0.250654,-0.583694 -0.01436,-0.08643 -0.03655,-0.197559 -0.04788,-0.246949 -0.103747,-0.446419 -0.135829,-0.667454 -0.130402,-0.897991 0.0064,-0.293271 0.126252,-1.023353 0.182036,-1.112165 0.01899,-0.03037 0.04134,-0.103923 0.04948,-0.163453 0.008,-0.05952 0.04405,-0.149891 0.07981,-0.200815 0.03559,-0.05092 0.0648,-0.123842 0.0648,-0.162052 0,-0.169958 0.637088,-0.863596 0.958992,-1.044115 0.05283,-0.02965 0.227493,-0.08507 0.387998,-0.123156 0.39159,-0.09288 0.753157,-0.05312 0.961434,0.105743 0.08523,0.06506 0.171853,0.118272 0.192363,0.118272 0.08523,0 0.451077,0.445846 0.571152,0.695944 0.219945,0.458141 0.24403,0.527829 0.311785,0.901662 0.10231,0.564806 0.06847,1.347193 -0.07693,1.778866 -0.120347,0.357005 -0.293014,0.743179 -0.380225,0.850259 -0.400417,0.491614 -0.688387,0.694735 -1.148881,0.810347 -0.328655,0.08252 -0.48742,0.09955 -0.5301,0.05685 z m -3.761922,-1.21562 c 0,-0.05966 -0.01277,-0.06273 -0.06736,-0.01695 -0.03703,0.03074 -0.06736,0.06352 -0.06736,0.07285 0,0.0093 0.03033,0.01695 0.06736,0.01695 0.03703,0 0.06736,-0.03278 0.06736,-0.07285 z m 35.612332,-1.904627 c 0.112367,-0.118064 0.172859,-0.223981 0.173258,-0.303073 0.0012,-0.231219 -0.320786,-1.424621 -0.435531,-1.614495 -0.03352,-0.05556 -0.04916,-0.101018 -0.0348,-0.101018 0.01436,0 -0.02378,-0.09597 -0.08491,-0.213273 -0.06113,-0.117299 -0.200902,-0.395116 -0.310443,-0.61737 -0.409483,-0.830736 -0.621335,-1.232383 -0.663951,-1.258717 -0.0241,-0.01484 -0.03368,-0.04364 -0.02123,-0.06383 0.01277,-0.02019 -0.008,-0.06167 -0.04421,-0.09219 -0.03671,-0.03052 -0.06688,-0.07936 -0.06688,-0.108551 0,-0.02918 -0.06416,-0.152987 -0.142533,-0.275125 -0.07837,-0.122134 -0.190576,-0.312985 -0.249201,-0.424112 -0.133754,-0.253701 -0.181142,-0.332453 -0.350681,-0.583695 -0.125295,-0.185768 -0.238108,-0.405889 -0.483015,-0.942891 -0.0506,-0.111122 -0.107738,-0.242458 -0.126891,-0.291848 -0.01915,-0.04938 -0.0739,-0.190823 -0.121784,-0.314296 -0.312837,-0.80662 -0.501434,-1.329235 -0.501434,-1.389463 0,-0.03837 -0.01867,-0.06977 -0.04134,-0.06977 -0.02267,0 -0.05523,-0.06566 -0.07198,-0.145932 -0.02825,-0.134201 -0.503956,-1.130615 -0.838022,-1.755218 -0.280963,-0.525301 -0.927532,-1.099275 -1.626533,-1.443877 l -0.273222,-0.134696 0.0016,-0.224499 c 0.0032,-0.323757 0.09784,-0.436367 0.551281,-0.652822 0.443479,-0.211734 0.922967,-0.605555 1.032077,-0.847717 0.0399,-0.08841 0.09513,-0.191051 0.122901,-0.228094 0.171263,-0.228542 0.325894,-1.015655 0.353076,-1.797251 0.02218,-0.636422 0.09082,-0.915161 0.275185,-1.116159 0.148279,-0.161729 0.149875,-0.162208 0.522535,-0.160885 0.3284,0.0012 0.41601,0.02027 0.721809,0.157425 0.505728,0.226805 0.684109,0.380859 1.088739,0.940217 0.04932,0.06828 0.171199,0.232832 0.270701,0.365679 0.167974,0.224284 0.381055,0.631446 0.584607,1.117083 0.04661,0.111121 0.152269,0.33338 0.234868,0.493896 0.08252,0.160516 0.200488,0.423178 0.261986,0.583694 0.06145,0.160515 0.13104,0.322155 0.154503,0.359196 0.02346,0.03704 0.06273,0.11393 0.08731,0.170854 0.02458,0.05693 0.103268,0.228668 0.174838,0.381646 0.31595,0.674869 0.408923,0.887902 0.408923,0.936997 0,0.02886 0.02713,0.08437 0.06017,0.123347 0.03304,0.03899 0.118112,0.21232 0.188835,0.385182 0.07087,0.172863 0.239641,0.526448 0.37523,0.785743 0.13551,0.259296 0.38428,0.74421 0.552654,1.07759 0.168357,0.33338 0.325878,0.636453 0.350027,0.673494 0.137584,0.210887 0.84621,1.78695 1.009444,2.244981 0.120666,0.338594 0.393872,1.359971 0.491794,1.83859 0.07613,0.371937 0.204685,0.496188 0.513517,0.496188 0.202865,0 0.223695,-0.01181 0.398517,-0.226764 0.210638,-0.258937 0.212378,-0.290457 0.0557,-1.007975 -0.04852,-0.222253 -0.0972,-0.454609 -0.108057,-0.516346 -0.01117,-0.06174 -0.06129,-0.203171 -0.111887,-0.314297 -0.0506,-0.111121 -0.09258,-0.224573 -0.09305,-0.252101 -5.11e-4,-0.02753 -0.132318,-0.324476 -0.292839,-0.659882 -0.160521,-0.335406 -0.291849,-0.622979 -0.291849,-0.639054 0,-0.01607 -0.07917,-0.19394 -0.176083,-0.395259 -0.09688,-0.201319 -0.225818,-0.477159 -0.286629,-0.61298 -0.264045,-0.589757 -0.654773,-1.398632 -0.786915,-1.628977 -0.05347,-0.09336 -0.09736,-0.196958 -0.09736,-0.230224 0,-0.03326 -0.03081,-0.08605 -0.06847,-0.117282 -0.03767,-0.03124 -0.05874,-0.06641 -0.04709,-0.07818 0.02043,-0.02043 -0.196466,-0.440613 -0.399539,-0.774008 -0.134392,-0.220682 -0.562565,-1.107023 -0.562565,-1.164604 0,-0.02622 -0.02027,-0.04769 -0.04485,-0.04769 -0.02474,0 -0.04485,-0.02324 -0.04485,-0.05165 0,-0.02841 -0.04836,-0.154695 -0.107419,-0.280624 -0.09385,-0.20008 -0.160377,-0.356183 -0.183664,-0.431022 -0.0032,-0.01229 -0.06113,-0.141144 -0.12737,-0.286209 -0.06624,-0.145071 -0.120347,-0.283438 -0.120347,-0.30749 0,-0.02405 -0.07853,-0.208433 -0.174566,-0.409736 -0.09609,-0.2013 -0.189347,-0.416513 -0.207383,-0.47825 -0.034,-0.116085 -0.560618,-1.187266 -0.739574,-1.504137 -0.0557,-0.09878 -0.195986,-0.300827 -0.311561,-0.448996 -0.115558,-0.148167 -0.243838,-0.32323 -0.285033,-0.389028 -0.128966,-0.205979 -0.451923,-0.509651 -0.639115,-0.600958 -0.0988,-0.04819 -0.18633,-0.102757 -0.194566,-0.121272 -0.008,-0.01852 -0.03288,-0.03368 -0.05491,-0.03368 -0.02203,0 -0.146523,-0.0493 -0.276894,-0.109557 -0.130242,-0.06025 -0.428891,-0.152142 -0.663487,-0.204181 -0.234596,-0.05205 -0.526717,-0.11682 -0.649138,-0.143938 -0.427151,-0.09462 -0.634438,-0.549333 -0.427056,-0.936819 0.03831,-0.07168 0.851701,-0.522972 0.851701,-0.472577 0,0.01101 0.125135,-0.03093 0.277979,-0.09307 0.314657,-0.127849 0.549892,-0.312823 0.766325,-0.602583 0.211452,-0.283085 0.260501,-0.418366 0.303803,-0.838135 0.06033,-0.584372 0.317148,-0.889955 0.739718,-0.880029 0.365621,0.0086 1.177595,0.36347 1.638839,0.716272 0.335151,0.25636 1.152998,1.140027 1.055093,1.140027 -0.01835,0 -0.01117,0.0275 0.0174,0.06112 0.02793,0.03361 0.133434,0.230314 0.234468,0.437111 0.101034,0.206797 0.219322,0.426804 0.262832,0.488904 0.04357,0.0621 0.104705,0.193728 0.135829,0.292508 0.03128,0.09878 0.164431,0.372931 0.296047,0.609224 0.131679,0.236295 0.394989,0.741416 0.585325,1.122491 0.190321,0.381074 0.441293,0.855909 0.557698,1.055189 0.116356,0.199279 0.225578,0.406259 0.242624,0.459954 0.01708,0.05369 0.05491,0.123012 0.08411,0.154025 0.02921,0.03101 0.08795,0.127114 0.130562,0.213539 0.04262,0.08643 0.200009,0.369297 0.349804,0.628593 0.149875,0.259294 0.354656,0.643186 0.455243,0.853092 0.312151,0.651442 0.486494,1.005756 0.552302,1.122491 0.03479,0.06174 0.113484,0.223374 0.174822,0.359195 0.06129,0.135813 0.204127,0.444065 0.317323,0.684986 0.113164,0.240921 0.205802,0.458398 0.205802,0.48328 0,0.02488 0.01963,0.08033 0.04373,0.123203 0.120027,0.213774 0.263183,0.56365 0.354129,0.865134 0.0557,0.184428 0.140458,0.416141 0.188501,0.51492 0.04804,0.09878 0.08731,0.211034 0.08731,0.249454 -4.95e-4,0.137378 0.186138,0.618201 0.268546,0.692775 0.176354,0.159595 0.406577,0.164425 0.800034,0.01681 0.224254,-0.08415 0.317531,-0.594813 0.187496,-1.026371 -0.04086,-0.135829 -0.110292,-0.368178 -0.154185,-0.516347 -0.04389,-0.148167 -0.159611,-0.461343 -0.257165,-0.695943 -0.09752,-0.234601 -0.193816,-0.466956 -0.213927,-0.516345 -0.02011,-0.04938 -0.07821,-0.180721 -0.128966,-0.291847 -0.154982,-0.338862 -0.27742,-0.626332 -0.27742,-0.651446 0,-0.01309 -0.05475,-0.109302 -0.121464,-0.213764 -0.115558,-0.180715 -0.462409,-0.903212 -0.559947,-1.166497 -0.02522,-0.06791 -0.06401,-0.123475 -0.08619,-0.123475 -0.02235,0 -0.0407,-0.02525 -0.04086,-0.05612 0,-0.03087 -0.07039,-0.187455 -0.15594,-0.347973 -0.213288,-0.399951 -0.517268,-1.033622 -0.517268,-1.078305 0,-0.02019 -0.01596,-0.04343 -0.03368,-0.05167 -0.03176,-0.01421 -0.132158,-0.212235 -0.758376,-1.496654 -0.288513,-0.591811 -0.799651,-1.534327 -1.022692,-1.885783 -0.07837,-0.123475 -0.230414,-0.396238 -0.337913,-0.606144 -0.107577,-0.209906 -0.222769,-0.413546 -0.256143,-0.452532 -0.03336,-0.03899 -0.06065,-0.09455 -0.06065,-0.123476 0,-0.02892 -0.01596,-0.05259 -0.03511,-0.05259 -0.01931,0 -0.05938,-0.05556 -0.08906,-0.123476 -0.08028,-0.183418 -0.272185,-0.51193 -0.348096,-0.595802 -0.03655,-0.04045 -0.06656,-0.0936 -0.06656,-0.118128 0,-0.02453 -0.06001,-0.123954 -0.133435,-0.220964 -0.07342,-0.09701 -0.134073,-0.194496 -0.134711,-0.216647 -0.0014,-0.04286 -0.272552,-0.387874 -0.433919,-0.551988 -0.05315,-0.05411 -0.162883,-0.190485 -0.243726,-0.303073 -0.08092,-0.112589 -0.158813,-0.204704 -0.17337,-0.204704 -0.01436,0 -0.12721,-0.09273 -0.250573,-0.206082 -0.346372,-0.318384 -1.192982,-0.689084 -1.632646,-0.71488 -0.402284,-0.02361 -1.666165,0.131008 -2.273309,0.278098 -0.04932,0.01197 -0.170624,0.03941 -0.269408,0.06097 -0.0988,0.02156 -0.280612,0.06535 -0.404087,0.09728 -0.402444,0.104083 -0.632507,0.0049 -0.680917,-0.293244 -0.04517,-0.278029 0.133116,-0.420292 0.960188,-0.766525 0.153546,-0.06431 0.31046,-0.1169 0.348575,-0.1169 0.03815,0 0.104386,-0.01887 0.147321,-0.04193 0.04293,-0.02306 0.329246,-0.117315 0.636354,-0.209463 0.52504,-0.157536 0.596083,-0.167761 1.189836,-0.171344 0.347298,-0.0021 0.67731,0.01022 0.73335,0.02745 0.05602,0.01719 0.251371,0.08285 0.434078,0.145917 0.182723,0.06306 0.361088,0.114664 0.396362,0.114664 0.06784,0 0.739095,0.435282 0.924404,0.599365 0.06001,0.05312 0.303213,0.281781 0.540507,0.508138 0.492767,0.470071 0.679161,0.643496 0.691914,0.643777 0.0048,9e-5 0.150354,0.0516 0.323212,0.114441 0.940652,0.34191 1.718374,0.564701 2.716422,0.778173 0.541879,0.115894 1.767549,0.306383 2.177638,0.338432 0.172859,0.01357 0.526445,0.0448 0.785733,0.06954 0.726646,0.06934 1.255996,0.09896 2.087841,0.116883 1.497264,0.03226 1.760032,0.02728 2.469471,-0.04683 0.395117,-0.04127 0.915561,-0.0732 1.156542,-0.07098 0.432355,0.004 0.504722,0.0226 0.897014,0.230338 0.04294,0.02271 0.09976,0.04129 0.126253,0.04129 0.02649,0 0.153067,0.04732 0.281235,0.105167 0.566874,0.255945 1.67772,0.547963 2.590536,0.680991 0.259096,0.03776 0.53168,0.07921 0.605772,0.09214 0.419868,0.07321 1.297098,0.109382 2.244978,0.09256 1.04973,-0.01864 1.08622,-0.0163 1.4113,0.09114 0.18355,0.06065 0.4462,0.138909 0.58369,0.173902 0.46114,0.117394 0.67197,0.181355 0.70429,0.213688 0.0177,0.01767 0.10167,0.03211 0.18652,0.03211 0.0849,0 0.27855,0.03277 0.43029,0.07283 0.17858,0.04715 0.48184,0.07486 0.85988,0.07858 0.58261,0.0057 0.58472,0.0054 0.89799,-0.151408 0.41538,-0.207891 0.49715,-0.348735 0.45125,-0.777328 -0.0282,-0.263746 -0.052,-0.322162 -0.18269,-0.449077 -0.0827,-0.08024 -0.19229,-0.149061 -0.2437,-0.152923 -0.0514,-0.0038 -0.21517,-0.05025 -0.36389,-0.103061 -0.14876,-0.05281 -0.33337,-0.103971 -0.41025,-0.113707 -0.0769,-0.0097 -0.20252,-0.03757 -0.27911,-0.06186 -0.30646,-0.09717 -2.05248,-0.400988 -2.45163,-0.426596 -0.13583,-0.0088 -0.31768,-0.03899 -0.4041,-0.06728 -0.0863,-0.02828 -0.47033,-0.111233 -0.85309,-0.18433 -0.38277,-0.07309 -0.75656,-0.152046 -0.83065,-0.175456 -0.0741,-0.0234 -0.36704,-0.08399 -0.65104,-0.134616 -0.28398,-0.05063 -0.61738,-0.111265 -0.740834,-0.134744 -0.123539,-0.02348 -0.36594,-0.06345 -0.538799,-0.08882 -0.978336,-0.143618 -1.569504,-0.168625 -1.791666,-0.0758 -0.09481,0.03963 -0.203744,0.07205 -0.241987,0.07205 -0.115877,0 -0.233782,-0.140793 -0.233782,-0.279308 0,-0.291422 -0.195268,-0.481517 -0.496135,-0.482987 -0.283549,-0.0014 -0.552861,0.175504 -0.622851,0.409096 -0.05523,0.184377 -0.17479,0.277668 -0.326755,0.254993 -0.109494,-0.01633 -0.138543,-0.06084 -0.260406,-0.398742 -0.0723,-0.200685 -0.123379,-0.267993 -0.258378,-0.341216 -0.300468,-0.162941 -0.624399,-0.01898 -0.79737,0.354368 -0.0581,0.125263 -0.130881,0.243422 -0.161909,0.262591 -0.06384,0.03942 -0.398756,-0.115319 -0.398756,-0.184214 0,-0.08946 -0.258762,-0.3116 -0.466831,-0.400796 -0.209218,-0.08969 -0.35282,-0.122134 -1.082211,-0.244649 -0.197567,-0.03318 -0.601654,-0.121416 -0.897988,-0.196074 -0.29635,-0.07467 -0.649921,-0.157632 -0.78575,-0.184392 -0.135829,-0.02675 -0.358071,-0.07044 -0.4939,-0.09706 -0.355837,-0.06975 -1.517455,-0.263776 -1.72862,-0.288743 -0.0988,-0.01165 -0.361456,-0.04231 -0.583698,-0.06806 -0.841166,-0.09746 -2.341926,-0.326492 -3.098083,-0.472798 -0.197551,-0.03823 -0.460207,-0.08799 -0.583682,-0.110595 -0.735041,-0.134552 -0.986269,-0.184205 -1.369447,-0.270689 -0.234597,-0.05294 -0.446752,-0.101529 -0.471444,-0.107961 -0.02474,-0.0064 -0.145884,-0.02763 -0.269391,-0.04713 -0.123539,-0.0195 -0.2447,-0.05036 -0.269408,-0.06855 -0.02474,-0.01821 -0.135829,-0.04696 -0.246934,-0.06388 -0.11109,-0.01692 -0.291243,-0.06097 -0.400257,-0.09791 -0.109014,-0.03692 -0.226648,-0.05622 -0.261427,-0.04287 -0.0348,0.01341 -0.100555,0.0043 -0.146044,-0.02009 -0.04565,-0.02439 -0.200711,-0.07658 -0.344728,-0.115974 -0.143969,-0.03939 -0.332566,-0.09141 -0.418995,-0.115606 -0.612652,-0.171462 -2.148717,-0.263307 -2.36151,-0.141192 -0.05171,0.02969 -0.152748,0.06459 -0.224493,0.07755 -0.275489,0.04978 -0.395724,0.08289 -0.552175,0.152045 -0.08906,0.03936 -0.194007,0.07462 -0.233192,0.07834 -0.09162,0.0086 -0.509909,0.129827 -0.938992,0.271899 -0.185213,0.06132 -0.356954,0.117186 -0.381646,0.124145 -0.02474,0.007 -0.135829,0.03721 -0.24695,0.06724 -0.11109,0.03002 -0.262656,0.08343 -0.336732,0.118671 -0.07406,0.03524 -0.559006,0.198402 -1.077598,0.362578 -0.518593,0.164177 -1.033817,0.334013 -1.144938,0.37741 -0.11109,0.0434 -0.313173,0.111456 -0.449002,0.151231 -0.259975,0.07615 -1.152584,0.370716 -2.020469,0.666775 -0.283996,0.09687 -0.546652,0.183552 -0.583698,0.192616 -0.03703,0.0091 -0.183282,0.05821 -0.324968,0.109206 -0.141735,0.051 -0.293206,0.09969 -0.336748,0.108232 -0.04357,0.0085 -0.109493,0.02713 -0.146523,0.04134 -0.247956,0.09507 -0.919743,0.301624 -1.062643,0.326718 -0.09465,0.01663 -0.212809,0.05561 -0.26256,0.08665 -0.0498,0.03103 -0.160872,0.07173 -0.24695,0.09043 -0.08603,0.01871 -0.368638,0.103492 -0.627926,0.188393 -0.259304,0.08491 -0.501754,0.162907 -0.538799,0.173326 -0.500317,0.140745 -0.810569,0.246322 -0.85309,0.290315 -0.01277,0.01277 -0.113324,0.04871 -0.224509,0.07987 -0.111089,0.03116 -0.222242,0.06258 -0.24695,0.06986 -0.02474,0.0073 -0.115558,0.04377 -0.202036,0.08112 -0.08635,0.03735 -0.308688,0.112446 -0.4939,0.166905 -0.185213,0.05446 -0.377161,0.116101 -0.426545,0.136978 -0.04932,0.02088 -0.180728,0.06448 -0.291849,0.09687 -0.111089,0.0324 -0.247509,0.08755 -0.30307,0.122534 -0.05554,0.03499 -0.101033,0.04879 -0.101033,0.03068 0,-0.01812 -0.06975,0.02029 -0.154983,0.08533 -0.08523,0.06506 -0.171151,0.114697 -0.190815,0.110323 -0.01963,-0.0043 -0.0964,0.0173 -0.170464,0.04814 -0.07406,0.03085 -0.20036,0.06707 -0.280613,0.08048 -0.08028,0.01341 -0.145884,0.03871 -0.145884,0.05622 0,0.01751 -0.08587,0.05775 -0.190815,0.0894 -0.606538,0.182959 -0.91936,0.291119 -0.997793,0.344982 -0.04868,0.03345 -0.117474,0.06083 -0.152588,0.06083 -0.03527,0 -0.167145,0.04849 -0.293078,0.107753 -0.125933,0.05926 -0.269392,0.118384 -0.318776,0.131392 -0.11891,0.0313 -0.873519,0.292249 -0.987785,0.341604 -0.206552,0.08921 -0.37191,0.142485 -0.463606,0.149396 -0.05379,0.004 -0.09768,0.02326 -0.09768,0.0427 0,0.01944 -0.03144,0.03535 -0.06975,0.03535 -0.03847,0 -0.212251,0.06062 -0.386339,0.134696 -0.174104,0.07409 -0.346723,0.134696 -0.383625,0.134696 -0.03687,0 -0.130722,0.0283 -0.20858,0.06289 -0.07773,0.03459 -0.181893,0.07291 -0.231276,0.08515 -0.154025,0.03816 -0.528441,0.176088 -0.775742,0.28572 -0.130402,0.05778 -0.267508,0.10504 -0.304857,0.10504 -0.03735,0 -0.151631,0.04274 -0.254101,0.09499 -0.102471,0.05224 -0.308688,0.133929 -0.458419,0.181535 -0.149715,0.04761 -0.353076,0.125614 -0.451859,0.173371 -0.0988,0.04776 -0.230112,0.10836 -0.291849,0.134696 -0.309023,0.131791 -0.506718,0.299015 -0.62301,0.52697 -0.05251,0.102822 -0.09545,0.221536 -0.09545,0.263791 0,0.04225 -0.02665,0.108727 -0.05937,0.14772 -0.07246,0.08651 -0.156738,0.353737 -0.206601,0.65458 -0.02043,0.123475 -0.08076,0.414508 -0.134232,0.646745 -0.05331,0.232236 -0.09257,0.45449 -0.08715,0.493896 0.0048,0.03941 -0.0048,0.132254 -0.02123,0.206345 -0.01724,0.07409 -0.03416,0.447874 -0.03783,0.830644 -0.0064,0.638899 0.0048,0.741944 0.131998,1.257188 0.147162,0.596155 0.200679,0.833798 0.212235,0.942891 0.01628,0.153179 0.255841,0.816226 0.421868,1.167389 0.158494,0.335338 0.250845,0.49758 0.40878,0.718573 0.06161,0.08633 0.112207,0.171393 0.112207,0.189021 1.43e-4,0.07157 0.581016,0.716671 0.701299,0.778873 0.07119,0.03681 0.129445,0.0842 0.129445,0.105296 0,0.04737 0.534792,0.408352 0.805333,0.5436 0.21123,0.105583 0.683327,0.272252 0.833505,0.294248 0.04932,0.0072 0.251436,0.03693 0.449002,0.066 0.197551,0.02906 0.712776,0.06654 1.144939,0.08328 1.289641,0.04994 4.681377,0.0059 5.338911,-0.06927 0.133595,-0.01532 0.386115,-0.03264 0.561241,-0.03859 0.691387,-0.0235 1.695165,-0.174506 2.653215,-0.399176 0.502791,-0.117905 1.471997,-0.407205 1.605177,-0.479123 0.04325,-0.02335 0.20743,-0.09093 0.364887,-0.150194 0.157376,-0.05926 0.394846,-0.158541 0.527546,-0.220601 0.423608,-0.19813 0.726454,-0.32874 1.066154,-0.459819 0.182053,-0.07024 0.462107,-0.20433 0.622356,-0.297972 0.160234,-0.09364 0.304394,-0.170254 0.320356,-0.170254 0.01596,0 0.210702,-0.07288 0.432785,-0.161949 0.368127,-0.14764 0.439473,-0.161314 0.807888,-0.154775 0.378453,0.0067 0.900206,0.112669 1.189836,0.241602 0.203121,0.09042 0.557937,0.331322 0.752455,0.510864 0.239959,0.221475 0.412196,0.49137 0.568662,0.891083 0.0672,0.171606 0.169076,0.413034 0.226457,0.536509 0.0573,0.123475 0.149396,0.335625 0.204637,0.471445 0.232841,0.573061 0.360306,0.863105 0.573674,1.305389 0.124178,0.257479 0.269775,0.569168 0.323468,0.692643 0.163426,0.375844 0.196098,0.443007 0.294977,0.606144 0.05235,0.08643 0.200951,0.359197 0.330156,0.606145 0.235442,0.450072 0.535016,0.929818 0.598111,0.957857 0.01851,0.0083 0.03368,0.04236 0.03368,0.07586 0,0.0668 0.382683,0.81138 0.472544,0.919418 0.07821,0.09407 0.267907,0.483679 0.332263,0.682511 0.02953,0.09139 0.101033,0.235749 0.158653,0.320796 0.05778,0.08504 0.138223,0.272936 0.179004,0.41753 0.0407,0.144591 0.103428,0.33911 0.13934,0.432257 0.03591,0.09315 0.08715,0.264889 0.113803,0.381646 0.02666,0.116756 0.05922,0.252698 0.0723,0.302086 0.01277,0.04938 0.034,0.156499 0.04629,0.238019 0.01277,0.08228 0.08763,0.217109 0.168661,0.303073 0.133754,0.141878 0.167815,0.154854 0.405859,0.154854 0.245179,0 0.269567,-0.01022 0.432466,-0.181489 z m -2.305247,-5.416731 c 0.0324,-0.01293 0.07119,-0.01133 0.08603,0.0035 0.01436,0.01484 -0.01117,0.02554 -0.0589,0.02358 -0.05235,-0.0022 -0.06289,-0.01277 -0.02713,-0.02713 z M 39.264615,41.88086 c 0,-0.0385 0.02059,-0.0573 0.04565,-0.0418 0.02506,0.01548 0.034,0.04701 0.01979,0.07001 -0.03847,0.06228 -0.06544,0.05066 -0.06544,-0.0282 z m -1.212294,-3.372077 c -0.161144,-0.06581 -0.219641,-0.178136 -0.257804,-0.495059 -0.0415,-0.34474 0.01277,-0.485539 0.225083,-0.587479 0.237949,-0.114074 0.48102,-0.189843 0.608981,-0.189843 0.05411,0 0.133594,-0.01909 0.176418,-0.04241 0.08172,-0.0445 1.687392,-0.373865 2.412745,-0.49494 0.148119,-0.02474 0.309805,-0.05433 0.359189,-0.06576 0.04948,-0.01149 0.231228,-0.05154 0.404103,-0.0891 0.172859,-0.03756 0.46699,-0.107514 0.653624,-0.155446 0.186633,-0.04793 0.439185,-0.100491 0.56124,-0.116787 0.122103,-0.01631 0.434062,-0.07146 0.693367,-0.122565 0.259288,-0.05111 0.516852,-0.09842 0.572349,-0.105136 0.0972,-0.01181 0.385908,-0.0581 0.572589,-0.09189 0.08427,-0.01516 0.443336,-0.0864 1.459244,-0.289163 0.234597,-0.04683 0.495561,-0.09677 0.579915,-0.111009 0.08427,-0.01421 0.167815,-0.03481 0.185484,-0.04573 0.01772,-0.01085 0.332534,-0.07198 0.69972,-0.135717 0.367185,-0.06373 0.758519,-0.131839 0.869657,-0.151376 0.111089,-0.01952 0.57179,-0.09147 1.023713,-0.159885 l 0.821678,-0.124385 0.105663,0.0992 c 0.167448,0.157313 0.217119,0.440244 0.152747,0.870462 -0.03017,0.201461 -0.08348,0.411397 -0.118591,0.466525 -0.0747,0.117314 -0.319222,0.277093 -0.467309,0.305356 -0.05698,0.01085 -0.154025,0.03891 -0.21581,0.06233 -0.06177,0.02341 -0.445634,0.0856 -0.853105,0.138207 -0.407456,0.05261 -0.872163,0.116356 -1.032684,0.141687 -0.160521,0.02531 -0.544402,0.08437 -0.85309,0.131232 -0.308688,0.04686 -0.601654,0.09288 -0.651053,0.102263 -0.04932,0.0094 -0.190815,0.03112 -0.314291,0.0483 -0.123539,0.01717 -0.315423,0.04903 -0.426544,0.07082 -0.11109,0.02179 -0.394,0.06313 -0.628597,0.09187 -0.234596,0.02875 -0.463159,0.07165 -0.50793,0.09533 -0.04469,0.02369 -0.317514,0.07136 -0.606139,0.105934 -0.288625,0.03457 -0.585374,0.0713 -0.659465,0.08159 -0.07406,0.01037 -0.457972,0.06302 -0.85309,0.117123 -0.395117,0.05412 -0.823561,0.128726 -0.95208,0.165814 -0.128487,0.03708 -0.330586,0.07122 -0.449002,0.07585 -0.118431,0.0046 -0.239081,0.02353 -0.268131,0.04198 -0.02905,0.01845 -0.170496,0.04215 -0.314306,0.05266 -0.405492,0.02964 -0.62767,0.0603 -1.608449,0.221903 -0.504881,0.08319 -1.011567,0.123379 -1.100039,0.08724 z m -0.336748,-2.068608 c -0.07406,-0.01069 -0.168741,-0.05004 -0.210367,-0.0874 -0.125614,-0.112685 -0.253255,-0.43354 -0.285289,-0.716759 -0.02793,-0.246827 -0.02107,-0.27813 0.09082,-0.410989 0.06656,-0.07909 0.162739,-0.143809 0.213735,-0.143809 0.05107,0 0.266423,-0.04894 0.478689,-0.108759 0.445826,-0.12563 1.17335,-0.317976 1.530878,-0.404731 0.135829,-0.03296 0.438899,-0.111058 0.673495,-0.173542 0.234597,-0.06249 0.588183,-0.156196 0.785734,-0.208234 0.197567,-0.05203 0.399618,-0.111887 0.449002,-0.133003 0.04932,-0.02112 0.281745,-0.08375 0.516342,-0.139181 0.234596,-0.05543 0.517475,-0.130131 0.628596,-0.165986 0.111089,-0.03587 0.282863,-0.08228 0.381646,-0.103157 0.0988,-0.02088 0.371543,-0.09112 0.606139,-0.156084 0.401358,-0.111153 0.618956,-0.168155 1.212295,-0.31757 0.135829,-0.03421 0.398485,-0.103013 0.583697,-0.152923 0.185213,-0.04991 0.538799,-0.142517 0.78575,-0.205795 0.246934,-0.06329 0.590417,-0.153945 0.763292,-0.201479 0.353778,-0.09728 1.409605,-0.342659 1.751077,-0.406952 0.205707,-0.03874 0.748257,-0.171173 1.077599,-0.263049 0.418213,-0.116675 0.9735,-0.19664 1.088978,-0.156818 0.17827,0.06147 0.29236,0.327251 0.315791,0.735643 0.02634,0.460663 -0.03687,0.67817 -0.224972,0.77384 -0.162851,0.08281 -1.224393,0.416253 -1.471646,0.462272 -0.266455,0.04959 -0.773412,0.161119 -1.0327,0.227185 -0.135829,0.0346 -0.459089,0.103731 -0.718394,0.153626 -0.259288,0.04988 -0.572461,0.119533 -0.695936,0.154759 -0.123539,0.03523 -0.345733,0.08807 -0.4939,0.11741 -0.148119,0.02934 -0.370426,0.07968 -0.493901,0.111839 -0.123539,0.03216 -0.426545,0.102407 -0.673495,0.156084 -0.246934,0.05368 -0.55002,0.139436 -0.673495,0.190582 -0.123539,0.05114 -0.305304,0.09747 -0.404087,0.102949 -0.222179,0.01229 -0.627049,0.09534 -0.730828,0.149811 -0.04262,0.02235 -0.163234,0.05484 -0.268194,0.07222 -0.105024,0.01738 -0.190815,0.04726 -0.190815,0.06638 0,0.01914 -0.05554,0.02836 -0.123539,0.02053 -0.06799,-0.0078 -0.204302,0.0085 -0.30307,0.03618 -0.25359,0.07122 -0.258697,0.07256 -0.366036,0.09661 -0.05315,0.01197 -0.157057,0.05286 -0.23075,0.09101 -0.07374,0.03815 -0.191916,0.06771 -0.26256,0.06568 -0.07071,-0.0021 -0.3103,0.03973 -0.532542,0.09278 -0.222259,0.05304 -0.464708,0.107546 -0.5388,0.121113 -0.07406,0.01357 -0.198364,0.05326 -0.276175,0.08823 -0.07789,0.03497 -0.213017,0.06357 -0.300436,0.06357 -0.08747,0 -0.168693,0.0158 -0.180616,0.03508 -0.01117,0.0193 -0.08412,0.03985 -0.160488,0.04566 -0.0763,0.0057 -0.22435,0.03906 -0.328927,0.07387 -0.104545,0.03481 -0.291163,0.07752 -0.414638,0.09492 -0.123539,0.01738 -0.295216,0.05754 -0.381646,0.08922 -0.08635,0.03168 -0.266726,0.0689 -0.400656,0.08273 -0.133913,0.01389 -0.264252,0.04587 -0.289614,0.07122 -0.02538,0.02535 -0.06736,0.04306 -0.09321,0.03936 -0.02602,-0.0037 -0.107737,-0.01548 -0.181845,-0.02621 z m -0.459105,-2.537567 c -0.104545,-0.113484 -0.236847,-0.472447 -0.236847,-0.642831 0,-0.239094 0.11093,-0.401503 0.319382,-0.467309 0.108376,-0.03421 0.218635,-0.07827 0.24513,-0.0979 0.0265,-0.01963 0.167927,-0.06685 0.314291,-0.104929 0.146363,-0.03807 0.468187,-0.139947 0.715137,-0.226399 0.24695,-0.08645 0.711658,-0.239132 1.0327,-0.339298 0.321026,-0.100172 0.735217,-0.233258 0.920429,-0.295761 0.369707,-0.124752 0.373043,-0.125949 0.695953,-0.247017 0.123539,-0.0463 0.335614,-0.114186 0.471443,-0.150864 0.135829,-0.03668 0.287364,-0.08498 0.336747,-0.107323 0.130403,-0.05898 0.368973,-0.135717 0.651038,-0.209357 0.135829,-0.03547 0.499519,-0.143538 0.808191,-0.240178 0.308688,-0.09664 0.783499,-0.239362 1.055141,-0.317168 0.49837,-0.14274 0.688834,-0.202985 0.853105,-0.269818 0.04932,-0.02009 0.170609,-0.05645 0.269392,-0.08081 0.161175,-0.03974 1.21887,-0.370283 2.548287,-0.796399 0.265609,-0.08514 0.522024,-0.15479 0.569827,-0.15479 0.04788,0 0.09944,-0.02021 0.114601,-0.0449 0.01596,-0.02469 0.06368,-0.0449 0.107738,-0.0449 0.04389,0 0.239767,-0.04804 0.435131,-0.106747 0.195364,-0.05872 0.486543,-0.14239 0.647064,-0.185949 0.160505,-0.04356 0.370697,-0.103939 0.467086,-0.134185 0.225259,-0.07069 0.320738,-0.04324 0.450837,0.12962 0.09385,0.124736 0.106142,0.192189 0.112207,0.614168 0.008,0.599374 -0.03288,0.665434 -0.502919,0.805333 -0.178812,0.05322 -0.375613,0.114186 -0.43735,0.135494 -0.06177,0.02131 -0.182962,0.05245 -0.269408,0.06919 -0.08635,0.01674 -0.177344,0.04645 -0.202035,0.06602 -0.02474,0.01957 -0.165198,0.05772 -0.312232,0.08478 -0.147001,0.02707 -0.287443,0.06935 -0.312039,0.09395 -0.02458,0.0246 -0.08044,0.04474 -0.124018,0.04474 -0.04357,0 -0.165836,0.02934 -0.271642,0.06519 -0.105822,0.03585 -0.263279,0.07294 -0.349932,0.08241 -0.08667,0.0094 -0.200248,0.04011 -0.252473,0.06806 -0.05219,0.02795 -0.193496,0.07203 -0.313923,0.09797 -0.120506,0.02594 -0.259368,0.06385 -0.308767,0.08426 -0.185564,0.07669 -0.553627,0.185826 -0.626697,0.185826 -0.04166,0 -0.230958,0.05299 -0.420512,0.117777 -0.18957,0.06477 -0.388365,0.123411 -0.441755,0.130322 -0.05347,0.0069 -0.265545,0.07339 -0.471444,0.147768 -0.686742,0.248063 -1.180771,0.405642 -1.362153,0.434489 -0.0988,0.01564 -0.260421,0.06578 -0.359204,0.111248 -0.205133,0.09444 -0.627144,0.221622 -1.212279,0.365341 -0.222258,0.05459 -0.423304,0.116244 -0.446751,0.13701 -0.02346,0.02076 -0.08826,0.03775 -0.14381,0.03775 -0.0557,0 -0.14764,0.01796 -0.204302,0.03992 -0.05666,0.02195 -0.264779,0.08504 -0.462329,0.140218 -0.197567,0.05516 -0.54105,0.156147 -0.763293,0.224418 -0.222258,0.06827 -0.505121,0.147257 -0.628596,0.175532 -0.279144,0.06392 -0.688993,0.180113 -0.808191,0.229116 -0.04948,0.0203 -0.149715,0.05007 -0.222945,0.06614 -0.07326,0.01607 -0.214661,0.06563 -0.31429,0.110132 -0.0996,0.0445 -0.282192,0.103061 -0.405651,0.130131 -0.123539,0.02707 -0.319318,0.07001 -0.435212,0.0954 -0.311369,0.06825 -0.414414,0.05733 -0.517794,-0.05484 z M 24.437973,50.892817 c 0.01277,-0.03864 -0.008,-0.05483 -0.05985,-0.0449 -0.04405,0.0085 -0.08906,0.0427 -0.100076,0.07593 -0.01277,0.03864 0.008,0.05483 0.05985,0.0449 0.04405,-0.0085 0.08906,-0.0427 0.100076,-0.07593 z M 52.285497,44.10074 c 0,-0.02469 -0.02027,-0.03242 -0.04485,-0.01716 -0.02474,0.01532 -0.04485,0.04796 -0.04485,0.07265 0,0.02469 0.02027,0.03242 0.04485,0.01714 0.02474,-0.01532 0.04485,-0.04795 0.04485,-0.07265 z m -34.57269,-8.076626 c 0,-0.02469 -0.03144,-0.0449 -0.07007,-0.0449 -0.03847,0 -0.05746,0.02021 -0.0423,0.0449 0.01596,0.02469 0.04677,0.0449 0.07007,0.0449 0.0233,0 0.0423,-0.02021 0.0423,-0.0449 z M 90.612889,32.11602 c 0.071,-0.02683 0.18466,-0.101784 0.25257,-0.166576 0.10008,-0.09548 0.12354,-0.157313 0.12354,-0.326469 0,-0.299011 -0.13694,-0.409082 -0.60614,-0.487412 -0.46427,-0.07751 -0.47468,-0.07958 -0.67491,-0.134872 -0.0934,-0.02578 -0.18769,-0.03578 -0.20962,-0.02223 -0.0219,0.01357 -0.0642,0.0053 -0.094,-0.01847 -0.0299,-0.0237 -0.15514,-0.05882 -0.27867,-0.07803 -0.12353,-0.01922 -0.2548,-0.04048 -0.29184,-0.04728 -0.74461,-0.136468 -0.90005,-0.136276 -1.04859,0.0014 -0.0931,0.08624 -0.11875,0.151949 -0.11859,0.303072 5.1e-4,0.287078 0.11875,0.446268 0.40779,0.547591 0.13376,0.04688 0.2633,0.1 0.28799,0.118048 0.0927,0.06776 0.55596,0.173782 1.05514,0.241471 0.48827,0.06621 0.5874,0.07762 0.92603,0.106556 0.0773,0.0065 0.1984,-0.0099 0.26941,-0.03679 z m -3.53021,-2.394802 c 0,-0.07133 -0.10854,-0.173875 -0.14525,-0.137201 -0.0144,0.01357 -0.0144,0.06391 -0.002,0.111855 0.0258,0.09896 0.147,0.119836 0.147,0.02535 z"
       style="fill:#000000;stroke-width:0.0448996" />
    <path
       sodipodi:nodetypes="sssssssssssssssssscsssssssssscssssssssssscsssssssssssssssssssssssssssssssssssscssssssssssssssssssssscsssssssssssssssssssssssssscssssssssssssssssssssscsssssssssssscssssssssssssssscssssssscsssssssssssssssssssssssssssssssssssscssssssssssssssssssssssssssssssssssssssssssssssssssssssssssssssssssscsssssssssssssssssssssssssssssssssssssscsssssssscsssssssssssssssssscssssssssssssscsscssssssssssssssssscsssssssssssssssssssssssssssssssssssssssssssssssssssssssssssssssssssssscssss"
       id="path870"
       d="m 181.07617,84.985252 c -0.15085,-0.0072 -0.64452,-0.04079 -1.09706,-0.07462 -0.45254,-0.03383 -0.9709,-0.06997 -1.15191,-0.08031 -0.18102,-0.01034 -0.51213,-0.03479 -0.7358,-0.05433 -0.60426,-0.05277 -3.36298,-0.03731 -5.29803,0.0297 -0.93524,0.03239 -1.89094,0.04267 -2.12377,0.02286 -0.42066,-0.0358 -0.42487,-0.03772 -0.67194,-0.305938 -0.13675,-0.14845 -0.24863,-0.290414 -0.24863,-0.315474 0,-0.02506 -0.037,-0.0763 -0.0823,-0.113853 -0.0453,-0.03756 -0.0823,-0.103645 -0.0823,-0.146858 0,-0.04322 -0.047,-0.182126 -0.10454,-0.308689 -0.099,-0.217871 -0.15514,-0.481671 -0.19497,-0.915777 -0.0301,-0.327397 -0.14038,-1.657483 -0.1633,-1.968662 -0.0122,-0.165456 -0.054,-0.315775 -0.0949,-0.341358 -0.0402,-0.02514 -0.27058,-0.04567 -0.51194,-0.04562 -0.72474,1.63e-4 -3.36188,-0.108919 -3.94418,-0.163123 -0.6128,-0.05704 -0.76594,-0.133438 -0.9302,-0.464051 -0.1346,-0.27088 -0.19095,-1.211106 -0.16971,-2.831602 0.034,-2.592461 0.0341,-3.101816 6.2e-4,-3.185422 -0.019,-0.04743 -0.3056,-0.214692 -0.63685,-0.371704 -0.51488,-0.244053 -0.66175,-0.28929 -1.01222,-0.311766 -0.6676,-0.04281 -1.54999,0.256775 -2.9715,1.008879 -0.0548,0.02901 -0.23546,0.114199 -0.40139,0.189307 -1.74181,0.788426 -2.69504,1.029809 -4.16882,1.055654 -1.34217,0.02354 -2.6534,-0.250683 -3.81229,-0.797274 -0.18101,-0.08538 -0.48956,-0.230503 -0.68566,-0.322503 -0.1961,-0.092 -0.59104,-0.307844 -0.87765,-0.479651 -0.2866,-0.171808 -0.63842,-0.376598 -0.78181,-0.455089 -0.14339,-0.07849 -0.44948,-0.261845 -0.68021,-0.407451 l -0.4195,-0.26474 -0.18407,0.09913 c -0.10124,0.05452 -0.3135,0.228636 -0.4717,0.386925 -0.1582,0.15829 -0.30491,0.288355 -0.32603,0.289033 -0.0866,0.0028 -0.52725,0.339852 -0.77352,0.591657 -0.2497,0.255326 -0.58351,0.822306 -0.58893,1.000314 -0.006,0.207132 -0.22343,0.455713 -0.68357,0.782601 -0.56951,0.404592 -0.69924,0.475014 -1.67301,0.908162 -0.48185,0.21433 -0.67718,0.249796 -1.3439,0.244011 -0.77404,-0.0067 -1.03074,-0.0269 -1.07344,-0.08441 -0.0172,-0.02314 -0.33807,-0.128594 -0.71309,-0.234349 -0.37502,-0.105757 -0.79293,-0.226477 -0.9287,-0.268265 -0.50036,-0.154022 -1.47435,-0.420685 -2.2155,-0.606574 -0.41912,-0.105102 -0.83875,-0.21517 -0.93257,-0.244597 -0.0938,-0.02943 -0.40512,-0.126847 -0.69173,-0.216489 -1.0213,-0.319433 -1.55591,-0.623548 -2.13926,-1.216922 -0.62451,-0.635234 -0.92516,-1.30268 -1.0358,-2.299493 -0.10331,-0.930746 -0.11369,-1.173609 -0.0657,-1.535884 0.0555,-0.418863 0.026,-0.460768 -0.36256,-0.514024 -0.39788,-0.05453 -1.41966,-0.523172 -2.00629,-0.920178 -0.99976,-0.67659 -1.87915,-1.763226 -2.30944,-2.853686 -0.17366,-0.440095 -0.19617,-1.093583 -0.0555,-1.610996 0.16057,-0.59059 0.17127,-0.54291 -0.15274,-0.680428 -0.32551,-0.138156 -1.18738,-0.659945 -1.44919,-0.877361 -0.57254,-0.475461 -0.72457,-0.625841 -1.05933,-1.047839 -0.49043,-0.61824 -0.63401,-0.880072 -0.7357,-1.341598 -0.18855,-0.855757 -0.0383,-1.273984 1.00425,-2.79528 0.18355,-0.267837 0.8564,-1.161423 0.95165,-1.263839 0.13979,-0.15031 0.27448,-0.355788 0.24883,-0.379599 -0.0116,-0.01079 -0.41608,-0.09686 -0.89879,-0.191262 -1.07605,-0.210432 -1.01418,-0.19748 -1.48103,-0.310006 -1.46545,-0.353208 -2.37056,-0.588499 -2.79384,-0.726274 -0.3636,-0.11835 -0.53341,-0.148399 -0.65823,-0.116479 -0.0925,0.02365 -0.41506,0.106761 -0.71676,0.184666 -1.46127,0.377343 -2.96997,0.536912 -4.96419,0.525039 -0.63048,-0.0038 -1.14981,-0.0347 -1.37133,-0.08171 -0.58222,-0.123552 -0.78186,-0.138699 -1.09833,-0.08335 -0.16523,0.02889 -0.51023,0.07789 -0.76667,0.108882 -0.25643,0.03099 -0.5403,0.06813 -0.63081,0.08255 -0.76514,0.121868 -2.99525,0.142972 -3.81228,0.03608 -1.52534,-0.199567 -3.16511,-0.929933 -4.14461,-1.84604 -0.36184,-0.338412 -0.72087,-0.834491 -0.86389,-1.19363 -0.24525,-0.615854 -0.18977,-1.516136 0.12027,-1.951547 0.13661,-0.191853 0.73108,-0.533791 0.9991,-0.574677 0.1026,-0.01566 0.32232,-0.05679 0.48825,-0.0914 0.16593,-0.03462 0.38808,-0.07391 0.49367,-0.0873 0.1056,-0.01338 0.2537,-0.03567 0.32912,-0.0495 0.0754,-0.01381 0.32226,-0.04043 0.54853,-0.05912 0.22627,-0.01868 0.52987,-0.05612 0.67467,-0.08319 0.14479,-0.02707 0.28055,-0.04504 0.30169,-0.03993 0.17658,0.04267 1.24333,-0.172062 1.43717,-0.2893 0.42042,-0.254278 0.60598,-0.310857 1.67302,-0.51011 0.43361,-0.08097 0.70057,-0.116537 1.28904,-0.171754 0.16593,-0.01557 0.41277,-0.05138 0.54853,-0.07959 0.13576,-0.02821 0.6171,-0.08012 1.06964,-0.115347 0.45253,-0.03523 0.88181,-0.07475 0.95394,-0.08781 0.0721,-0.01307 0.29429,-0.04598 0.49368,-0.07314 0.55735,-0.07593 2.18814,-0.374355 2.55664,-0.467852 0.18102,-0.04593 0.45168,-0.108034 0.60147,-0.138018 0.14979,-0.03 0.37195,-0.100243 0.49367,-0.156132 0.38827,-0.178259 0.60163,-0.2674 0.74244,-0.310182 0.19596,-0.05953 0.60753,-0.03608 1.00294,0.05715 0.61945,0.146059 1.12316,0.07903 1.65541,-0.220292 0.35592,-0.200153 0.85934,-0.257087 1.34592,-0.152216 0.36133,0.07788 2.26034,0.199847 2.41283,0.154969 0.0456,-0.01344 0.24342,-0.03815 0.43952,-0.05492 0.96715,-0.08272 1.76699,-0.205872 3.04434,-0.468721 0.42237,-0.08691 1.00244,-0.197015 1.28905,-0.244671 0.2866,-0.04765 0.71857,-0.123543 0.95992,-0.168643 0.24136,-0.0451 0.52522,-0.09578 0.63081,-0.11261 0.1056,-0.01683 0.29072,-0.0528 0.4114,-0.07991 0.12067,-0.02713 0.29997,-0.04992 0.39843,-0.05065 0.0985,-9.25e-4 0.22188,-0.02476 0.27426,-0.0534 0.0856,-0.04679 0.81542,-0.201627 1.16488,-0.247144 0.0754,-0.0098 0.44568,-0.0813 0.8228,-0.158842 0.68714,-0.141283 2.70101,-0.529358 3.3186,-0.639498 0.18102,-0.03228 0.51425,-0.07989 0.74052,-0.105805 0.22627,-0.0259 0.62359,-0.0787 0.88293,-0.117314 0.35714,-0.05317 0.58338,-0.05601 0.9325,-0.01169 0.42894,0.05444 1.24886,0.270098 1.31119,0.344871 0.0151,0.0181 0.13851,0.06369 0.27426,0.101328 0.13577,0.03763 0.29621,0.09234 0.35655,0.121567 0.0603,0.02923 0.45528,0.173243 0.87765,0.320039 0.42236,0.146789 0.97775,0.346637 1.23419,0.444102 0.25644,0.09746 0.63904,0.235005 0.85022,0.305653 0.21119,0.07065 0.55676,0.19358 0.76794,0.273181 0.21119,0.0796 0.55676,0.204118 0.76794,0.276705 0.21119,0.07258 0.43334,0.15582 0.49368,0.184975 0.0603,0.02917 0.41826,0.166494 0.79537,0.305202 0.37711,0.138709 0.72852,0.275367 0.78091,0.303686 0.0524,0.02833 0.14002,0.05149 0.19473,0.05149 0.0547,0 0.12293,0.02217 0.15159,0.04926 0.0287,0.0271 0.28582,0.12879 0.57146,0.225993 0.28565,0.0972 0.92743,0.336839 1.42618,0.532525 0.49876,0.195685 1.166,0.44236 1.48278,0.548162 0.31678,0.105802 0.5994,0.214256 0.62807,0.241005 0.0287,0.02676 0.10416,0.04864 0.16779,0.04864 0.0636,0 0.16358,0.03624 0.22215,0.08054 0.0586,0.04429 0.15021,0.08132 0.20368,0.08228 0.0534,9.25e-4 0.26051,0.0758 0.46012,0.166303 0.19961,0.09051 0.40742,0.164558 0.46181,0.164558 0.0544,0 0.11413,0.0247 0.13278,0.05486 0.0187,0.03018 0.078,0.05485 0.13194,0.05485 0.0904,0 0.32841,0.09403 0.57081,0.225512 0.0546,0.02963 0.23978,0.100666 0.41139,0.157831 0.17162,0.05716 0.55887,0.194557 0.86057,0.305317 0.30169,0.110763 0.7177,0.259405 0.92447,0.330321 0.20676,0.07091 0.40423,0.151467 0.43882,0.179003 0.0346,0.02753 0.1863,0.08774 0.33715,0.133791 0.15084,0.04605 0.36066,0.114878 0.46625,0.152959 0.32883,0.118584 1.38047,0.493467 1.78272,0.635487 0.21118,0.07456 0.42683,0.158721 0.47922,0.187015 0.0524,0.0283 0.13359,0.05144 0.18046,0.05144 0.0469,0 0.17679,0.04628 0.28872,0.102836 0.11193,0.05656 0.38864,0.165973 0.61491,0.243139 0.97382,0.332115 1.20192,0.417396 1.43914,0.538071 0.0524,0.02664 0.14529,0.04845 0.20645,0.04845 0.0611,0 0.15406,0.0255 0.20644,0.05669 0.19135,0.11388 1.30532,0.466819 1.41813,0.449304 0.0956,-0.01486 0.12219,-0.06853 0.15037,-0.30315 0.0188,-0.156816 0.0345,-0.391442 0.0347,-0.521391 0,-0.129952 0.0291,-0.409704 0.0641,-0.621671 0.07,-0.423948 0.23564,-0.652661 0.57543,-0.794637 0.1761,-0.07358 1.48191,-0.119421 3.83134,-0.134504 0.54298,-0.0035 1.0287,-0.02852 1.07937,-0.05565 0.0629,-0.03365 0.10234,-0.149478 0.1243,-0.364905 0.0682,-0.669238 0.26584,-1.252367 0.55126,-1.62658 0.26577,-0.348441 0.14816,-0.34308 4.90981,-0.223807 1.09795,0.0275 4.1092,0.08447 5.88989,0.111428 1.18103,0.01788 1.90065,0.04998 1.9747,0.08808 0.19781,0.101763 0.36923,0.284432 0.45522,0.485059 0.11471,0.267678 0.13254,2.615094 0.136,17.909498 0.004,15.982003 -0.004,17.535218 -0.0833,17.640376 -0.0519,0.06852 -0.24968,0.0818 -1.18674,0.07968 -0.61846,-0.0014 -1.2479,-0.0084 -1.39875,-0.01565 z m -10.18645,-6.42818 c 0.0693,-0.0022 0.18323,-0.06126 0.2533,-0.131317 0.10792,-0.10792 0.13332,-0.206591 0.16625,-0.645737 0.0605,-0.806618 0.0417,-0.836949 -0.65517,-1.060506 -0.15084,-0.04839 -0.373,-0.148886 -0.49367,-0.223328 -0.12068,-0.07444 -0.32215,-0.185315 -0.4477,-0.246389 -0.44728,-0.217558 -1.32914,-1.293224 -1.68677,-2.057467 -0.63274,-1.352135 -0.46447,-2.944312 0.43665,-4.131735 0.22398,-0.295149 1.01315,-1.046187 1.20414,-1.145971 0.0905,-0.04728 0.22197,-0.130706 0.29215,-0.185382 0.0702,-0.05467 0.42808,-0.215744 0.79536,-0.35793 0.36728,-0.142187 0.67466,-0.263336 0.68306,-0.26922 0.10073,-0.07058 0.13584,-14.562822 0.0361,-14.891025 -0.0741,-0.243709 -0.42047,-0.436068 -0.78735,-0.437236 -0.13824,-3.08e-4 -0.64629,-0.0222 -1.129,-0.04832 -1.3212,-0.07154 -3.31184,-0.04642 -3.49529,0.0441 -0.2697,0.133076 -0.30359,0.379677 -0.34341,2.498442 -0.0159,0.844735 -0.0406,1.70867 -0.055,1.919855 -0.0304,0.448232 -0.0735,3.169181 -0.1103,6.966327 -0.0375,3.873219 -0.084,7.059268 -0.11076,7.597138 -0.0357,0.71617 -0.0998,3.791604 -0.10464,5.019049 -0.003,0.686543 0.0191,1.168899 0.0584,1.289043 0.10716,0.327995 0.29831,0.396951 1.16279,0.419476 1.90327,0.04959 3.00157,0.08276 3.03925,0.09179 0.0346,0.0083 0.87194,-6.16e-4 1.29159,-0.01364 z m 0.42097,-3.089412 c 0.0232,-0.07126 0.0643,-1.615986 0.11574,-4.351207 0.024,-1.278546 0.0157,-1.606686 -0.042,-1.654558 -0.0532,-0.0441 -0.14521,-0.02869 -0.35188,0.05896 -0.15392,0.06527 -0.31436,0.145392 -0.35655,0.178047 -0.0422,0.03265 -0.15409,0.09001 -0.24866,0.127456 -0.16293,0.06451 -0.81093,0.651677 -1.0257,0.929393 -0.0859,0.111108 -0.28437,0.447425 -0.42565,0.721353 -0.17469,0.338695 -0.21597,1.419752 -0.0706,1.849371 0.11933,0.352727 0.35584,0.841969 0.47187,0.976114 0.42462,0.490934 0.6763,0.742151 0.77484,0.773424 0.0638,0.02025 0.17975,0.08396 0.2577,0.14159 0.11948,0.08833 0.69588,0.306045 0.83576,0.315672 0.0236,0.0016 0.0529,-0.02791 0.0652,-0.06562 z m -29.8844,-3.06908 c 0.17616,-0.0664 0.33263,-0.137128 0.34772,-0.157166 0.0151,-0.02004 0.0801,-0.05286 0.14447,-0.07293 0.18812,-0.05865 0.66261,-0.598304 0.72512,-0.824695 0.095,-0.344091 -0.10599,-0.634628 -0.43906,-0.634628 -0.13987,0 -0.32083,0.121218 -0.32083,0.214915 0,0.093 -0.38595,0.432171 -0.61349,0.539128 -0.33394,0.15697 -0.67929,0.198499 -1.06294,0.127819 -0.55302,-0.101886 -0.76729,-0.217916 -0.91769,-0.496941 -0.14439,-0.267866 -0.32065,-0.367598 -0.54858,-0.310391 -0.20057,0.05034 -0.39282,0.343699 -0.39282,0.599414 0,0.180567 0.035,0.241527 0.24559,0.427524 0.29407,0.259749 0.82604,0.534293 1.22045,0.629864 0.48577,0.117707 1.24068,0.09808 1.61206,-0.04192 z m 3.88573,-1.690628 c 0.0905,-0.02741 0.23694,-0.06463 0.32539,-0.08272 0.18489,-0.0378 0.572,-0.419429 0.76732,-0.756453 0.51713,-0.892327 0.27689,-1.933272 -0.38259,-1.657723 -0.22412,0.09364 -0.29851,0.255354 -0.29923,0.650386 -6.2e-4,0.214849 -0.0406,0.354369 -0.16457,0.570461 -0.0902,0.15733 -0.21083,0.311083 -0.26798,0.341674 -0.3466,0.185494 -1.36487,0.07599 -1.65135,-0.177589 -0.19322,-0.17103 -0.54853,-0.614543 -0.54853,-0.684705 0,-0.03229 -0.0639,-0.134653 -0.14201,-0.227475 -0.11417,-0.13568 -0.18423,-0.168768 -0.35735,-0.168768 -0.18379,0 -0.23148,0.02612 -0.32546,0.178272 -0.0837,0.135431 -0.10197,0.231001 -0.0762,0.397684 0.0463,0.299369 0.13084,0.419727 0.6765,0.962834 0.36422,0.362516 0.52747,0.485405 0.7182,0.540642 0.13576,0.03932 0.29165,0.08784 0.34642,0.107832 0.15576,0.05685 1.1983,0.06111 1.38144,0.0056 z m -11.98567,-0.409998 c 0.11931,-0.07532 0.26057,-0.20491 0.3139,-0.287978 0.0533,-0.08307 0.4674,-0.591488 0.92017,-1.129822 0.45277,-0.538334 0.8711,-1.044352 0.92962,-1.124486 0.12685,-0.173699 0.43041,-0.518142 1.04912,-1.190417 0.25116,-0.272904 0.51309,-0.56911 0.58206,-0.658236 0.069,-0.08912 0.14419,-0.170212 0.16714,-0.180191 0.12201,-0.05306 1.08031,-1.294394 1.47253,-1.907436 0.9581,-1.497516 1.67165,-2.326378 2.07821,-2.414055 0.0767,-0.01655 0.20596,-0.05516 0.28714,-0.0858 0.0812,-0.03064 0.45144,-0.05025 0.82279,-0.04359 1.65575,0.02972 1.56704,0.03704 1.74845,-0.144361 0.12207,-0.122068 0.17135,-0.232203 0.19482,-0.435381 0.0289,-0.250093 0.0182,-0.284501 -0.13262,-0.42759 -0.1729,-0.16401 -0.43945,-0.249194 -1.59698,-0.510374 -0.99481,-0.224462 -1.26844,-0.165267 -2.30384,0.498408 -0.40762,0.261277 -0.9994,0.788055 -1.17744,1.048105 -0.064,0.09344 -0.25734,0.38026 -0.42971,0.637369 -0.17237,0.257108 -0.35132,0.498949 -0.39768,0.537423 -0.0464,0.03847 -0.0843,0.09187 -0.0843,0.118651 0,0.02678 -0.0844,0.168838 -0.18765,0.315675 -0.10321,0.146836 -0.25451,0.399592 -0.33621,0.56168 -0.0817,0.162088 -0.32433,0.516346 -0.53915,0.787241 -0.4257,0.536801 -0.42373,0.53445 -0.78159,0.933642 -0.13522,0.150846 -0.34941,0.410026 -0.47596,0.575956 -0.12656,0.16593 -0.32884,0.40298 -0.44952,0.526778 -0.6392,0.655731 -1.31376,1.420645 -1.809,2.051312 -0.17768,0.226269 -0.38081,0.470901 -0.45141,0.543627 -0.17065,0.175806 -0.3451,0.579608 -0.3451,0.798817 0,0.323977 0.18845,0.605033 0.46625,0.695362 0.18815,0.06118 0.24268,0.0506 0.46595,-0.09034 z m -4.5469,-5.155194 c 0.10251,-0.07478 0.23576,-0.162654 0.29609,-0.195283 0.10008,-0.05412 0.67895,-0.72253 1.57494,-1.818556 0.1897,-0.232059 0.59176,-0.715364 0.89345,-1.074011 0.30169,-0.358646 0.80771,-0.970465 1.12448,-1.359599 0.31678,-0.389134 0.73334,-0.880841 0.9257,-1.092682 0.19236,-0.21184 0.4392,-0.4839 0.54853,-0.604576 0.46497,-0.513212 1.00049,-1.182316 1.59754,-1.996049 1.23458,-1.682635 2.19055,-2.718447 2.98,-3.228905 0.36248,-0.23438 0.49722,-0.253091 1.05905,-0.14707 0.94769,0.178836 1.2261,0.125389 1.37801,-0.264527 0.17359,-0.445573 -0.0694,-0.797625 -0.66159,-0.958643 -1.53132,-0.416351 -2.06626,-0.371922 -2.86786,0.238172 -0.50012,0.380644 -0.89458,0.753436 -1.44164,1.362461 -0.29955,0.333478 -0.60721,0.67373 -0.6837,0.756116 -0.0765,0.08239 -0.20855,0.242833 -0.29349,0.356546 -0.0849,0.113711 -0.18492,0.238995 -0.22218,0.278404 -0.15773,0.166849 -0.56973,0.735699 -0.92145,1.272242 -0.57954,0.884065 -0.98649,1.39642 -1.65559,2.084414 -0.2494,0.256438 -0.49479,0.527961 -0.54533,0.603383 -0.0505,0.07542 -0.22993,0.285235 -0.39865,0.46625 -0.48747,0.522984 -1.11142,1.270238 -1.87786,2.248972 -0.30712,0.392199 -0.64987,0.811824 -0.76165,0.932501 -0.26711,0.288356 -0.75602,1.016119 -0.94949,1.413347 l -0.15405,0.316286 0.11743,0.242568 c 0.1214,0.250775 0.1809,0.282572 0.55534,0.296728 0.13241,0.005 0.25908,-0.03738 0.38397,-0.128489 z m 30.17364,-2.209007 c 0.12364,-0.132909 0.17411,-0.248671 0.24509,-0.562243 0.0671,-0.296335 -0.15329,-0.533858 -0.56385,-0.607705 -0.33399,-0.06008 -1.09504,-0.271274 -1.99517,-0.553679 -0.2866,-0.08992 -0.61983,-0.183317 -0.74051,-0.207551 -0.12068,-0.02423 -0.76246,-0.184383 -1.42618,-0.355889 -2.66516,-0.688674 -3.8153,-0.975307 -4.44309,-1.107283 -0.36203,-0.07611 -1.00381,-0.213418 -1.42618,-0.305133 -1.09682,-0.238174 -1.1191,-0.239596 -1.34389,-0.08574 -0.17484,0.119666 -0.19126,0.153596 -0.18382,0.37982 0.0102,0.310078 0.25081,0.831041 0.44771,0.969356 0.0811,0.05699 0.2339,0.131747 0.33949,0.166129 0.53469,0.174104 2.0421,0.56778 2.77008,0.723432 0.92865,0.198563 1.07167,0.23102 2.68779,0.609976 0.12067,0.0283 0.34283,0.07317 0.49368,0.09971 0.15084,0.02655 0.60749,0.126697 1.01478,0.222561 0.40728,0.09586 0.9133,0.206983 1.12448,0.24693 0.21119,0.03995 0.61847,0.124008 0.90508,0.1868 0.2866,0.06279 0.68154,0.138807 0.87765,0.16892 0.19609,0.03011 0.43059,0.07686 0.5211,0.103877 0.32769,0.09782 0.54582,0.06889 0.69576,-0.09229 z M 125.3063,60.074009 c 0.10341,-0.05534 1.27485,-1.489212 2.0688,-2.532251 0.12068,-0.158537 0.25644,-0.328705 0.30169,-0.378151 0.0453,-0.04944 0.18102,-0.212018 0.30169,-0.361269 0.12068,-0.149252 0.25644,-0.310061 0.3017,-0.35735 0.0452,-0.04729 0.17296,-0.195686 0.2838,-0.32977 0.51932,-0.628205 1.17851,-1.420844 1.38295,-1.6629 0.12412,-0.146963 0.24825,-0.307405 0.27584,-0.356544 0.0276,-0.04914 0.0648,-0.101686 0.0826,-0.116769 0.07,-0.05912 0.70951,-0.925015 0.77437,-1.048406 0.0378,-0.07201 0.15998,-0.242011 0.2714,-0.377772 0.11142,-0.135761 0.32379,-0.42901 0.47194,-0.651667 0.14815,-0.222657 0.32693,-0.49064 0.39728,-0.595514 0.0704,-0.104877 0.31103,-0.424922 0.53482,-0.71121 0.22379,-0.28629 0.40732,-0.536668 0.40784,-0.5564 0.002,-0.07687 1.409,-1.479042 1.59582,-1.59035 0.28777,-0.171465 0.6443,-0.290512 0.92648,-0.309362 0.25014,-0.01671 1.26795,0.085 1.91985,0.191859 0.44625,0.07315 0.64211,0.03879 0.87174,-0.152919 0.14548,-0.121452 0.18682,-0.202755 0.21067,-0.414304 0.0541,-0.479765 -0.20251,-0.708015 -0.863,-0.767708 -0.19609,-0.01773 -0.43059,-0.04485 -0.5211,-0.06028 -0.71,-0.121055 -1.15202,-0.201633 -1.48103,-0.269984 -0.55299,-0.114885 -1.0795,-0.116846 -1.30005,-0.0048 -0.82767,0.420313 -1.34648,0.958551 -2.32236,2.409317 -0.12184,0.18113 -0.44372,0.637873 -0.7153,1.014988 -0.27157,0.377111 -0.52981,0.738387 -0.57384,0.802829 -0.044,0.06445 -0.33925,0.453269 -0.65603,0.864051 -0.31678,0.410786 -0.66235,0.868788 -0.76794,1.017782 -0.10559,0.148994 -0.26055,0.352584 -0.34436,0.45242 -0.39074,0.465488 -0.94239,1.149214 -1.20863,1.497991 -0.1612,0.211188 -0.46397,0.595052 -0.67281,0.853036 -0.20884,0.257984 -0.54016,0.672065 -0.73626,0.920176 -0.38766,0.490488 -1.37443,1.684277 -1.5079,1.824263 -0.0456,0.04778 -0.0828,0.114029 -0.0828,0.147213 0,0.03318 -0.12421,0.2151 -0.27602,0.404266 -0.15182,0.189166 -0.28878,0.394728 -0.30436,0.456807 -0.0395,0.157502 0.10604,0.479038 0.30857,0.681569 0.13806,0.138053 0.20529,0.166231 0.35295,0.147917 0.10031,-0.01244 0.23127,-0.04878 0.29102,-0.08075 z m 35.25386,-0.193736 c 0.16837,-0.163509 0.19295,-0.221227 0.19278,-0.452538 -6.2e-4,-0.386852 -0.14121,-0.58702 -0.47357,-0.672733 -0.14671,-0.03784 -0.67403,-0.19958 -1.17182,-0.359428 -0.49779,-0.159849 -1.07786,-0.341586 -1.28905,-0.403859 -0.53966,-0.159135 -1.61493,-0.479836 -2.16669,-0.646223 -0.25644,-0.07733 -0.58967,-0.184988 -0.74051,-0.239244 -0.4556,-0.163858 -0.9701,-0.329203 -1.28905,-0.414259 -0.37931,-0.101151 -1.19855,-0.35466 -1.3439,-0.415858 -0.0603,-0.0254 -0.20844,-0.0689 -0.32912,-0.09666 -0.12067,-0.02775 -0.39219,-0.11223 -0.60338,-0.187728 -0.21118,-0.0755 -0.45802,-0.153677 -0.54853,-0.173733 -0.0905,-0.02004 -0.26329,-0.08241 -0.38397,-0.13857 -0.27623,-0.128544 -1.58236,-0.525076 -2.18465,-0.663251 -0.14564,-0.03341 -0.33077,-0.09517 -0.4114,-0.137232 -0.0806,-0.04207 -0.17823,-0.07663 -0.21689,-0.07682 -0.0387,-1.64e-4 -0.21923,-0.05051 -0.40125,-0.111827 -0.40604,-0.136784 -1.32405,-0.325348 -1.45903,-0.299693 -0.0544,0.01036 -0.13204,0.02072 -0.17244,0.023 -0.13164,0.0075 -0.55012,0.490371 -0.60912,0.702811 -0.0794,0.286047 -0.0771,0.298201 0.0944,0.485895 0.0992,0.108564 0.29533,0.216367 0.56224,0.308964 0.67263,0.233349 2.96871,0.942356 3.2623,1.007363 0.0905,0.02005 0.27563,0.08057 0.4114,0.134508 0.26114,0.103752 1.22052,0.372491 2.35867,0.660703 0.37712,0.0955 0.71035,0.192897 0.74052,0.216446 0.0302,0.02355 0.20295,0.07215 0.38397,0.108011 0.18102,0.03586 0.41551,0.08619 0.5211,0.111859 0.10559,0.02566 0.35244,0.08519 0.54853,0.132287 0.1961,0.04709 0.403,0.112363 0.45979,0.145039 0.13232,0.07615 0.51664,0.2152 0.68606,0.248219 0.0721,0.01406 0.21998,0.0627 0.32866,0.108103 0.17431,0.07284 0.45572,0.149333 0.80189,0.217995 0.0603,0.01196 0.24547,0.06055 0.4114,0.107965 0.16593,0.04741 0.36297,0.10118 0.43786,0.11948 0.0749,0.0183 0.16922,0.06633 0.20962,0.106725 0.0404,0.0404 0.12722,0.07373 0.19294,0.07409 0.0657,4.01e-4 0.4404,0.08735 0.83259,0.193339 2.02516,0.547265 2.07339,0.552929 2.35769,0.276844 z m -1.23234,-3.754727 c 0.25652,-0.137475 0.35931,-0.401339 0.27636,-0.709406 -0.0786,-0.291862 -0.21002,-0.379723 -1.02532,-0.685456 -0.3662,-0.137321 -0.78364,-0.303349 -0.92765,-0.36895 -0.144,-0.0656 -0.44913,-0.188021 -0.67807,-0.27204 -0.22894,-0.08402 -0.61372,-0.232792 -0.85508,-0.330602 -0.44723,-0.181247 -0.73931,-0.296995 -1.17934,-0.467359 -0.13576,-0.05257 -0.32089,-0.126314 -0.4114,-0.163892 -0.0905,-0.03758 -0.34968,-0.123848 -0.57595,-0.191714 -0.22627,-0.06787 -0.43608,-0.140096 -0.46625,-0.16051 -0.0302,-0.02041 -0.31404,-0.119642 -0.63081,-0.220508 -0.31678,-0.100866 -0.7663,-0.266059 -0.99894,-0.3671 -0.23264,-0.101042 -0.44836,-0.183711 -0.47939,-0.183711 -0.031,0 -0.21093,-0.05938 -0.39981,-0.131963 -0.18887,-0.07258 -0.66429,-0.247433 -1.0565,-0.388565 -0.3922,-0.141129 -0.78714,-0.288544 -0.87764,-0.327587 -0.0905,-0.03904 -0.42374,-0.158274 -0.74052,-0.264958 -0.31677,-0.106684 -0.87216,-0.302943 -1.23419,-0.436132 -1.09024,-0.40109 -1.36007,-0.443992 -1.65632,-0.263358 -0.25472,0.155314 -0.35316,0.338485 -0.36061,0.671048 -0.007,0.297748 0.12127,0.592986 0.25697,0.592986 0.0358,0 0.0956,0.03058 0.133,0.068 0.0374,0.0374 0.18427,0.09594 0.32637,0.130103 0.14211,0.03416 0.50522,0.152281 0.80691,0.262495 0.30169,0.110211 0.77069,0.27393 1.04221,0.363817 0.27152,0.08989 0.54304,0.185674 0.60338,0.212856 0.0603,0.02719 0.29484,0.105022 0.52111,0.172978 0.22627,0.06796 0.43608,0.141828 0.46625,0.164151 0.0302,0.02232 0.17827,0.07979 0.32911,0.127701 0.22384,0.0711 0.80851,0.276076 1.2342,0.432689 0.0453,0.01665 0.46488,0.158462 0.9325,0.31514 0.46762,0.156677 0.8749,0.303843 0.90507,0.327034 0.0659,0.05068 0.74969,0.285132 1.20677,0.413783 0.18101,0.05095 0.40898,0.127717 0.50659,0.170592 0.68721,0.301876 1.56069,0.622494 2.40061,0.881169 0.15085,0.04645 0.33598,0.113997 0.4114,0.150092 0.0754,0.03609 0.35929,0.135363 0.63081,0.220591 0.52183,0.163802 0.62997,0.20118 0.85022,0.293878 0.21391,0.09003 0.50472,0.07484 0.71395,-0.03729 z m 19.8256,-2.20608 c -0.0177,-0.02858 -0.0555,-0.03751 -0.0841,-0.01986 -0.0286,0.01767 -0.0375,0.05549 -0.0199,0.08407 0.0177,0.02858 0.0555,0.0375 0.0841,0.01982 0.0286,-0.01767 0.0375,-0.05549 0.0199,-0.08407 z m -75.09084,-1.646408 c 0.15085,-0.0296 0.39769,-0.07564 0.54853,-0.102306 0.15085,-0.02667 0.52111,-0.14637 0.8228,-0.266 0.5228,-0.207309 0.55554,-0.230011 0.69809,-0.484095 0.21698,-0.386746 0.19004,-0.647918 -0.0822,-0.797362 -0.17534,-0.09624 -0.73366,-0.05726 -0.97999,0.06841 -0.11409,0.0582 -0.26519,0.105824 -0.33578,0.105824 -0.0706,0 -0.1518,0.02106 -0.18046,0.04677 -0.0716,0.06424 -0.489,0.164503 -0.82005,0.19699 -0.31784,0.03119 -1.15022,0.135293 -1.32889,0.166204 -0.20597,0.03564 -0.42819,0.195979 -0.50167,0.361986 -0.087,0.19657 0.007,0.505479 0.18076,0.594493 0.27837,0.142532 1.47289,0.208382 1.97891,0.109089 z m 13.63248,-2.666061 c 0.20398,-0.140587 0.26398,-0.23943 0.30472,-0.50194 0.043,-0.277229 -0.0534,-0.936087 -0.16992,-1.161472 -0.0837,-0.161931 -0.18056,-0.21117 -0.49092,-0.249663 -0.13996,-0.01736 -0.22566,0.01079 -0.34908,0.114632 -0.21943,0.184636 -0.27296,0.364794 -0.26183,0.881163 0.01,0.463336 0.10788,0.736865 0.32692,0.913543 0.15087,0.121692 0.46629,0.123533 0.64011,0.0037 z m 2.09775,-0.01942 c 0.28886,-0.08021 0.46023,-0.356538 0.53112,-0.856372 0.1076,-0.75869 -0.0897,-1.1691 -0.5624,-1.16972 -0.51129,-6.16e-4 -0.66923,0.25171 -0.66923,1.069363 0,0.627597 0.0756,0.873014 0.2935,0.952865 0.19073,0.06989 0.16996,0.06969 0.40701,0.0039 z"
       style="fill:#000000;stroke-width:0.0548529" />
  </g>
</svg>
