<?xml version="1.0" encoding="UTF-8" standalone="no"?>
<svg
   xmlns:dc="http://purl.org/dc/elements/1.1/"
   xmlns:cc="http://creativecommons.org/ns#"
   xmlns:rdf="http://www.w3.org/1999/02/22-rdf-syntax-ns#"
   xmlns:svg="http://www.w3.org/2000/svg"
   xmlns="http://www.w3.org/2000/svg"
   xmlns:sodipodi="http://sodipodi.sourceforge.net/DTD/sodipodi-0.dtd"
   xmlns:inkscape="http://www.inkscape.org/namespaces/inkscape"
   sodipodi:docname="whenwhere.svg"
   inkscape:version="1.0 (4035a4fb49, 2020-05-01)"
   id="svg8"
   version="1.1"
   viewBox="0 0 210 297"
   height="297mm"
   width="210mm">
  <defs
     id="defs2" />
  <sodipodi:namedview
     inkscape:window-maximized="1"
     inkscape:window-y="-9"
     inkscape:window-x="-9"
     inkscape:window-height="1121"
     inkscape:window-width="1800"
     showgrid="false"
     inkscape:document-rotation="0"
     inkscape:current-layer="text855"
     inkscape:document-units="mm"
     inkscape:cy="597.21615"
     inkscape:cx="400"
     inkscape:zoom="1.2797977"
     inkscape:pageshadow="2"
     inkscape:pageopacity="0.0"
     borderopacity="1.0"
     bordercolor="#666666"
     pagecolor="#ffffff"
     id="base" />
  <metadata
     id="metadata5">
    <rdf:RDF>
      <cc:Work
         rdf:about="">
        <dc:format>image/svg+xml</dc:format>
        <dc:type
           rdf:resource="http://purl.org/dc/dcmitype/StillImage" />
        <dc:title></dc:title>
      </cc:Work>
    </rdf:RDF>
  </metadata>
  <g
     id="layer1"
     inkscape:groupmode="layer"
     inkscape:label="Layer 1">
    <text
       id="text835"
       y="79.664619"
       x="13.634233"
       style="font-style:normal;font-variant:normal;font-weight:normal;font-stretch:normal;font-size:11.0296px;line-height:1.25;font-family:'Nickelodeon NF';-inkscape-font-specification:'Nickelodeon NF';stroke-width:0.275739"
       xml:space="preserve"><tspan
         style="font-style:normal;font-variant:normal;font-weight:normal;font-stretch:normal;font-family:'Nickelodeon NF';-inkscape-font-specification:'Nickelodeon NF';stroke-width:0.275739"
         y="79.664619"
         x="13.634233"
         id="tspan833"
         sodipodi:role="line">When: <tspan
   id="tspan843"
   style="font-size:12.7px">Thursday, September 2nd, 2021</tspan></tspan><tspan
         id="tspan837"
         style="font-style:normal;font-variant:normal;font-weight:normal;font-stretch:normal;font-family:'Nickelodeon NF';-inkscape-font-specification:'Nickelodeon NF';stroke-width:0.275739"
         y="95.539619"
         x="13.634233"
         sodipodi:role="line">Where: <tspan
   id="tspan841"
   style="font-size:12.7px">Grant-Humphreys Mansion</tspan></tspan><tspan
         id="tspan839"
         style="font-style:normal;font-variant:normal;font-weight:normal;font-stretch:normal;font-family:'Nickelodeon NF';-inkscape-font-specification:'Nickelodeon NF';stroke-width:0.275739"
         y="110.02986"
         x="13.634233"
         sodipodi:role="line">770 Pennsylvania Street Denver, CO 80203</tspan></text>
    <g
       style="font-style:normal;font-variant:normal;font-weight:normal;font-stretch:normal;font-size:11.0296px;line-height:1.25;font-family:'Nickelodeon NF';-inkscape-font-specification:'Nickelodeon NF';stroke-width:0.275739"
       id="text855"
       aria-label="When: Thursday, September 2nd, 2021
Where: Grant-Humphreys Mansion
770 Pennsylvania Street Denver, CO 80203">
      <g
         inkscape:export-ydpi="115.23696"
         inkscape:export-xdpi="115.23696"
         transform="translate(-11.112501,5.8208336)"
         id="g1051">
        <path
           d="m 21.274618,152.94139 c 0.181759,-0.0461 0.245471,-0.19875 0.212958,-0.32706 -0.04064,-0.16037 -0.163961,-0.2429 -0.345716,-0.19684 l -0.7698,0.19507 c -0.181758,0.0461 -0.245471,0.19874 -0.212958,0.32705 0.04064,0.16037 0.163961,0.2429 0.345717,0.19685 l 0.181758,-0.0461 c 0.03236,0.0828 0.05133,0.15766 0.0703,0.2325 0.436198,1.72136 0.308157,3.50605 -0.358487,5.00623 -0.324477,-0.24774 -0.622299,-0.525 -0.893465,-0.83176 0.263505,-1.25011 0.232628,-2.5394 -0.0952,-3.83309 l -0.0596,-0.23522 0.04277,-0.0108 c 0.203142,-0.0515 0.256163,-0.20145 0.22365,-0.32976 -0.05133,-0.15766 -0.17465,-0.24019 -0.356409,-0.19414 l -0.759107,0.19236 c -0.181759,0.0461 -0.245471,0.19875 -0.212958,0.32706 0.04064,0.16037 0.163961,0.2429 0.345716,0.19685 l 0.181758,-0.0461 c 0.03236,0.0828 0.05133,0.15766 0.0703,0.2325 0.262803,1.03709 0.309063,2.11768 0.162581,3.15608 -0.636719,-0.85131 -1.081135,-1.79687 -1.349356,-2.85534 l -0.0596,-0.23522 0.138992,-0.0352 c 0.181758,-0.0461 0.24547,-0.19875 0.212957,-0.32705 -0.04064,-0.16037 -0.163961,-0.24291 -0.345716,-0.19685 l -0.759108,0.19236 c -0.181758,0.0461 -0.24547,0.19875 -0.212957,0.32705 0.04064,0.16037 0.163961,0.24291 0.345715,0.19685 l 0.09623,-0.0244 c 0.01097,0.0882 0.02995,0.16308 0.04891,0.23792 0.327827,1.29369 0.946745,2.43397 1.752406,3.41315 -0.09235,0.39888 -0.222194,0.78451 -0.389535,1.15688 -1.300622,-1.00167 -2.263131,-2.51001 -2.699329,-4.23136 l -0.0596,-0.23522 0.138991,-0.0352 c 0.181759,-0.0461 0.24547,-0.19875 0.212957,-0.32705 -0.04064,-0.16037 -0.163961,-0.24291 -0.345715,-0.19685 l -0.759109,0.19236 c -0.181758,0.0461 -0.24547,0.19875 -0.223649,0.32976 0.05133,0.15766 0.17465,0.2402 0.356408,0.19414 l 0.09623,-0.0244 c 0.01097,0.0882 0.02995,0.16308 0.04891,0.23792 0.484964,1.9138 1.683856,3.72635 3.179782,4.73542 0.08838,0.0344 0.160658,0.0503 0.214116,0.0367 0.310059,-0.0786 0.51329,-0.93792 0.659098,-1.35036 0.319352,0.31732 0.944652,0.94396 1.211943,0.87623 0.08554,-0.0217 0.152245,-0.0727 0.192168,-0.13969 0.847965,-1.68267 1.026028,-3.71898 0.530225,-5.67554 l -0.0596,-0.23522 z"
           style="font-style:normal;font-variant:normal;font-weight:normal;font-stretch:normal;font-family:'Nickelodeon NF';-inkscape-font-specification:'Nickelodeon NF';stroke-width:0.275739"
           id="path857" />
        <path
           d="m 27.903887,156.62064 c -0.03522,-0.139 -0.118484,-0.24305 -0.278857,-0.20241 -0.203142,0.0515 -0.13512,0.40971 -0.391719,0.47473 -0.1283,0.0325 -0.152527,-0.0182 -1.103829,-2.20073 -0.247951,-0.57435 -0.807786,-0.80796 -1.459977,-0.64269 -0.288676,0.0731 -0.526167,0.25849 -0.731433,0.48118 l -0.810084,-3.19681 c -0.04064,-0.16038 -0.196034,-0.23478 -0.335024,-0.19956 -0.05346,0.0135 -0.104215,0.0378 -0.12816,0.078 l -0.61595,0.6226 c -0.08269,0.0778 -0.101062,0.1849 -0.07939,0.27044 0.03522,0.13899 0.185341,0.23749 0.324333,0.20227 0.05346,-0.0136 0.104215,-0.0378 0.149543,-0.0834 l 0.269273,-0.28442 1.427807,5.63451 -0.267291,0.0677 c -0.203143,0.0515 -0.242764,0.20943 -0.207542,0.34843 0.03251,0.12829 0.17194,0.2295 0.343007,0.18615 l 1.037092,-0.2628 c 0.203141,-0.0515 0.24276,-0.20944 0.20754,-0.34842 -0.03251,-0.12831 -0.139868,-0.23764 -0.343006,-0.18616 l -0.235216,0.0596 -0.549991,-2.17041 c 0.215377,-0.4073 0.388571,-0.62186 0.677247,-0.69501 0.288675,-0.0731 0.644508,-0.0609 0.838406,0.34508 l 0.888976,1.93658 c 0.207455,0.45945 0.523656,0.62964 0.812332,0.55649 0.374208,-0.0948 0.635064,-0.50226 0.561913,-0.79094 z"
           style="font-style:normal;font-variant:normal;font-weight:normal;font-stretch:normal;font-family:'Nickelodeon NF';-inkscape-font-specification:'Nickelodeon NF';stroke-width:0.275739"
           id="path859" />
        <path
           d="m 32.173756,154.71941 c -0.0081,-0.0321 0.0026,-0.0348 -0.0083,-0.0776 -0.03251,-0.1283 -0.166671,-0.25359 -0.305659,-0.21837 -0.149684,0.0379 -0.229647,0.12648 -0.229217,0.26289 -0.02733,0.65548 -0.499014,1.21875 -1.140514,1.38131 -0.791184,0.20049 -1.622043,-0.29441 -1.822532,-1.08559 -0.03251,-0.12831 -0.05162,-0.24862 -0.04664,-0.36367 l 3.036433,-0.76944 c 0.160375,-0.0406 0.226799,-0.18263 0.202268,-0.32433 -0.0054,-0.0214 -0.02423,-0.0507 -0.04578,-0.0908 -0.494583,-0.73942 -1.351517,-1.02291 -2.196158,-0.80887 -1.069167,0.27093 -1.755648,1.42342 -1.484717,2.49258 0.27364,1.07986 1.420705,1.74496 2.489871,1.47402 0.8981,-0.22758 1.49223,-0.98118 1.550907,-1.87216 z m -3.428992,-0.6899 c 0.193848,-0.44736 0.556636,-0.76686 1.016378,-0.88336 0.459742,-0.1165 0.960268,-0.0272 1.325096,0.29002 z"
           style="font-style:normal;font-variant:normal;font-weight:normal;font-stretch:normal;font-family:'Nickelodeon NF';-inkscape-font-specification:'Nickelodeon NF';stroke-width:0.275739"
           id="path861" />
        <path
           d="m 37.310344,154.22563 c -0.03251,-0.12831 -0.113065,-0.22167 -0.273438,-0.18103 -0.149683,0.0379 -0.223361,0.4207 -0.383736,0.46133 -0.1283,0.0325 -0.214269,-0.0822 -0.300387,-0.24247 l -0.878284,-1.93929 c -0.269331,-0.56894 -0.807786,-0.80796 -1.459977,-0.6427 -0.277984,0.0705 -0.520883,0.23444 -0.742125,0.4839 -0.04064,-0.16039 -0.198742,-0.24548 -0.337734,-0.21026 -0.07484,0.019 -0.0774,0.0538 -0.128159,0.078 l -0.605258,0.61989 c -0.08269,0.0778 -0.114463,0.17692 -0.09008,0.27315 0.03251,0.12829 0.182631,0.2268 0.324332,0.20227 0.01069,-0.003 0.05076,-0.0242 0.101488,-0.0485 l 0.317313,-0.31935 0.620433,2.44839 -0.352825,0.0894 c -0.181758,0.0461 -0.256165,0.20145 -0.223652,0.32975 0.03522,0.13899 0.177359,0.25089 0.359117,0.20483 l 1.122625,-0.28447 c 0.203142,-0.0515 0.242762,-0.20944 0.207542,-0.34843 -0.03251,-0.1283 -0.139868,-0.23763 -0.343007,-0.18616 l -0.235217,0.0596 -0.558119,-2.20249 0.09579,-0.16081 c 0.135701,-0.22782 0.290222,-0.42626 0.600281,-0.50483 0.245907,-0.0623 0.63109,-0.0689 0.827714,0.34778 l 0.888977,1.93659 c 0.234403,0.52089 0.585096,0.60269 0.831004,0.54038 0.32075,-0.0813 0.696651,-0.48374 0.615371,-0.80449 z"
           style="font-style:normal;font-variant:normal;font-weight:normal;font-stretch:normal;font-family:'Nickelodeon NF';-inkscape-font-specification:'Nickelodeon NF';stroke-width:0.275739"
           id="path863" />
        <path
           d="m 38.752171,152.80208 c -0.07857,-0.31005 -0.38679,-0.49364 -0.696848,-0.41507 -0.299367,0.0759 -0.493653,0.38679 -0.415085,0.69684 0.07857,0.31006 0.397484,0.49094 0.696851,0.41508 0.310058,-0.0786 0.493653,-0.38679 0.415082,-0.69685 z m -0.433488,-1.71066 c -0.07857,-0.31006 -0.386793,-0.49365 -0.696851,-0.41508 -0.299367,0.0759 -0.493653,0.38679 -0.415083,0.69685 0.07857,0.31006 0.397485,0.49094 0.696852,0.41508 0.310058,-0.0786 0.493652,-0.38679 0.415082,-0.69685 z"
           style="font-style:normal;font-variant:normal;font-weight:normal;font-stretch:normal;font-family:'Nickelodeon NF';-inkscape-font-specification:'Nickelodeon NF';stroke-width:0.275739"
           id="path865" />
      </g>
      <g
         inkscape:export-ydpi="115.23696"
         inkscape:export-xdpi="115.23696"
         transform="translate(-13.34623,3.1750001)"
         id="g1150">
        <path
           d="m 46.700685,150.30402 c 0.0127,-0.0635 0.0254,-0.1143 0.0254,-0.127 0,-0.2032 -0.1524,-0.3175 -0.3175,-0.3302 h -0.0635 c -0.0889,0.0381 -0.1905,0.0889 -0.2413,0.2286 l -0.0635,0.1651 h -3.556 c 0.0127,-0.0254 0.0127,-0.0635 0.0127,-0.1016 0,-0.1651 -0.1651,-0.2921 -0.3302,-0.2921 -0.1397,0 -0.2286,0.0762 -0.2921,0.2286 l -0.381,1.016 c 0,0.0127 -0.0254,0.0762 -0.0254,0.1397 0,0.1651 0.1524,0.3048 0.3048,0.3048 0.1397,0 0.2413,-0.0762 0.3048,-0.2286 l 0.1651,-0.4318 h 1.524 v 5.9436 h -0.381 c -0.2159,0 -0.3429,0.1524 -0.3429,0.3048 0,0.1651 0.127,0.3302 0.3429,0.3302 h 1.397 c 0.2413,0 0.3302,-0.1651 0.3302,-0.3302 0,-0.1524 -0.0889,-0.3048 -0.3302,-0.3048 h -0.3937 v -5.9436 h 1.4224 c -0.1016,0.2667 -0.1143,0.3048 -0.1143,0.3429 0,0.1905 0.1524,0.3175 0.3175,0.3175 0.1397,0 0.2413,-0.0762 0.3048,-0.2286 z"
           style="font-size:12.7px"
           id="path867" />
        <path
           d="m 52.76811,156.81912 c 0,-0.1651 -0.0635,-0.3048 -0.254,-0.3048 -0.2413,0 -0.2667,0.4191 -0.5715,0.4191 -0.1524,0 -0.1651,-0.0635 -0.6096,-2.7686 -0.1143,-0.7112 -0.6731,-1.1303 -1.4478,-1.1303 -0.3429,0 -0.6604,0.1397 -0.9525,0.3302 v -3.7973 c 0,-0.1905 -0.1524,-0.3175 -0.3175,-0.3175 -0.0635,0 -0.127,0.0127 -0.1651,0.0508 l -0.8636,0.5207 c -0.1143,0.0635 -0.1651,0.1778 -0.1651,0.2794 0,0.1651 0.1397,0.3175 0.3048,0.3175 0.0635,0 0.127,-0.0127 0.1905,-0.0508 l 0.381,-0.2413 v 6.6929 h -0.3175 c -0.2413,0 -0.3302,0.1651 -0.3302,0.3302 0,0.1524 0.127,0.3048 0.3302,0.3048 h 1.2319 c 0.2413,0 0.3302,-0.1651 0.3302,-0.3302 0,-0.1524 -0.0889,-0.3048 -0.3302,-0.3048 h -0.2794 v -2.5781 c 0.3556,-0.3937 0.6096,-0.5842 0.9525,-0.5842 0.3429,0 0.7366,0.1143 0.8382,0.6223 l 0.4445,2.413 c 0.1016,0.5715 0.4064,0.8509 0.7493,0.8509 0.4445,0 0.8509,-0.381 0.8509,-0.7239 z"
           style="font-size:12.7px"
           id="path869" />
        <path
           d="m 58.033649,157.06042 c 0.1397,-0.0889 0.1778,-0.1778 0.1778,-0.2794 0,-0.1524 -0.1143,-0.3048 -0.3048,-0.3175 -0.0508,0 -0.0889,0.0127 -0.127,0.0254 l -0.4318,0.2667 v -3.4417 c 0,-0.1905 -0.1524,-0.3175 -0.3175,-0.3175 -0.0635,0 -0.1143,0.0127 -0.1524,0.0381 l -0.7112,0.3683 c -0.127,0.0635 -0.1905,0.1651 -0.1905,0.2794 0,0.1651 0.1397,0.3175 0.3048,0.3302 0.0635,0 0.1143,-0.0127 0.1778,-0.0508 l 0.254,-0.127 v 2.4638 c -0.2032,0.3937 -0.7366,0.5969 -0.9779,0.5969 -0.5207,0 -0.8382,-0.2794 -0.8382,-0.8255 v -2.7559 c 0,-0.1905 -0.1524,-0.3048 -0.3048,-0.3175 -0.0635,0 -0.0889,0.0254 -0.1397,0.0381 l -0.8128,0.3937 c -0.1143,0.0508 -0.1778,0.1397 -0.1905,0.2794 0,0.1905 0.1651,0.3175 0.3175,0.3175 0.0381,0 0.0889,-0.0127 0.1397,-0.0254 l 0.3683,-0.1905 v 2.2606 c 0,1.0922 0.7874,1.4351 1.4605,1.4351 0.2921,0 0.6858,-0.1016 0.9779,-0.3175 0,0.2921 0.1016,0.4318 0.3175,0.4318 0.0381,0 0.127,0 0.1651,-0.0381 z"
           style="font-size:12.7px"
           id="path871" />
        <path
           d="m 63.37638,153.89812 c 0,-0.8001 -0.5461,-1.2319 -1.1557,-1.2319 -0.3937,0 -0.8128,0.1651 -1.1176,0.5588 l -0.6858,0.8509 v -0.7239 c 0,-0.1905 -0.1524,-0.3175 -0.3048,-0.3175 -0.0635,0 -0.127,0.0127 -0.1651,0.0508 l -0.8636,0.5207 c -0.1143,0.0635 -0.1778,0.1651 -0.1778,0.2794 0,0.1524 0.1524,0.3048 0.3175,0.3175 0.0127,0 0.0635,-0.0127 0.127,-0.0254 l 0.4445,-0.2667 v 2.9083 h -0.4699 c -0.2413,0 -0.3302,0.1651 -0.3302,0.3302 0,0.1524 0.127,0.3048 0.3302,0.3048 h 2.3368 c 0.2413,0 0.3429,-0.1524 0.3429,-0.3048 0,-0.1651 -0.1016,-0.3302 -0.3429,-0.3302 h -1.2446 v -1.651 l 0.9144,-1.2446 c 0.2032,-0.2921 0.5334,-0.6223 0.889,-0.6223 0.3556,0 0.5207,0.254 0.5334,0.5461 0,0.2921 -0.1143,0.5842 -0.381,0.635 -0.3048,0.0508 -0.4191,0.1778 -0.4572,0.3429 0,0.2032 0.1651,0.2921 0.3175,0.2921 0.6477,0 1.1303,-0.4953 1.143,-1.2192 z"
           style="font-size:12.7px"
           id="path873" />
        <path
           d="m 68.339896,153.31392 c 0,-0.2159 -0.1016,-0.3175 -0.3175,-0.3175 -0.7112,0 -1.0922,0.254 -1.4351,0.8636 l -1.7018,3.0861 c -0.1905,0.3429 -0.4318,0.508 -0.7493,0.508 -0.4191,0 -0.8128,-0.2921 -0.8128,-0.7366 0,-0.3556 0.2032,-0.6985 0.5588,-0.6985 0.1143,0 0.2667,0.0508 0.2667,0.254 0,0.0889 -0.1778,0.1651 -0.1778,0.3556 0,0.1905 0.127,0.3048 0.3175,0.3048 0.3048,0 0.4826,-0.4318 0.4826,-0.7112 0,-0.4953 -0.4191,-0.8382 -0.8636,-0.8382 -0.7239,0 -1.2065,0.6096 -1.2065,1.3335 0,0.7493 0.6731,1.3589 1.397,1.3589 0.5969,0 1.0414,-0.3175 1.3335,-0.8382 l 1.7018,-3.0734 c 0.1397,-0.254 0.2794,-0.4445 0.5842,-0.508 v 0.4318 c 0,0.1651 0.1397,0.3175 0.3048,0.3175 0.1905,0 0.3175,-0.1524 0.3175,-0.3175 z"
           style="font-size:12.7px"
           id="path875" />
        <path
           d="m 73.928491,157.14932 c 0.1397,-0.0635 0.1778,-0.1651 0.1905,-0.2667 0,-0.1651 -0.1143,-0.3302 -0.3048,-0.3302 h -0.0889 l -0.444499,0.2159 v -7.239 c 0,-0.1905 -0.1524,-0.3175 -0.3048,-0.3175 -0.0635,0 -0.127,0.0127 -0.1651,0.0508 l -0.8636,0.5207 c -0.1143,0.0635 -0.1778,0.1651 -0.1778,0.2794 0,0.1524 0.1524,0.3048 0.3175,0.3175 0.0127,0 0.0635,-0.0127 0.127,-0.0254 l 0.4445,-0.2667 v 2.9083 h -1.4351 c -1.2573,0 -2.1971,1.0414 -2.1971,2.2606 0,1.3589 1.1684,2.1971 2.2479,2.1971 0.5207,0 0.9779,-0.1524 1.3843,-0.4445 v 0.2794 c 0,0.1651 0.1524,0.3048 0.3048,0.3048 0.0381,0 0.0889,-0.0127 0.1524,-0.0254 z m -1.269999,-0.9906 c -0.3429,0.3937 -0.8128,0.5842 -1.3081,0.5842 -0.7874,0 -1.6256,-0.5207 -1.6891,-1.4224 0,-0.9144 0.5715,-1.6129 1.4859,-1.6764 h 1.5113 z"
           style="font-size:12.7px"
           id="path877" />
        <path
           d="m 79.987383,157.14932 c 0,-0.1905 -0.1016,-0.3302 -0.2413,-0.3302 -0.1397,0 -0.1905,0.0635 -0.3048,0.0635 -0.0381,0 -0.0508,-0.0127 -0.0635,-0.0508 l -1.5875,-3.5433 c -0.1143,-0.2667 -0.3175,-0.4064 -0.6096,-0.4064 -0.1143,0 -0.2159,0.0254 -0.3048,0.0635 l -1.8542,0.8255 c -0.1397,0.0635 -0.2159,0.1778 -0.2159,0.3175 0,0.1397 0.0762,0.3048 0.2667,0.3048 0.0635,0 0.1524,-0.0254 0.2667,-0.0635 l 1.7907,-0.8001 c 0.0127,-0.0127 0.0254,-0.0127 0.0381,-0.0127 0.0127,0 0.0254,0.0127 0.0381,0.0381 l 0.1397,0.3048 -0.4191,0.1905 c -0.9652,0.3429 -1.8034,1.0541 -1.8034,2.0828 0,0.762 0.5207,1.3589 1.4351,1.3589 0.762,0 1.4986,-0.3429 2.0447,-0.8382 l 0.2032,0.4572 c 0.1397,0.2921 0.3429,0.381 0.5842,0.381 0.2921,0 0.5969,-0.0762 0.5969,-0.3429 z m -1.6637,-1.1049 c -0.4445,0.4445 -1.016,0.8255 -1.7907,0.8255 -0.3937,0 -0.7874,-0.1905 -0.7874,-0.8001 0,-0.8382 1.0287,-1.3208 1.8796,-1.6002 z"
           style="font-size:12.7px"
           id="path879" />
        <path
           d="m 85.878798,153.31392 c 0,-0.1905 -0.1397,-0.3175 -0.3048,-0.3175 h -0.7112 c -0.1397,0 -0.2286,0.0635 -0.2794,0.1778 l -1.3081,2.6543 -1.1684,-2.6416 c -0.0508,-0.1143 -0.1524,-0.1778 -0.3048,-0.1905 -0.0635,0 -0.1143,0.0254 -0.1778,0.0635 l -0.812799,0.6096 c -0.0889,0.0635 -0.1397,0.1524 -0.1397,0.2667 0,0.1905 0.1524,0.3175 0.3429,0.3175 0.0635,0 0.126999,-0.0254 0.177799,-0.0762 l 0.4953,-0.381 c 0.6477,1.524 0.9144,2.1844 1.2192,2.7686 l -1.3462,2.7178 c -0.1905,0.381 -0.4699,0.5715 -0.825499,0.5715 -0.4191,0 -0.8001,-0.2921 -0.8001,-0.6858 0,-0.1651 0.127,-0.635 0.5715,-0.635 0.1524,0 0.2921,0.0762 0.2921,0.2286 0,0.0889 -0.0508,0.1651 -0.0508,0.254 0,0.1905 0.1651,0.3048 0.330199,0.3048 0.254,0 0.3556,-0.3175 0.3556,-0.5588 0,-0.5207 -0.444499,-0.8509 -0.939799,-0.8509 -0.5588,0 -1.1938,0.5842 -1.1938,1.2573 0,0.7493 0.6477,1.3208 1.3843,1.3208 0.609599,0 1.155699,-0.3429 1.447799,-0.9144 l 2.921,-5.9563 h 0.5207 c 0.1651,0 0.3048,-0.1397 0.3048,-0.3048 z"
           style="font-size:12.7px"
           id="path881" />
        <path
           d="m 86.346119,156.89532 c 0,-0.3556 -0.2921,-0.6604 -0.6604,-0.6604 -0.3556,0 -0.6604,0.3048 -0.6604,0.6604 0,0.3175 0.2413,0.5842 0.5461,0.6477 0,0.0254 -0.2667,0.3302 -0.2667,0.4318 0,0.1397 0.0889,0.2413 0.2286,0.2413 0.0762,0 0.1397,-0.0254 0.2032,-0.0889 0.4064,-0.3429 0.6096,-0.7239 0.6096,-1.2319 z"
           style="font-size:12.7px"
           id="path883" />
        <path
           d="m 98.439095,157.22552 c 0,-1.397 -0.6096,-1.9939 -1.9431,-3.4544 -1.2954,-1.397 -1.5113,-1.8669 -1.5113,-2.1336 0,-0.7747 0.6858,-0.9906 1.0795,-0.9906 0.4064,0 0.6477,0.0635 0.9779,0.6604 0.0889,0.1651 0.1778,0.2413 0.2921,0.2286 0.1651,0 0.3048,-0.1651 0.3048,-0.3302 0,-0.0254 -0.0127,-0.0635 -0.0254,-0.1143 l -0.3683,-1.016 c -0.0508,-0.1397 -0.1524,-0.2159 -0.3048,-0.2159 -0.1524,0 -0.2921,0.0762 -0.3302,0.2159 -0.1397,-0.0381 -0.3175,-0.0508 -0.5461,-0.0508 -0.8001,0 -1.7018,0.5461 -1.7018,1.6129 0,0.3683 0.1905,0.8128 0.508,1.27 l 1.8161,2.0828 c 1.016,1.1811 1.1303,1.6891 1.1303,2.1463 0,1.4732 -1.143,2.2606 -2.1844,2.2606 -1.0795,0 -1.7399,-0.9398 -1.7399,-1.7526 0,-0.7747 0.6477,-1.2573 1.1684,-1.2573 0.3429,0 0.6858,0.2413 0.6858,0.6985 0,0.6985 -0.6731,0.5842 -0.6731,0.9906 0,0.2032 0.1778,0.2667 0.3302,0.2667 0.6731,-0.1397 1.0033,-0.6985 1.0033,-1.2446 0,-0.6604 -0.4826,-1.3589 -1.3462,-1.3589 -0.8509,0 -1.8161,0.6858 -1.8161,1.9304 0,1.1303 0.8509,2.3622 2.413,2.3622 1.3462,0 2.7813,-0.9906 2.7813,-2.8067 z"
           style="font-size:12.7px"
           id="path885" />
        <path
           d="m 103.73718,155.90472 c 0,-0.0381 0.0127,-0.0381 0.0127,-0.0889 0,-0.1524 -0.1143,-0.3302 -0.2794,-0.3302 -0.1778,0 -0.2921,0.0762 -0.3302,0.2286 -0.2159,0.7239 -0.9017,1.2192 -1.6637,1.2192 -0.9398,0 -1.727203,-0.7874 -1.727203,-1.7272 0,-0.1524 0.0127,-0.2921 0.0508,-0.4191 h 3.606803 c 0.1905,0 0.3048,-0.1397 0.3175,-0.3048 0,-0.0254 -0.0127,-0.0635 -0.0254,-0.1143 -0.3429,-0.9652 -1.2192,-1.524 -2.2225,-1.524 -1.27,0 -2.362203,1.0922 -2.362203,2.3622 0,1.2827 1.092203,2.3495 2.362203,2.3495 1.0668,0 1.9431,-0.6731 2.2606,-1.651 z m -3.6322,-1.7399 c 0.3429,-0.4445 0.8382,-0.6985 1.3843,-0.6985 0.5461,0 1.0795,0.2413 1.397,0.6985 z"
           style="font-size:12.7px"
           id="path887" />
        <path
           d="m 106.56828,152.97102 c -0.2032,0 -0.4191,0.0508 -0.6604,0.1905 -0.0127,-0.1524 -0.1524,-0.2667 -0.2667,-0.2794 -0.0889,0 -0.1524,0.0127 -0.1905,0.0381 l -0.8128,0.4191 c -0.127,0.0635 -0.1905,0.1651 -0.1905,0.2794 0,0.1651 0.1397,0.3175 0.3048,0.3302 0.0635,0 0.1143,-0.0127 0.1778,-0.0508 l 0.3556,-0.1778 v 5.2705 h -0.2921 c -0.2413,0 -0.3429,0.1651 -0.3429,0.3048 0,0.1651 0.127,0.3302 0.3429,0.3429 h 0.5969 c 0.1651,-0.0127 0.3175,-0.1651 0.3175,-0.3175 v -1.8669 h 1.1938 c 1.1176,0 1.7399,-0.5207 1.7399,-1.3843 0,-1.0795 -1.1049,-3.0988 -2.2733,-3.0988 z m 1.2573,3.7211 c -0.2159,0.1016 -0.508,0.127 -0.8001,0.127 h -1.1176 v -2.7559 c 0.1905,-0.2921 0.4191,-0.4445 0.6731,-0.4445 0.8255,0 1.6383,1.7272 1.6383,2.413 0,0.2921 -0.1016,0.5207 -0.3937,0.6604 z"
           style="font-size:12.7px"
           id="path889" />
        <path
           d="m 112.88515,157.18742 c 0.1016,-0.0635 0.1397,-0.1651 0.1397,-0.2286 0,-0.1905 -0.1524,-0.3302 -0.3429,-0.3302 -0.2159,0 -0.5715,0.3302 -0.9398,0.3302 -0.4699,-0.0127 -0.8255,-0.3048 -0.8255,-0.762 v -2.5654 h 1.27 c 0.2413,0 0.3429,-0.1524 0.3429,-0.3048 0,-0.1651 -0.1016,-0.3302 -0.3429,-0.3302 h -1.27 v -0.6985 c 0,-0.2159 -0.1524,-0.3302 -0.3048,-0.3302 -0.1651,0 -0.3302,0.1143 -0.3302,0.3302 v 0.6985 h -0.4191 c -0.2413,0 -0.3302,0.1651 -0.3302,0.3302 0,0.1524 0.127,0.3048 0.3302,0.3048 h 0.4191 v 2.5654 c 0,0.8255 0.6604,1.3843 1.4605,1.3843 0.4445,0 0.8255,-0.127 1.143,-0.3937 z"
           style="font-size:12.7px"
           id="path891" />
        <path
           d="m 118.32234,155.90472 c 0,-0.0381 0.0127,-0.0381 0.0127,-0.0889 0,-0.1524 -0.1143,-0.3302 -0.2794,-0.3302 -0.1778,0 -0.2921,0.0762 -0.3302,0.2286 -0.2159,0.7239 -0.9017,1.2192 -1.6637,1.2192 -0.9398,0 -1.7272,-0.7874 -1.7272,-1.7272 0,-0.1524 0.0127,-0.2921 0.0508,-0.4191 h 3.6068 c 0.1905,0 0.3048,-0.1397 0.3175,-0.3048 0,-0.0254 -0.0127,-0.0635 -0.0254,-0.1143 -0.3429,-0.9652 -1.2192,-1.524 -2.2225,-1.524 -1.27,0 -2.3622,1.0922 -2.3622,2.3622 0,1.2827 1.0922,2.3495 2.3622,2.3495 1.0668,0 1.9431,-0.6731 2.2606,-1.651 z m -3.6322,-1.7399 c 0.3429,-0.4445 0.8382,-0.6985 1.3843,-0.6985 0.5461,0 1.0795,0.2413 1.397,0.6985 z"
           style="font-size:12.7px"
           id="path893" />
        <path
           d="m 126.76684,156.79372 c 0,-0.1524 -0.0508,-0.2794 -0.2413,-0.2794 -0.2413,0 -0.2667,0.4191 -0.5715,0.4191 -0.1651,0 -0.1778,-0.1524 -0.2159,-0.3175 l -0.4318,-2.4511 c -0.1397,-0.7112 -0.6858,-1.1303 -1.4478,-1.1303 -0.4445,0 -0.8255,0.2032 -1.1684,0.4953 -0.2667,-0.3302 -0.6604,-0.4953 -1.1811,-0.4953 -0.3302,0 -0.6477,0.1143 -0.9652,0.3302 0,-0.1905 -0.1397,-0.3302 -0.3048,-0.3302 -0.0889,0 -0.1143,0.0127 -0.1778,0.0508 l -0.8509,0.5207 c -0.1143,0.0635 -0.1651,0.1778 -0.1778,0.2794 0,0.1651 0.1397,0.3175 0.3048,0.3175 0.0635,0 0.127,-0.0127 0.1905,-0.0508 l 0.381,-0.2413 v 2.9083 h -0.4826 c -0.2413,0 -0.3302,0.1651 -0.3302,0.3302 0,0.1524 0.127,0.3048 0.3302,0.3048 h 1.397 c 0.2413,0 0.3302,-0.1651 0.3302,-0.3302 0,-0.1524 -0.0889,-0.3048 -0.3302,-0.3048 h -0.2794 v -2.6162 c 0.2921,-0.2921 0.4953,-0.5461 0.9652,-0.5461 0.8128,0 0.8255,0.7239 0.8255,0.8255 v 2.667 c 0,0.1651 0.1524,0.3048 0.3175,0.3048 h 0.6604 c 0.1651,0 0.3048,-0.1397 0.3048,-0.3048 0,-0.1905 -0.1397,-0.3175 -0.3048,-0.3175 h -0.3429 v -2.3368 c 0,-0.1143 -0.0127,-0.2159 -0.0254,-0.3175 0.2413,-0.2921 0.5715,-0.5207 0.9144,-0.5207 0.3048,0 0.7239,0.1016 0.8255,0.6223 l 0.4318,2.413 c 0.1016,0.5715 0.4318,0.8255 0.7747,0.8255 0.4191,0 0.8763,-0.3302 0.8763,-0.7239 z"
           style="font-size:12.7px"
           id="path895" />
        <path
           d="m 130.50203,157.45412 c 1.4478,-0.1397 2.0701,-1.2065 2.0701,-2.2352 0,-1.0668 -0.7493,-2.1844 -2.2098,-2.1844 -0.6477,0.0381 -1.0668,0.1778 -1.4351,0.4699 v -3.937 c 0,-0.1905 -0.1524,-0.3175 -0.3175,-0.3175 -0.0127,0 -0.0635,0.0127 -0.0762,0.0127 l -0.9144,0.5588 c -0.1143,0.0635 -0.1778,0.1651 -0.1778,0.2794 0,0.1651 0.1397,0.3175 0.3048,0.3175 0.0381,0 0.0635,-0.0127 0.1016,-0.0127 l 0.4572,-0.2667 v 6.6802 h -0.4953 c -0.2159,0 -0.3302,0.1524 -0.3429,0.3048 0,0.1651 0.127,0.3302 0.3429,0.3302 z m -1.5748,-0.635 v -2.4003 c 0.4191,-0.5207 0.889,-0.7493 1.4351,-0.7493 1.0414,0 1.5875,0.7874 1.5875,1.5494 0,0.7874 -0.4953,1.5621 -1.5621,1.6002 z"
           style="font-size:12.7px"
           id="path897" />
        <path
           d="m 137.89323,155.90472 c 0,-0.0381 0.0127,-0.0381 0.0127,-0.0889 0,-0.1524 -0.1143,-0.3302 -0.2794,-0.3302 -0.1778,0 -0.2921,0.0762 -0.3302,0.2286 -0.2159,0.7239 -0.9017,1.2192 -1.6637,1.2192 -0.9398,0 -1.7272,-0.7874 -1.7272,-1.7272 0,-0.1524 0.0127,-0.2921 0.0508,-0.4191 h 3.6068 c 0.1905,0 0.3048,-0.1397 0.3175,-0.3048 0,-0.0254 -0.0127,-0.0635 -0.0254,-0.1143 -0.3429,-0.9652 -1.2192,-1.524 -2.2225,-1.524 -1.27,0 -2.3622,1.0922 -2.3622,2.3622 0,1.2827 1.0922,2.3495 2.3622,2.3495 1.0668,0 1.9431,-0.6731 2.2606,-1.651 z m -3.6322,-1.7399 c 0.3429,-0.4445 0.8382,-0.6985 1.3843,-0.6985 0.5461,0 1.0795,0.2413 1.397,0.6985 z"
           style="font-size:12.7px"
           id="path899" />
        <path
           d="m 143.07384,153.89812 c 0,-0.8001 -0.5461,-1.2319 -1.1557,-1.2319 -0.3937,0 -0.8128,0.1651 -1.1176,0.5588 l -0.6858,0.8509 v -0.7239 c 0,-0.1905 -0.1524,-0.3175 -0.3048,-0.3175 -0.0635,0 -0.127,0.0127 -0.1651,0.0508 l -0.8636,0.5207 c -0.1143,0.0635 -0.1778,0.1651 -0.1778,0.2794 0,0.1524 0.1524,0.3048 0.3175,0.3175 0.0127,0 0.0635,-0.0127 0.127,-0.0254 l 0.4445,-0.2667 v 2.9083 h -0.4699 c -0.2413,0 -0.3302,0.1651 -0.3302,0.3302 0,0.1524 0.127,0.3048 0.3302,0.3048 h 2.3368 c 0.2413,0 0.3429,-0.1524 0.3429,-0.3048 0,-0.1651 -0.1016,-0.3302 -0.3429,-0.3302 h -1.2446 v -1.651 l 0.9144,-1.2446 c 0.2032,-0.2921 0.5334,-0.6223 0.889,-0.6223 0.3556,0 0.5207,0.254 0.5334,0.5461 0,0.2921 -0.1143,0.5842 -0.381,0.635 -0.3048,0.0508 -0.4191,0.1778 -0.4572,0.3429 0,0.2032 0.1651,0.2921 0.3175,0.2921 0.6477,0 1.1303,-0.4953 1.143,-1.2192 z"
           style="font-size:12.7px"
           id="path901" />
        <path
           d="m 154.48102,152.71702 c 0,-1.4097 -0.9652,-2.4765 -2.3241,-2.4765 -0.8128,0 -1.5748,0.5207 -1.9812,1.3462 -0.0381,0.0381 -0.0381,0.1016 -0.0381,0.1397 0,0.1524 0.127,0.3175 0.3175,0.3175 0.1397,0 0.2286,-0.0635 0.2794,-0.1778 0.3048,-0.6223 0.8509,-0.9906 1.4224,-0.9906 1.0033,0 1.7018,0.762 1.7018,1.8415 0,0.5715 -0.5334,1.4224 -0.8763,1.7653 l -2.4511,2.4384 c -0.0635,0.0635 -0.1016,0.1397 -0.1016,0.2286 0,0.1905 0.1651,0.3048 0.3175,0.3048 h 2.7559 c 0.127,0 0.2159,-0.0508 0.2667,-0.1524 l 0.4064,-0.6985 c 0.0381,-0.0508 0.0381,-0.1016 0.0508,-0.1524 0,-0.1905 -0.1651,-0.3175 -0.3302,-0.3175 -0.1143,0 -0.2032,0.0508 -0.2667,0.1651 l -0.3048,0.5334 h -1.8161 l 1.9177,-1.905 c 0.4064,-0.4064 1.0541,-1.4351 1.0541,-2.2098 z"
           style="font-size:12.7px"
           id="path903" />
        <path
           d="m 160.60857,156.80642 c 0,-0.1524 -0.0635,-0.2794 -0.254,-0.2794 -0.1778,0 -0.3683,0.4064 -0.5588,0.4064 -0.1524,0 -0.2159,-0.1524 -0.2667,-0.3556 l -0.4318,-2.413 c -0.1397,-0.7112 -0.6731,-1.1303 -1.4478,-1.1303 -0.3302,0 -0.6477,0.1143 -0.9652,0.3302 0,-0.1905 -0.1524,-0.3302 -0.3175,-0.3302 -0.0889,0 -0.1016,0.0381 -0.1651,0.0508 l -0.8509,0.5207 c -0.1143,0.0635 -0.1778,0.1651 -0.1778,0.2794 0,0.1524 0.1397,0.3048 0.3048,0.3175 0.0127,0 0.0635,-0.0127 0.127,-0.0254 l 0.4445,-0.2667 v 2.9083 h -0.4191 c -0.2159,0 -0.3429,0.1524 -0.3429,0.3048 0,0.1651 0.127,0.3302 0.3429,0.3302 h 1.3335 c 0.2413,0 0.3302,-0.1651 0.3302,-0.3302 0,-0.1524 -0.0889,-0.3048 -0.3302,-0.3048 h -0.2794 v -2.6162 l 0.1524,-0.1524 c 0.2159,-0.2159 0.4445,-0.3937 0.8128,-0.3937 0.2921,0 0.7239,0.1016 0.8255,0.6223 l 0.4445,2.413 c 0.1143,0.6477 0.4826,0.8382 0.7747,0.8382 0.381,0 0.9144,-0.3429 0.9144,-0.7239 z"
           style="font-size:12.7px"
           id="path905" />
        <path
           d="m 166.20193,157.14932 c 0.1397,-0.0635 0.1778,-0.1651 0.1905,-0.2667 0,-0.1651 -0.1143,-0.3302 -0.3048,-0.3302 h -0.0889 l -0.4445,0.2159 v -7.239 c 0,-0.1905 -0.1524,-0.3175 -0.3048,-0.3175 -0.0635,0 -0.127,0.0127 -0.1651,0.0508 l -0.8636,0.5207 c -0.1143,0.0635 -0.1778,0.1651 -0.1778,0.2794 0,0.1524 0.1524,0.3048 0.3175,0.3175 0.0127,0 0.0635,-0.0127 0.127,-0.0254 l 0.4445,-0.2667 v 2.9083 h -1.4351 c -1.2573,0 -2.1971,1.0414 -2.1971,2.2606 0,1.3589 1.1684,2.1971 2.2479,2.1971 0.5207,0 0.9779,-0.1524 1.3843,-0.4445 v 0.2794 c 0,0.1651 0.1524,0.3048 0.3048,0.3048 0.0381,0 0.0889,-0.0127 0.1524,-0.0254 z m -1.27,-0.9906 c -0.3429,0.3937 -0.8128,0.5842 -1.3081,0.5842 -0.7874,0 -1.6256,-0.5207 -1.6891,-1.4224 0,-0.9144 0.5715,-1.6129 1.4859,-1.6764 h 1.5113 z"
           style="font-size:12.7px"
           id="path907" />
        <path
           d="m 168.40002,156.89532 c 0,-0.3556 -0.2921,-0.6604 -0.6604,-0.6604 -0.3556,0 -0.6604,0.3048 -0.6604,0.6604 0,0.3175 0.2413,0.5842 0.5461,0.6477 0,0.0254 -0.2667,0.3302 -0.2667,0.4318 0,0.1397 0.0889,0.2413 0.2286,0.2413 0.0762,0 0.1397,-0.0254 0.2032,-0.0889 0.4064,-0.3429 0.6096,-0.7239 0.6096,-1.2319 z"
           style="font-size:12.7px"
           id="path909" />
        <path
           d="m 180.15387,152.71702 c 0,-1.4097 -0.9652,-2.4765 -2.3241,-2.4765 -0.8128,0 -1.5748,0.5207 -1.9812,1.3462 -0.0381,0.0381 -0.0381,0.1016 -0.0381,0.1397 0,0.1524 0.127,0.3175 0.3175,0.3175 0.1397,0 0.2286,-0.0635 0.2794,-0.1778 0.3048,-0.6223 0.8509,-0.9906 1.4224,-0.9906 1.0033,0 1.7018,0.762 1.7018,1.8415 0,0.5715 -0.5334,1.4224 -0.8763,1.7653 l -2.4511,2.4384 c -0.0635,0.0635 -0.1016,0.1397 -0.1016,0.2286 0,0.1905 0.1651,0.3048 0.3175,0.3048 h 2.7559 c 0.127,0 0.2159,-0.0508 0.2667,-0.1524 l 0.4064,-0.6985 c 0.0381,-0.0508 0.0381,-0.1016 0.0508,-0.1524 0,-0.1905 -0.1651,-0.3175 -0.3302,-0.3175 -0.1143,0 -0.2032,0.0508 -0.2667,0.1651 l -0.3048,0.5334 h -1.8161 l 1.9177,-1.905 c 0.4064,-0.4064 1.0541,-1.4351 1.0541,-2.2098 z"
           style="font-size:12.7px"
           id="path911" />
        <path
           d="m 185.50672,153.96162 c 0,-1.9304 -1.0414,-3.6068 -2.3241,-3.6068 -1.2827,0 -2.3368,1.6383 -2.3368,3.6068 0,1.9685 1.0541,3.6068 2.3368,3.6068 1.2827,0 2.3241,-1.6383 2.3241,-3.6068 z m -0.635,0 c 0,1.6129 -0.7493,2.9845 -1.6891,2.9845 -0.9525,0 -1.7018,-1.3589 -1.7018,-2.9845 0,-1.6383 0.7747,-2.9718 1.7018,-2.9718 0.9271,0 1.6891,1.3462 1.6891,2.9718 z"
           style="font-size:12.7px"
           id="path913" />
        <path
           d="m 190.54704,152.71702 c 0,-1.4097 -0.9652,-2.4765 -2.3241,-2.4765 -0.8128,0 -1.5748,0.5207 -1.9812,1.3462 -0.0381,0.0381 -0.0381,0.1016 -0.0381,0.1397 0,0.1524 0.127,0.3175 0.3175,0.3175 0.1397,0 0.2286,-0.0635 0.2794,-0.1778 0.3048,-0.6223 0.8509,-0.9906 1.4224,-0.9906 1.0033,0 1.7018,0.762 1.7018,1.8415 0,0.5715 -0.5334,1.4224 -0.8763,1.7653 l -2.4511,2.4384 c -0.0635,0.0635 -0.1016,0.1397 -0.1016,0.2286 0,0.1905 0.1651,0.3048 0.3175,0.3048 h 2.7559 c 0.127,0 0.2159,-0.0508 0.2667,-0.1524 l 0.4064,-0.6985 c 0.0381,-0.0508 0.0381,-0.1016 0.0508,-0.1524 0,-0.1905 -0.1651,-0.3175 -0.3302,-0.3175 -0.1143,0 -0.2032,0.0508 -0.2667,0.1651 l -0.3048,0.5334 h -1.8161 l 1.9177,-1.905 c 0.4064,-0.4064 1.0541,-1.4351 1.0541,-2.2098 z"
           style="font-size:12.7px"
           id="path915" />
        <path
           d="m 193.35988,157.45412 c 0.2413,0 0.3302,-0.1651 0.3302,-0.3302 0,-0.1524 -0.0889,-0.3048 -0.3302,-0.3048 h -0.3683 v -6.1849 c 0,-0.1905 -0.1651,-0.3048 -0.3175,-0.3175 -0.0889,0 -0.1651,0.0381 -0.2286,0.1016 l -1.1176,1.2192 c -0.0635,0.0635 -0.0889,0.1397 -0.0889,0.254 0,0.1524 0.1397,0.2921 0.3048,0.2921 0.0889,0 0.1905,-0.0381 0.254,-0.127 l 0.5588,-0.6096 v 5.3721 h -0.3302 c -0.2159,0 -0.3429,0.1524 -0.3429,0.3048 0,0.1651 0.127,0.3302 0.3429,0.3302 z"
           style="font-size:12.7px"
           id="path917" />
      </g>
      <g
         inkscape:export-ydpi="115.23696"
         inkscape:export-xdpi="115.23696"
         transform="rotate(-16.739028,36.756475,172.0285)"
         id="g1059">
        <path
           d="m 18.334268,167.58269 c 0.187503,0 0.28677,-0.13235 0.28677,-0.26471 0,-0.16544 -0.09927,-0.27574 -0.28677,-0.27574 h -0.794131 c -0.187503,0 -0.28677,0.13236 -0.28677,0.26471 0,0.16545 0.09927,0.27574 0.28677,0.27574 h 0.187503 c 0.01103,0.0882 0.01103,0.16545 0.01103,0.24266 0,1.77576 -0.56251,3.47432 -1.577233,4.76478 -0.253681,-0.31986 -0.474273,-0.66177 -0.661776,-1.02575 0.562509,-1.14708 0.849279,-2.40445 0.849279,-3.73903 v -0.24266 h 0.04412 c 0.209563,0 0.2978,-0.13235 0.2978,-0.26471 -0.01103,-0.16544 -0.110296,-0.27574 -0.2978,-0.27574 h -0.783101 c -0.187503,0 -0.28677,0.13236 -0.28677,0.26471 0,0.16545 0.09927,0.27574 0.28677,0.27574 h 0.187503 c 0.01103,0.0882 0.01103,0.16545 0.01103,0.24266 0,1.06987 -0.220592,2.12871 -0.617658,3.09931 -0.408095,-0.98163 -0.606628,-2.00738 -0.606628,-3.09931 v -0.24266 h 0.143385 c 0.187503,0 0.286769,-0.13235 0.286769,-0.26471 0,-0.16544 -0.09927,-0.27574 -0.286769,-0.27574 h -0.783102 c -0.187503,0 -0.286769,0.13236 -0.286769,0.26471 0,0.16545 0.09927,0.27574 0.286769,0.27574 h 0.09927 c -0.01103,0.0882 -0.01103,0.16545 -0.01103,0.24266 0,1.33458 0.319858,2.59195 0.860309,3.73903 -0.187503,0.36398 -0.408095,0.70589 -0.661776,1.02575 -1.014723,-1.29046 -1.577233,-2.98902 -1.577233,-4.76478 v -0.24266 h 0.143385 c 0.187503,0 0.286769,-0.13235 0.286769,-0.26471 0,-0.16544 -0.09927,-0.27574 -0.286769,-0.27574 h -0.783102 c -0.187503,0 -0.286769,0.13236 -0.297799,0.26471 0.01103,0.16545 0.110296,0.27574 0.297799,0.27574 h 0.09927 c -0.01103,0.0882 -0.01103,0.16545 -0.01103,0.24266 0,1.97429 0.716924,4.0258 1.91915,5.37141 0.07721,0.0551 0.143385,0.0882 0.198533,0.0882 0.319859,0 0.727954,-0.7831 0.970605,-1.14708 0.231622,0.38604 0.683835,1.14708 0.959575,1.14708 0.08824,0 0.165444,-0.0331 0.220592,-0.0882 1.235315,-1.42282 1.908121,-3.353 1.908121,-5.37141 v -0.24266 z"
           style="font-style:normal;font-variant:normal;font-weight:normal;font-stretch:normal;font-family:'Nickelodeon NF';-inkscape-font-specification:'Nickelodeon NF';stroke-width:0.275739"
           id="path919" />
        <path
           d="m 23.856651,172.77764 c 0,-0.14339 -0.05515,-0.26471 -0.220592,-0.26471 -0.209563,0 -0.231622,0.36397 -0.496332,0.36397 -0.132355,0 -0.143385,-0.0551 -0.529421,-2.40445 -0.09927,-0.61766 -0.584569,-0.98163 -1.257374,-0.98163 -0.2978,0 -0.57354,0.12132 -0.82722,0.28677 v -3.29786 c 0,-0.16544 -0.132356,-0.27574 -0.27574,-0.27574 -0.05515,0 -0.110296,0.011 -0.143385,0.0441 l -0.750013,0.45222 c -0.09927,0.0551 -0.143385,0.15441 -0.143385,0.24265 0,0.14338 0.121326,0.27574 0.264711,0.27574 0.05515,0 0.110296,-0.011 0.165444,-0.0441 l 0.330888,-0.20956 v 5.8126 h -0.27574 c -0.209563,0 -0.28677,0.14338 -0.28677,0.28677 0,0.13235 0.110296,0.26471 0.28677,0.26471 h 1.069871 c 0.209562,0 0.286769,-0.14339 0.286769,-0.28677 0,-0.13236 -0.07721,-0.26471 -0.286769,-0.26471 h -0.242651 v -2.23901 c 0.308828,-0.34192 0.52942,-0.50736 0.82722,-0.50736 0.297799,0 0.639716,0.0993 0.727953,0.54045 l 0.386036,2.09562 c 0.08824,0.49633 0.352947,0.73898 0.650747,0.73898 0.386036,0 0.738983,-0.33088 0.738983,-0.62868 z"
           style="font-style:normal;font-variant:normal;font-weight:normal;font-stretch:normal;font-family:'Nickelodeon NF';-inkscape-font-specification:'Nickelodeon NF';stroke-width:0.275739"
           id="path921" />
        <path
           d="m 28.462715,171.98351 c 0,-0.0331 0.01103,-0.0331 0.01103,-0.0772 0,-0.13236 -0.09927,-0.28677 -0.242651,-0.28677 -0.154415,0 -0.253681,0.0662 -0.28677,0.19853 -0.187503,0.62869 -0.783101,1.05884 -1.444877,1.05884 -0.816191,0 -1.500026,-0.68383 -1.500026,-1.50002 0,-0.13236 0.01103,-0.25368 0.04412,-0.36398 h 3.132407 c 0.165444,0 0.26471,-0.12133 0.27574,-0.26471 0,-0.0221 -0.01103,-0.0551 -0.02206,-0.0993 -0.2978,-0.83825 -1.058842,-1.32355 -1.93018,-1.32355 -1.10296,0 -2.051506,0.94855 -2.051506,2.05151 0,1.11399 0.948546,2.04047 2.051506,2.04047 0.926486,0 1.687528,-0.58457 1.963268,-1.43384 z m -3.154465,-1.51106 c 0.297799,-0.38604 0.727953,-0.60663 1.202226,-0.60663 0.474273,0 0.937516,0.20956 1.213256,0.60663 z"
           style="font-style:normal;font-variant:normal;font-weight:normal;font-stretch:normal;font-family:'Nickelodeon NF';-inkscape-font-specification:'Nickelodeon NF';stroke-width:0.275739"
           id="path923" />
        <path
           d="m 32.96193,170.24083 c 0,-0.69487 -0.474273,-1.06987 -1.003694,-1.06987 -0.341917,0 -0.705894,0.14338 -0.970604,0.4853 l -0.595599,0.73898 v -0.62868 c 0,-0.16545 -0.132355,-0.27574 -0.26471,-0.27574 -0.05515,0 -0.110296,0.011 -0.143385,0.0441 l -0.750013,0.45222 c -0.09927,0.0551 -0.154414,0.14338 -0.154414,0.24265 0,0.13235 0.132355,0.26471 0.27574,0.27574 0.01103,0 0.05515,-0.011 0.110296,-0.0221 l 0.386036,-0.23162 v 2.52578 h -0.408095 c -0.209563,0 -0.28677,0.14338 -0.28677,0.28677 0,0.13235 0.110296,0.26471 0.28677,0.26471 h 2.029446 c 0.209562,0 0.297799,-0.13236 0.297799,-0.26471 0,-0.14339 -0.08824,-0.28677 -0.297799,-0.28677 h -1.080901 v -1.43385 l 0.794131,-1.0809 c 0.176474,-0.25368 0.463244,-0.54045 0.772072,-0.54045 0.308829,0 0.452214,0.22059 0.463244,0.47427 0,0.25368 -0.09927,0.50736 -0.330888,0.55148 -0.264711,0.0441 -0.363977,0.15441 -0.397066,0.2978 0,0.17647 0.143385,0.25368 0.27574,0.25368 0.56251,0 0.981634,-0.43015 0.992664,-1.05884 z"
           style="font-style:normal;font-variant:normal;font-weight:normal;font-stretch:normal;font-family:'Nickelodeon NF';-inkscape-font-specification:'Nickelodeon NF';stroke-width:0.275739"
           id="path925" />
        <path
           d="m 37.575061,171.98351 c 0,-0.0331 0.01103,-0.0331 0.01103,-0.0772 0,-0.13236 -0.09927,-0.28677 -0.242652,-0.28677 -0.154414,0 -0.25368,0.0662 -0.286769,0.19853 -0.187503,0.62869 -0.783102,1.05884 -1.444878,1.05884 -0.81619,0 -1.500025,-0.68383 -1.500025,-1.50002 0,-0.13236 0.01103,-0.25368 0.04412,-0.36398 h 3.132406 c 0.165444,0 0.264711,-0.12133 0.27574,-0.26471 0,-0.0221 -0.01103,-0.0551 -0.02206,-0.0993 -0.297799,-0.83825 -1.058841,-1.32355 -1.93018,-1.32355 -1.10296,0 -2.051505,0.94855 -2.051505,2.05151 0,1.11399 0.948545,2.04047 2.051505,2.04047 0.926487,0 1.687529,-0.58457 1.963269,-1.43384 z m -3.154466,-1.51106 c 0.2978,-0.38604 0.727954,-0.60663 1.202227,-0.60663 0.474273,0 0.937516,0.20956 1.213256,0.60663 z"
           style="font-style:normal;font-variant:normal;font-weight:normal;font-stretch:normal;font-family:'Nickelodeon NF';-inkscape-font-specification:'Nickelodeon NF';stroke-width:0.275739"
           id="path927" />
        <path
           d="m 39.338936,171.74085 c 0,-0.31985 -0.253681,-0.57354 -0.573539,-0.57354 -0.308829,0 -0.57354,0.25369 -0.57354,0.57354 0,0.31986 0.264711,0.57354 0.57354,0.57354 0.319858,0 0.573539,-0.25368 0.573539,-0.57354 z m 0,-1.76473 c 0,-0.31986 -0.253681,-0.57354 -0.573539,-0.57354 -0.308829,0 -0.57354,0.25368 -0.57354,0.57354 0,0.31986 0.264711,0.57354 0.57354,0.57354 0.319858,0 0.573539,-0.25368 0.573539,-0.57354 z"
           style="font-style:normal;font-variant:normal;font-weight:normal;font-stretch:normal;font-family:'Nickelodeon NF';-inkscape-font-specification:'Nickelodeon NF';stroke-width:0.275739"
           id="path929" />
      </g>
      <g
         inkscape:export-ydpi="115.23696"
         inkscape:export-xdpi="115.23696"
         transform="translate(-5.125074)"
         id="g1122">
        <path
           d="m 52.164174,169.58262 c 0.2159,0 0.3302,-0.1524 0.3302,-0.3048 0,-0.1905 -0.1143,-0.3175 -0.3302,-0.3175 h -1.6129 c -0.2159,0 -0.3429,0.1524 -0.3429,0.3048 0.0127,0.1905 0.127,0.3175 0.3429,0.3175 h 0.5461 v 2.3749 c -0.6096,0.4699 -1.1938,0.7366 -2.0066,0.7747 -1.6256,-0.0381 -2.8194,-1.2192 -2.9591,-2.8194 v -0.1016 c 0,-1.6002 1.1684,-2.8829 2.8829,-3.0226 0.5588,0 1.0541,0.127 1.4986,0.3683 l -0.1651,0.2032 c -0.0635,0.0635 -0.0889,0.127 -0.0889,0.2159 0,0.1651 0.1524,0.3048 0.3175,0.3048 0.0889,0 0.1778,-0.0381 0.2667,-0.127 l 0.6731,-0.8255 c 0.0635,-0.0635 0.0889,-0.127 0.0889,-0.2159 0,-0.1905 -0.1524,-0.3175 -0.3175,-0.3175 -0.1016,0 -0.1905,0.0508 -0.2667,0.1397 l -0.1016,0.127 c -0.5461,-0.4064 -1.3335,-0.508 -2.0066,-0.508 -1.9812,0.1651 -3.4163,1.7018 -3.4163,3.6957 v 0.1016 c 0.1397,1.9431 1.651,3.3909 3.5941,3.3909 0.7747,0 1.4097,-0.2159 2.0066,-0.6096 0.0889,0.4064 0.3302,0.8636 0.7366,0.8636 0.2159,0 0.3048,-0.1778 0.3048,-0.3302 0,-0.1016 -0.0889,-0.2413 -0.254,-0.3048 l -0.1016,-0.1016 c -0.0381,-0.0635 -0.0635,-0.1778 -0.0635,-0.3302 v -2.9464 z"
           style="font-size:12.7px"
           id="path931" />
        <path
           d="m 57.656527,169.77312 c 0,-0.8001 -0.5461,-1.2319 -1.1557,-1.2319 -0.3937,0 -0.8128,0.1651 -1.1176,0.5588 l -0.6858,0.8509 v -0.7239 c 0,-0.1905 -0.1524,-0.3175 -0.3048,-0.3175 -0.0635,0 -0.127,0.0127 -0.1651,0.0508 l -0.8636,0.5207 c -0.1143,0.0635 -0.1778,0.1651 -0.1778,0.2794 0,0.1524 0.1524,0.3048 0.3175,0.3175 0.0127,0 0.0635,-0.0127 0.127,-0.0254 l 0.4445,-0.2667 v 2.9083 h -0.4699 c -0.2413,0 -0.3302,0.1651 -0.3302,0.3302 0,0.1524 0.127,0.3048 0.3302,0.3048 h 2.3368 c 0.2413,0 0.3429,-0.1524 0.3429,-0.3048 0,-0.1651 -0.1016,-0.3302 -0.3429,-0.3302 h -1.2446 v -1.651 l 0.9144,-1.2446 c 0.2032,-0.2921 0.5334,-0.6223 0.889,-0.6223 0.3556,0 0.5207,0.254 0.5334,0.5461 0,0.2921 -0.1143,0.5842 -0.381,0.635 -0.3048,0.0508 -0.4191,0.1778 -0.4572,0.3429 0,0.2032 0.1651,0.2921 0.3175,0.2921 0.6477,0 1.1303,-0.4953 1.143,-1.2192 z"
           style="font-size:12.7px"
           id="path933" />
        <path
           d="m 63.527102,173.02432 c 0,-0.1905 -0.1016,-0.3302 -0.2413,-0.3302 -0.1397,0 -0.1905,0.0635 -0.3048,0.0635 -0.0381,0 -0.0508,-0.0127 -0.0635,-0.0508 l -1.5875,-3.5433 c -0.1143,-0.2667 -0.3175,-0.4064 -0.6096,-0.4064 -0.1143,0 -0.2159,0.0254 -0.3048,0.0635 l -1.8542,0.8255 c -0.1397,0.0635 -0.2159,0.1778 -0.2159,0.3175 0,0.1397 0.0762,0.3048 0.2667,0.3048 0.0635,0 0.1524,-0.0254 0.2667,-0.0635 l 1.7907,-0.8001 c 0.0127,-0.0127 0.0254,-0.0127 0.0381,-0.0127 0.0127,0 0.0254,0.0127 0.0381,0.0381 l 0.1397,0.3048 -0.4191,0.1905 c -0.9652,0.3429 -1.8034,1.0541 -1.8034,2.0828 0,0.762 0.5207,1.3589 1.4351,1.3589 0.762,0 1.4986,-0.3429 2.0447,-0.8382 l 0.2032,0.4572 c 0.1397,0.2921 0.3429,0.381 0.5842,0.381 0.2921,0 0.5969,-0.0762 0.5969,-0.3429 z m -1.6637,-1.1049 c -0.4445,0.4445 -1.016,0.8255 -1.7907,0.8255 -0.3937,0 -0.7874,-0.1905 -0.7874,-0.8001 0,-0.8382 1.0287,-1.3208 1.8796,-1.6002 z"
           style="font-size:12.7px"
           id="path935" />
        <path
           d="m 69.659813,172.68142 c 0,-0.1524 -0.0635,-0.2794 -0.254,-0.2794 -0.1778,0 -0.3683,0.4064 -0.5588,0.4064 -0.1524,0 -0.2159,-0.1524 -0.2667,-0.3556 l -0.4318,-2.413 c -0.1397,-0.7112 -0.6731,-1.1303 -1.4478,-1.1303 -0.3302,0 -0.6477,0.1143 -0.9652,0.3302 0,-0.1905 -0.1524,-0.3302 -0.3175,-0.3302 -0.0889,0 -0.1016,0.0381 -0.1651,0.0508 l -0.8509,0.5207 c -0.1143,0.0635 -0.1778,0.1651 -0.1778,0.2794 0,0.1524 0.1397,0.3048 0.3048,0.3175 0.0127,0 0.0635,-0.0127 0.127,-0.0254 l 0.4445,-0.2667 v 2.9083 h -0.4191 c -0.2159,0 -0.3429,0.1524 -0.3429,0.3048 0,0.1651 0.127,0.3302 0.3429,0.3302 h 1.3335 c 0.2413,0 0.3302,-0.1651 0.3302,-0.3302 0,-0.1524 -0.0889,-0.3048 -0.3302,-0.3048 h -0.2794 v -2.6162 l 0.1524,-0.1524 c 0.2159,-0.2159 0.4445,-0.3937 0.8128,-0.3937 0.2921,0 0.7239,0.1016 0.8255,0.6223 l 0.4445,2.413 c 0.1143,0.6477 0.4826,0.8382 0.7747,0.8382 0.381,0 0.9144,-0.3429 0.9144,-0.7239 z"
           style="font-size:12.7px"
           id="path937" />
        <path
           d="m 73.703772,173.06242 c 0.1016,-0.0635 0.1397,-0.1651 0.1397,-0.2286 0,-0.1905 -0.1524,-0.3302 -0.3429,-0.3302 -0.2159,0 -0.5715,0.3302 -0.9398,0.3302 -0.4699,-0.0127 -0.8255,-0.3048 -0.8255,-0.762 v -2.5654 h 1.27 c 0.2413,0 0.3429,-0.1524 0.3429,-0.3048 0,-0.1651 -0.1016,-0.3302 -0.3429,-0.3302 h -1.27 v -0.6985 c 0,-0.2159 -0.1524,-0.3302 -0.3048,-0.3302 -0.1651,0 -0.3302,0.1143 -0.3302,0.3302 v 0.6985 h -0.4191 c -0.2413,0 -0.3302,0.1651 -0.3302,0.3302 0,0.1524 0.127,0.3048 0.3302,0.3048 h 0.4191 v 2.5654 c 0,0.8255 0.6604,1.3843 1.4605,1.3843 0.4445,0 0.8255,-0.127 1.143,-0.3937 z"
           style="font-size:12.7px"
           id="path939" />
        <path
           d="m 76.346959,170.11602 v -0.5588 h -1.8288 v 0.5588 z"
           style="font-size:12.7px"
           id="path941" />
        <path
           d="m 82.344734,173.32912 c 0.2413,0 0.3302,-0.1651 0.3302,-0.3302 0,-0.1524 -0.0889,-0.3048 -0.3302,-0.3048 h -0.381 v -5.9436 h 0.381 c 0.2413,0 0.3302,-0.1651 0.3302,-0.3302 0,-0.1524 -0.0889,-0.3048 -0.3302,-0.3048 h -1.397 c -0.2159,0 -0.3429,0.1524 -0.3429,0.3048 0,0.1651 0.127,0.3302 0.3429,0.3302 h 0.381 v 0.8255 l -2.9464,1.8542 v -2.6797 h 0.381 c 0.2413,0 0.3302,-0.1651 0.3302,-0.3302 0,-0.1524 -0.0889,-0.3048 -0.3302,-0.3048 h -1.397 c -0.2159,0 -0.3429,0.1524 -0.3429,0.3048 0,0.1651 0.127,0.3302 0.3429,0.3302 h 0.381 v 5.9436 h -0.381 c -0.2159,0 -0.3429,0.1524 -0.3429,0.3048 0,0.1651 0.127,0.3302 0.3429,0.3302 h 1.397 c 0.2413,0 0.3302,-0.1651 0.3302,-0.3302 0,-0.1524 -0.0889,-0.3048 -0.3302,-0.3048 h -0.381 v -2.5146 l 2.9464,-1.8669 v 4.3815 h -0.381 c -0.2159,0 -0.3429,0.1524 -0.3429,0.3048 0,0.1651 0.127,0.3302 0.3429,0.3302 z"
           style="font-size:12.7px"
           id="path943" />
        <path
           d="m 87.93333,172.93542 c 0.1397,-0.0889 0.1778,-0.1778 0.1778,-0.2794 0,-0.1524 -0.1143,-0.3048 -0.3048,-0.3175 -0.0508,0 -0.0889,0.0127 -0.127,0.0254 l -0.4318,0.2667 v -3.4417 c 0,-0.1905 -0.1524,-0.3175 -0.3175,-0.3175 -0.0635,0 -0.1143,0.0127 -0.1524,0.0381 l -0.7112,0.3683 c -0.127,0.0635 -0.1905,0.1651 -0.1905,0.2794 0,0.1651 0.1397,0.3175 0.3048,0.3302 0.0635,0 0.1143,-0.0127 0.1778,-0.0508 l 0.254,-0.127 v 2.4638 c -0.2032,0.3937 -0.7366,0.5969 -0.9779,0.5969 -0.5207,0 -0.8382,-0.2794 -0.8382,-0.8255 v -2.7559 c 0,-0.1905 -0.1524,-0.3048 -0.3048,-0.3175 -0.0635,0 -0.0889,0.0254 -0.1397,0.0381 l -0.8128,0.3937 c -0.1143,0.0508 -0.1778,0.1397 -0.1905,0.2794 0,0.1905 0.1651,0.3175 0.3175,0.3175 0.0381,0 0.0889,-0.0127 0.1397,-0.0254 l 0.3683,-0.1905 v 2.2606 c 0,1.0922 0.7874,1.4351 1.4605,1.4351 0.2921,0 0.6858,-0.1016 0.9779,-0.3175 0,0.2921 0.1016,0.4318 0.3175,0.4318 0.0381,0 0.127,0 0.1651,-0.0381 z"
           style="font-size:12.7px"
           id="path945" />
        <path
           d="m 96.539961,172.66872 c 0,-0.1524 -0.0508,-0.2794 -0.2413,-0.2794 -0.2413,0 -0.2667,0.4191 -0.5715,0.4191 -0.1651,0 -0.1778,-0.1524 -0.2159,-0.3175 l -0.4318,-2.4511 c -0.1397,-0.7112 -0.6858,-1.1303 -1.4478,-1.1303 -0.4445,0 -0.8255,0.2032 -1.1684,0.4953 -0.2667,-0.3302 -0.6604,-0.4953 -1.1811,-0.4953 -0.3302,0 -0.6477,0.1143 -0.9652,0.3302 0,-0.1905 -0.1397,-0.3302 -0.3048,-0.3302 -0.0889,0 -0.1143,0.0127 -0.1778,0.0508 l -0.8509,0.5207 c -0.1143,0.0635 -0.1651,0.1778 -0.1778,0.2794 0,0.1651 0.1397,0.3175 0.3048,0.3175 0.0635,0 0.127,-0.0127 0.1905,-0.0508 l 0.381,-0.2413 v 2.9083 h -0.4826 c -0.2413,0 -0.3302,0.1651 -0.3302,0.3302 0,0.1524 0.127,0.3048 0.3302,0.3048 h 1.397 c 0.2413,0 0.3302,-0.1651 0.3302,-0.3302 0,-0.1524 -0.0889,-0.3048 -0.3302,-0.3048 h -0.2794 v -2.6162 c 0.2921,-0.2921 0.4953,-0.5461 0.9652,-0.5461 0.8128,0 0.8255,0.7239 0.8255,0.8255 v 2.667 c 0,0.1651 0.1524,0.3048 0.3175,0.3048 h 0.6604 c 0.1651,0 0.3048,-0.1397 0.3048,-0.3048 0,-0.1905 -0.1397,-0.3175 -0.3048,-0.3175 h -0.3429 v -2.3368 c 0,-0.1143 -0.0127,-0.2159 -0.0254,-0.3175 0.2413,-0.2921 0.5715,-0.5207 0.9144,-0.5207 0.3048,0 0.7239,0.1016 0.8255,0.6223 l 0.4318,2.413 c 0.1016,0.5715 0.4318,0.8255 0.7747,0.8255 0.4191,0 0.8763,-0.3302 0.8763,-0.7239 z"
           style="font-size:12.7px"
           id="path947" />
        <path
           d="m 99.335344,168.84602 c -0.2032,0 -0.4191,0.0508 -0.6604,0.1905 -0.0127,-0.1524 -0.1524,-0.2667 -0.2667,-0.2794 -0.0889,0 -0.1524,0.0127 -0.1905,0.0381 l -0.8128,0.4191 c -0.127,0.0635 -0.1905,0.1651 -0.1905,0.2794 0,0.1651 0.1397,0.3175 0.3048,0.3302 0.0635,0 0.1143,-0.0127 0.1778,-0.0508 l 0.3556,-0.1778 v 5.2705 h -0.2921 c -0.2413,0 -0.3429,0.1651 -0.3429,0.3048 0,0.1651 0.127,0.3302 0.3429,0.3429 h 0.5969 c 0.1651,-0.0127 0.3175,-0.1651 0.3175,-0.3175 v -1.8669 h 1.1938 c 1.117596,0 1.739896,-0.5207 1.739896,-1.3843 0,-1.0795 -1.1049,-3.0988 -2.273296,-3.0988 z m 1.257296,3.7211 c -0.2159,0.1016 -0.508,0.127 -0.800096,0.127 h -1.1176 v -2.7559 c 0.1905,-0.2921 0.4191,-0.4445 0.6731,-0.4445 0.825496,0 1.638296,1.7272 1.638296,2.413 0,0.2921 -0.1016,0.5207 -0.3937,0.6604 z"
           style="font-size:12.7px"
           id="path949" />
        <path
           d="m 107.6461,172.69412 c 0,-0.1651 -0.0635,-0.3048 -0.254,-0.3048 -0.2413,0 -0.2667,0.4191 -0.5715,0.4191 -0.1524,0 -0.1651,-0.0635 -0.6096,-2.7686 -0.1143,-0.7112 -0.6731,-1.1303 -1.4478,-1.1303 -0.3429,0 -0.6604,0.1397 -0.9525,0.3302 v -3.7973 c 0,-0.1905 -0.1524,-0.3175 -0.3175,-0.3175 -0.0635,0 -0.127,0.0127 -0.1651,0.0508 l -0.8636,0.5207 c -0.1143,0.0635 -0.1651,0.1778 -0.1651,0.2794 0,0.1651 0.1397,0.3175 0.3048,0.3175 0.0635,0 0.127,-0.0127 0.1905,-0.0508 l 0.381,-0.2413 v 6.6929 h -0.3175 c -0.2413,0 -0.3302,0.1651 -0.3302,0.3302 0,0.1524 0.127,0.3048 0.3302,0.3048 h 1.2319 c 0.2413,0 0.3302,-0.1651 0.3302,-0.3302 0,-0.1524 -0.0889,-0.3048 -0.3302,-0.3048 h -0.2794 v -2.5781 c 0.3556,-0.3937 0.6096,-0.5842 0.9525,-0.5842 0.3429,0 0.7366,0.1143 0.8382,0.6223 l 0.4445,2.413 c 0.1016,0.5715 0.4064,0.8509 0.7493,0.8509 0.4445,0 0.8509,-0.381 0.8509,-0.7239 z"
           style="font-size:12.7px"
           id="path951" />
        <path
           d="m 112.79735,169.77312 c 0,-0.8001 -0.5461,-1.2319 -1.1557,-1.2319 -0.3937,0 -0.8128,0.1651 -1.1176,0.5588 l -0.6858,0.8509 v -0.7239 c 0,-0.1905 -0.1524,-0.3175 -0.3048,-0.3175 -0.0635,0 -0.127,0.0127 -0.1651,0.0508 l -0.8636,0.5207 c -0.1143,0.0635 -0.1778,0.1651 -0.1778,0.2794 0,0.1524 0.1524,0.3048 0.3175,0.3175 0.0127,0 0.0635,-0.0127 0.127,-0.0254 l 0.4445,-0.2667 v 2.9083 h -0.4699 c -0.2413,0 -0.3302,0.1651 -0.3302,0.3302 0,0.1524 0.127,0.3048 0.3302,0.3048 h 2.3368 c 0.2413,0 0.3429,-0.1524 0.3429,-0.3048 0,-0.1651 -0.1016,-0.3302 -0.3429,-0.3302 h -1.2446 v -1.651 l 0.9144,-1.2446 c 0.2032,-0.2921 0.5334,-0.6223 0.889,-0.6223 0.3556,0 0.5207,0.254 0.5334,0.5461 0,0.2921 -0.1143,0.5842 -0.381,0.635 -0.3048,0.0508 -0.4191,0.1778 -0.4572,0.3429 0,0.2032 0.1651,0.2921 0.3175,0.2921 0.6477,0 1.1303,-0.4953 1.143,-1.2192 z"
           style="font-size:12.7px"
           id="path953" />
        <path
           d="m 118.10912,171.77972 c 0,-0.0381 0.0127,-0.0381 0.0127,-0.0889 0,-0.1524 -0.1143,-0.3302 -0.2794,-0.3302 -0.1778,0 -0.2921,0.0762 -0.3302,0.2286 -0.2159,0.7239 -0.9017,1.2192 -1.6637,1.2192 -0.9398,0 -1.7272,-0.7874 -1.7272,-1.7272 0,-0.1524 0.0127,-0.2921 0.0508,-0.4191 h 3.6068 c 0.1905,0 0.3048,-0.1397 0.3175,-0.3048 0,-0.0254 -0.0127,-0.0635 -0.0254,-0.1143 -0.3429,-0.9652 -1.2192,-1.524 -2.2225,-1.524 -1.27,0 -2.3622,1.0922 -2.3622,2.3622 0,1.2827 1.0922,2.3495 2.3622,2.3495 1.0668,0 1.9431,-0.6731 2.2606,-1.651 z m -3.6322,-1.7399 c 0.3429,-0.4445 0.8382,-0.6985 1.3843,-0.6985 0.5461,0 1.0795,0.2413 1.397,0.6985 z"
           style="font-size:12.7px"
           id="path955" />
        <path
           d="m 124.01363,169.18892 c 0,-0.1905 -0.1397,-0.3175 -0.3048,-0.3175 h -0.7112 c -0.1397,0 -0.2286,0.0635 -0.2794,0.1778 l -1.3081,2.6543 -1.1684,-2.6416 c -0.0508,-0.1143 -0.1524,-0.1778 -0.3048,-0.1905 -0.0635,0 -0.1143,0.0254 -0.1778,0.0635 l -0.8128,0.6096 c -0.0889,0.0635 -0.1397,0.1524 -0.1397,0.2667 0,0.1905 0.1524,0.3175 0.3429,0.3175 0.0635,0 0.127,-0.0254 0.1778,-0.0762 l 0.4953,-0.381 c 0.6477,1.524 0.9144,2.1844 1.2192,2.7686 l -1.3462,2.7178 c -0.1905,0.381 -0.4699,0.5715 -0.8255,0.5715 -0.4191,0 -0.8001,-0.2921 -0.8001,-0.6858 0,-0.1651 0.127,-0.635 0.5715,-0.635 0.1524,0 0.2921,0.0762 0.2921,0.2286 0,0.0889 -0.0508,0.1651 -0.0508,0.254 0,0.1905 0.1651,0.3048 0.3302,0.3048 0.254,0 0.3556,-0.3175 0.3556,-0.5588 0,-0.5207 -0.4445,-0.8509 -0.9398,-0.8509 -0.5588,0 -1.1938,0.5842 -1.1938,1.2573 0,0.7493 0.6477,1.3208 1.3843,1.3208 0.6096,0 1.1557,-0.3429 1.4478,-0.9144 l 2.921,-5.9563 h 0.5207 c 0.1651,0 0.3048,-0.1397 0.3048,-0.3048 z"
           style="font-size:12.7px"
           id="path957" />
        <path
           d="m 127.9804,169.18892 c 0,-0.2159 -0.1016,-0.3175 -0.3175,-0.3175 -0.7112,0 -1.0922,0.254 -1.4351,0.8636 l -1.7018,3.0861 c -0.1905,0.3429 -0.4318,0.508 -0.7493,0.508 -0.4191,0 -0.8128,-0.2921 -0.8128,-0.7366 0,-0.3556 0.2032,-0.6985 0.5588,-0.6985 0.1143,0 0.2667,0.0508 0.2667,0.254 0,0.0889 -0.1778,0.1651 -0.1778,0.3556 0,0.1905 0.127,0.3048 0.3175,0.3048 0.3048,0 0.4826,-0.4318 0.4826,-0.7112 0,-0.4953 -0.4191,-0.8382 -0.8636,-0.8382 -0.7239,0 -1.2065,0.6096 -1.2065,1.3335 0,0.7493 0.6731,1.3589 1.397,1.3589 0.5969,0 1.0414,-0.3175 1.3335,-0.8382 l 1.7018,-3.0734 c 0.1397,-0.254 0.2794,-0.4445 0.5842,-0.508 v 0.4318 c 0,0.1651 0.1397,0.3175 0.3048,0.3175 0.1905,0 0.3175,-0.1524 0.3175,-0.3175 z"
           style="font-size:12.7px"
           id="path959" />
        <path
           d="m 140.1964,173.32912 c 0.2413,0 0.3302,-0.1651 0.3302,-0.3302 0,-0.1524 -0.0889,-0.3048 -0.3302,-0.3048 h -0.381 v -5.9436 h 0.381 c 0.2413,0 0.3302,-0.1651 0.3302,-0.3302 0,-0.1524 -0.0889,-0.3048 -0.3302,-0.3048 h -0.5588 c -0.254,0 -0.3937,0.1397 -0.5842,0.3937 -0.6604,0.762 -1.1557,1.7399 -1.5113,2.7432 -0.3683,-1.1176 -0.9652,-2.1082 -1.6256,-2.9337 -0.0889,-0.1143 -0.1778,-0.2032 -0.381,-0.2032 h -0.635 c -0.2413,0 -0.3302,0.1651 -0.3302,0.3302 0,0.1524 0.127,0.3048 0.3302,0.3048 h 0.381 v 5.9436 h -0.381 c -0.2413,0 -0.3302,0.1651 -0.3302,0.3302 0,0.1524 0.127,0.3048 0.3302,0.3048 h 1.397 c 0.2413,0 0.3429,-0.1524 0.3429,-0.3048 0,-0.1651 -0.1016,-0.3302 -0.3429,-0.3302 h -0.381 v -5.3086 c 0.5969,0.8763 1.0668,1.8542 1.3208,3.1242 0.0381,0.1397 0.1397,0.2159 0.3048,0.2159 0.1397,0 0.2794,-0.0635 0.3175,-0.2159 0.254,-1.27 0.7493,-2.2606 1.3208,-3.1242 v 5.3086 h -0.381 c -0.2159,0 -0.3429,0.1524 -0.3429,0.3048 0,0.1651 0.127,0.3302 0.3429,0.3302 z"
           style="font-size:12.7px"
           id="path961" />
        <path
           d="m 146.39957,173.02432 c 0,-0.1905 -0.1016,-0.3302 -0.2413,-0.3302 -0.1397,0 -0.1905,0.0635 -0.3048,0.0635 -0.0381,0 -0.0508,-0.0127 -0.0635,-0.0508 l -1.5875,-3.5433 c -0.1143,-0.2667 -0.3175,-0.4064 -0.6096,-0.4064 -0.1143,0 -0.2159,0.0254 -0.3048,0.0635 l -1.8542,0.8255 c -0.1397,0.0635 -0.2159,0.1778 -0.2159,0.3175 0,0.1397 0.0762,0.3048 0.2667,0.3048 0.0635,0 0.1524,-0.0254 0.2667,-0.0635 l 1.7907,-0.8001 c 0.0127,-0.0127 0.0254,-0.0127 0.0381,-0.0127 0.0127,0 0.0254,0.0127 0.0381,0.0381 l 0.1397,0.3048 -0.4191,0.1905 c -0.9652,0.3429 -1.8034,1.0541 -1.8034,2.0828 0,0.762 0.5207,1.3589 1.4351,1.3589 0.762,0 1.4986,-0.3429 2.0447,-0.8382 l 0.2032,0.4572 c 0.1397,0.2921 0.3429,0.381 0.5842,0.381 0.2921,0 0.5969,-0.0762 0.5969,-0.3429 z m -1.6637,-1.1049 c -0.4445,0.4445 -1.016,0.8255 -1.7907,0.8255 -0.3937,0 -0.7874,-0.1905 -0.7874,-0.8001 0,-0.8382 1.0287,-1.3208 1.8796,-1.6002 z"
           style="font-size:12.7px"
           id="path963" />
        <path
           d="m 152.53228,172.68142 c 0,-0.1524 -0.0635,-0.2794 -0.254,-0.2794 -0.1778,0 -0.3683,0.4064 -0.5588,0.4064 -0.1524,0 -0.2159,-0.1524 -0.2667,-0.3556 l -0.4318,-2.413 c -0.1397,-0.7112 -0.6731,-1.1303 -1.4478,-1.1303 -0.3302,0 -0.6477,0.1143 -0.9652,0.3302 0,-0.1905 -0.1524,-0.3302 -0.3175,-0.3302 -0.0889,0 -0.1016,0.0381 -0.1651,0.0508 l -0.8509,0.5207 c -0.1143,0.0635 -0.1778,0.1651 -0.1778,0.2794 0,0.1524 0.1397,0.3048 0.3048,0.3175 0.0127,0 0.0635,-0.0127 0.127,-0.0254 l 0.4445,-0.2667 v 2.9083 h -0.4191 c -0.2159,0 -0.3429,0.1524 -0.3429,0.3048 0,0.1651 0.127,0.3302 0.3429,0.3302 h 1.3335 c 0.2413,0 0.3302,-0.1651 0.3302,-0.3302 0,-0.1524 -0.0889,-0.3048 -0.3302,-0.3048 h -0.2794 v -2.6162 l 0.1524,-0.1524 c 0.2159,-0.2159 0.4445,-0.3937 0.8128,-0.3937 0.2921,0 0.7239,0.1016 0.8255,0.6223 l 0.4445,2.413 c 0.1143,0.6477 0.4826,0.8382 0.7747,0.8382 0.381,0 0.9144,-0.3429 0.9144,-0.7239 z"
           style="font-size:12.7px"
           id="path965" />
        <path
           d="m 158.86223,169.18892 c 0,-0.2159 -0.1016,-0.3175 -0.3175,-0.3175 -0.7112,0 -1.0922,0.254 -1.4351,0.8636 l -1.7018,3.0861 c -0.1905,0.3429 -0.4318,0.508 -0.7493,0.508 -0.4191,0 -0.8128,-0.2921 -0.8128,-0.7366 0,-0.3556 0.2032,-0.6985 0.5588,-0.6985 0.1143,0 0.2667,0.0508 0.2667,0.254 0,0.0889 -0.1778,0.1651 -0.1778,0.3556 0,0.1905 0.127,0.3048 0.3175,0.3048 0.3048,0 0.4826,-0.4318 0.4826,-0.7112 0,-0.4953 -0.4191,-0.8382 -0.8636,-0.8382 -0.7239,0 -1.2065,0.6096 -1.2065,1.3335 0,0.7493 0.6731,1.3589 1.397,1.3589 0.5969,0 1.0414,-0.3175 1.3335,-0.8382 l 1.7018,-3.0734 c 0.1397,-0.254 0.2794,-0.4445 0.5842,-0.508 v 0.4318 c 0,0.1651 0.1397,0.3175 0.3048,0.3175 0.1905,0 0.3175,-0.1524 0.3175,-0.3175 z"
           style="font-size:12.7px"
           id="path967" />
        <path
           d="m 161.33933,173.32912 c 0.2413,0 0.3429,-0.1524 0.3429,-0.3048 0,-0.1651 -0.1016,-0.3302 -0.3429,-0.3302 h -0.2794 v -3.4671 c 0,-0.1905 -0.1524,-0.3175 -0.3175,-0.3175 -0.0635,0 -0.127,0.0127 -0.1651,0.0508 l -0.8509,0.5207 c -0.1143,0.0635 -0.1778,0.1651 -0.1778,0.2794 0,0.1524 0.1397,0.3048 0.3048,0.3175 0.0635,0 0.1397,-0.0254 0.2032,-0.0635 l 0.3683,-0.2286 v 2.9083 h -0.3175 c -0.2413,0 -0.3302,0.1651 -0.3302,0.3302 0,0.1524 0.127,0.3048 0.3302,0.3048 z m -0.0635,-5.6007 c 0,-0.3683 -0.2921,-0.6604 -0.6604,-0.6604 -0.3556,0 -0.6604,0.2921 -0.6604,0.6604 0,0.3683 0.3048,0.6604 0.6604,0.6604 0.3683,0 0.6604,-0.2921 0.6604,-0.6604 z"
           style="font-size:12.7px"
           id="path969" />
        <path
           d="m 167.10075,171.08122 c 0,-1.27 -1.0922,-2.3622 -2.3622,-2.3622 -1.27,0 -2.3622,1.0541 -2.3622,2.3622 0,1.2954 1.0668,2.3495 2.3622,2.3495 1.3081,0 2.3622,-1.0922 2.3622,-2.3495 z m -0.635,0 c 0,0.9398 -0.7874,1.7272 -1.7272,1.7272 -0.9525,0 -1.7399,-0.762 -1.7399,-1.7272 0,-0.9398 0.7874,-1.7399 1.7399,-1.7399 0.9271,0 1.7272,0.8128 1.7272,1.7399 z"
           style="font-size:12.7px"
           id="path971" />
        <path
           d="m 173.21938,172.68142 c 0,-0.1524 -0.0635,-0.2794 -0.254,-0.2794 -0.1778,0 -0.3683,0.4064 -0.5588,0.4064 -0.1524,0 -0.2159,-0.1524 -0.2667,-0.3556 l -0.4318,-2.413 c -0.1397,-0.7112 -0.6731,-1.1303 -1.4478,-1.1303 -0.3302,0 -0.6477,0.1143 -0.9652,0.3302 0,-0.1905 -0.1524,-0.3302 -0.3175,-0.3302 -0.0889,0 -0.1016,0.0381 -0.1651,0.0508 l -0.8509,0.5207 c -0.1143,0.0635 -0.1778,0.1651 -0.1778,0.2794 0,0.1524 0.1397,0.3048 0.3048,0.3175 0.0127,0 0.0635,-0.0127 0.127,-0.0254 l 0.4445,-0.2667 v 2.9083 h -0.4191 c -0.2159,0 -0.3429,0.1524 -0.3429,0.3048 0,0.1651 0.127,0.3302 0.3429,0.3302 h 1.3335 c 0.2413,0 0.3302,-0.1651 0.3302,-0.3302 0,-0.1524 -0.0889,-0.3048 -0.3302,-0.3048 h -0.2794 v -2.6162 l 0.1524,-0.1524 c 0.2159,-0.2159 0.4445,-0.3937 0.8128,-0.3937 0.2921,0 0.7239,0.1016 0.8255,0.6223 l 0.4445,2.413 c 0.1143,0.6477 0.4826,0.8382 0.7747,0.8382 0.381,0 0.9144,-0.3429 0.9144,-0.7239 z"
           style="font-size:12.7px"
           id="path973" />
      </g>
      <g
         inkscape:export-ydpi="115.23696"
         inkscape:export-xdpi="115.23696"
         transform="translate(39.869492,-0.2461693)"
         id="g1082">
        <path
           d="m 15.466572,181.97367 c 0.04412,-0.0441 0.05515,-0.0993 0.06618,-0.15442 0,-0.16544 -0.110296,-0.2978 -0.27574,-0.2978 h -2.404453 c 0.03309,-0.0551 0.05515,-0.11029 0.06618,-0.16544 0,-0.0882 -0.08824,-0.1875 -0.341917,-0.26471 -0.09927,0 -0.165444,0.0882 -0.209563,0.17647 l -0.584568,1.12502 c -0.03309,0.0551 -0.05515,0.1103 -0.06618,0.16545 0,0.0772 0.08824,0.1875 0.341918,0.26471 0.121325,0 0.154414,-0.0882 0.198532,-0.17648 l 0.308829,-0.57354 h 2.117683 c -1.35664,1.81989 -2.19489,3.38609 -2.19489,5.72437 0,0.12132 0.01103,0.25368 0.242651,0.25368 0.297799,0 0.308829,-0.13236 0.308829,-0.23162 v -0.16545 c 0,-2.2721 0.948546,-3.81624 2.426512,-5.68024 z"
           style="font-style:normal;font-variant:normal;font-weight:normal;font-stretch:normal;font-family:'Nickelodeon NF';-inkscape-font-specification:'Nickelodeon NF';stroke-width:0.275739"
           id="path975" />
        <path
           d="m 20.098142,181.97367 c 0.04412,-0.0441 0.05515,-0.0993 0.06618,-0.15442 0,-0.16544 -0.110296,-0.2978 -0.27574,-0.2978 h -2.404453 c 0.03309,-0.0551 0.05515,-0.11029 0.06618,-0.16544 0,-0.0882 -0.08824,-0.1875 -0.341918,-0.26471 -0.09927,0 -0.165444,0.0882 -0.209562,0.17647 l -0.584569,1.12502 c -0.03309,0.0551 -0.05515,0.1103 -0.06618,0.16545 0,0.0772 0.08824,0.1875 0.341918,0.26471 0.121326,0 0.154414,-0.0882 0.198533,-0.17648 l 0.308829,-0.57354 h 2.117683 c -1.356641,1.81989 -2.194891,3.38609 -2.194891,5.72437 0,0.12132 0.01103,0.25368 0.242652,0.25368 0.297799,0 0.308828,-0.13236 0.308828,-0.23162 v -0.16545 c 0,-2.2721 0.948546,-3.81624 2.426512,-5.68024 z"
           style="font-style:normal;font-variant:normal;font-weight:normal;font-stretch:normal;font-family:'Nickelodeon NF';-inkscape-font-specification:'Nickelodeon NF';stroke-width:0.275739"
           id="path977" />
        <path
           d="m 24.81209,184.78621 c 0,-1.67649 -0.904427,-3.1324 -2.018417,-3.1324 -1.113989,0 -2.029446,1.42282 -2.029446,3.1324 0,1.70959 0.915457,3.13241 2.029446,3.13241 1.11399,0 2.018417,-1.42282 2.018417,-3.13241 z m -0.55148,0 c 0,1.40076 -0.650746,2.59196 -1.466937,2.59196 -0.82722,0 -1.477966,-1.18017 -1.477966,-2.59196 0,-1.42281 0.672806,-2.58092 1.477966,-2.58092 0.805161,0 1.466937,1.16914 1.466937,2.58092 z"
           style="font-style:normal;font-variant:normal;font-weight:normal;font-stretch:normal;font-family:'Nickelodeon NF';-inkscape-font-specification:'Nickelodeon NF';stroke-width:0.275739"
           id="path979" />
        <path
           d="m 35.410157,183.82664 c 0,-1.33458 -1.136049,-2.2721 -2.393423,-2.2721 h -1.775766 c -0.143385,0 -0.231621,0.12133 -0.242651,0.24265 0,0.17648 0.07721,0.30883 0.242651,0.30883 h 0.297799 v 5.16186 h -0.308828 c -0.187504,0 -0.2978,0.13235 -0.2978,0.26471 0,0.14338 0.110296,0.28677 0.2978,0.28677 h 1.158108 c 0.209562,0 0.286769,-0.14339 0.286769,-0.28677 0,-0.13236 -0.07721,-0.26471 -0.286769,-0.26471 h -0.297799 v -5.16186 h 0.915456 c 0.981635,0 1.852973,0.7059 1.852973,1.72062 0,1.02575 -0.871338,1.70959 -1.864002,1.70959 h -0.264711 c -0.176473,0 -0.26471,0.13235 -0.26471,0.26471 0,0.14338 0.08824,0.28677 0.26471,0.28677 h 0.27574 c 1.268404,0 2.404453,-0.92649 2.404453,-2.26107 z"
           style="font-style:normal;font-variant:normal;font-weight:normal;font-stretch:normal;font-family:'Nickelodeon NF';-inkscape-font-specification:'Nickelodeon NF';stroke-width:0.275739"
           id="path981" />
        <path
           d="m 39.793906,186.47374 c 0,-0.0331 0.01103,-0.0331 0.01103,-0.0772 0,-0.13236 -0.09927,-0.28677 -0.242651,-0.28677 -0.154415,0 -0.253681,0.0662 -0.28677,0.19853 -0.187503,0.62869 -0.783101,1.05884 -1.444877,1.05884 -0.816191,0 -1.500026,-0.68383 -1.500026,-1.50002 0,-0.13236 0.01103,-0.25369 0.04412,-0.36398 h 3.132407 c 0.165444,0 0.26471,-0.12133 0.27574,-0.26471 0,-0.0221 -0.01103,-0.0551 -0.02206,-0.0993 -0.2978,-0.83825 -1.058842,-1.32355 -1.93018,-1.32355 -1.10296,0 -2.051506,0.94855 -2.051506,2.05151 0,1.11399 0.948546,2.04047 2.051506,2.04047 0.926486,0 1.687528,-0.58457 1.963268,-1.43385 z m -3.154465,-1.51105 c 0.297799,-0.38604 0.727953,-0.60663 1.202226,-0.60663 0.474273,0 0.937516,0.20956 1.213256,0.60663 z"
           style="font-style:normal;font-variant:normal;font-weight:normal;font-stretch:normal;font-family:'Nickelodeon NF';-inkscape-font-specification:'Nickelodeon NF';stroke-width:0.275739"
           id="path983" />
        <path
           d="m 44.894406,187.25685 c 0,-0.13236 -0.05515,-0.24266 -0.220592,-0.24266 -0.154414,0 -0.319858,0.35295 -0.485302,0.35295 -0.132355,0 -0.187503,-0.13235 -0.231622,-0.30883 l -0.375006,-2.09562 c -0.121326,-0.61766 -0.584569,-0.98164 -1.257374,-0.98164 -0.28677,0 -0.56251,0.0993 -0.83825,0.28677 0,-0.16544 -0.132355,-0.28677 -0.27574,-0.28677 -0.07721,0 -0.08824,0.0331 -0.143385,0.0441 l -0.738983,0.45222 c -0.09927,0.0551 -0.154414,0.14338 -0.154414,0.24265 0,0.13235 0.121325,0.26471 0.26471,0.27574 0.01103,0 0.05515,-0.011 0.110296,-0.0221 l 0.386036,-0.23162 v 2.52578 h -0.363977 c -0.187503,0 -0.297799,0.13235 -0.297799,0.26471 0,0.14338 0.110296,0.28677 0.297799,0.28677 h 1.158108 c 0.209563,0 0.28677,-0.14339 0.28677,-0.28677 0,-0.13236 -0.07721,-0.26471 -0.28677,-0.26471 H 41.48626 v -2.2721 l 0.132355,-0.13236 c 0.187503,-0.1875 0.386036,-0.34192 0.705895,-0.34192 0.25368,0 0.628687,0.0882 0.716924,0.54045 l 0.386036,2.09563 c 0.09927,0.56251 0.419124,0.72795 0.672805,0.72795 0.330888,0 0.794131,-0.2978 0.794131,-0.62868 z"
           style="font-style:normal;font-variant:normal;font-weight:normal;font-stretch:normal;font-family:'Nickelodeon NF';-inkscape-font-specification:'Nickelodeon NF';stroke-width:0.275739"
           id="path985" />
        <path
           d="m 50.215326,187.25685 c 0,-0.13236 -0.05515,-0.24266 -0.220592,-0.24266 -0.154415,0 -0.319859,0.35295 -0.485303,0.35295 -0.132355,0 -0.187503,-0.13235 -0.231621,-0.30883 l -0.375007,-2.09562 c -0.121326,-0.61766 -0.584569,-0.98164 -1.257374,-0.98164 -0.28677,0 -0.56251,0.0993 -0.83825,0.28677 0,-0.16544 -0.132355,-0.28677 -0.27574,-0.28677 -0.07721,0 -0.08824,0.0331 -0.143385,0.0441 l -0.738983,0.45222 c -0.09927,0.0551 -0.154414,0.14338 -0.154414,0.24265 0,0.13235 0.121325,0.26471 0.26471,0.27574 0.01103,0 0.05515,-0.011 0.110296,-0.0221 l 0.386036,-0.23162 v 2.52578 h -0.363977 c -0.187503,0 -0.297799,0.13235 -0.297799,0.26471 0,0.14338 0.110296,0.28677 0.297799,0.28677 h 1.158108 c 0.209563,0 0.28677,-0.14339 0.28677,-0.28677 0,-0.13236 -0.07721,-0.26471 -0.28677,-0.26471 h -0.242651 v -2.2721 l 0.132355,-0.13236 c 0.187503,-0.1875 0.386036,-0.34192 0.705895,-0.34192 0.25368,0 0.628687,0.0882 0.716924,0.54045 l 0.386036,2.09563 c 0.09927,0.56251 0.419125,0.72795 0.672805,0.72795 0.330888,0 0.794132,-0.2978 0.794132,-0.62868 z"
           style="font-style:normal;font-variant:normal;font-weight:normal;font-stretch:normal;font-family:'Nickelodeon NF';-inkscape-font-specification:'Nickelodeon NF';stroke-width:0.275739"
           id="path987" />
        <path
           d="m 55.712722,184.22371 c 0,-0.18751 -0.08824,-0.27574 -0.27574,-0.27574 -0.617658,0 -0.948546,0.22059 -1.246345,0.75001 l -1.477966,2.68019 c -0.165444,0.2978 -0.375007,0.44119 -0.650747,0.44119 -0.363976,0 -0.705894,-0.25369 -0.705894,-0.63972 0,-0.30883 0.176474,-0.60663 0.485302,-0.60663 0.09927,0 0.231622,0.0441 0.231622,0.22059 0,0.0772 -0.154414,0.14339 -0.154414,0.30883 0,0.16545 0.110296,0.26471 0.27574,0.26471 0.26471,0 0.419124,-0.375 0.419124,-0.61766 0,-0.43015 -0.363976,-0.72795 -0.750012,-0.72795 -0.628688,0 -1.047812,0.52942 -1.047812,1.15811 0,0.65074 0.584568,1.18017 1.213256,1.18017 0.518391,0 0.904427,-0.27574 1.158108,-0.72796 l 1.477966,-2.66916 c 0.121326,-0.22059 0.242651,-0.38604 0.507362,-0.44119 v 0.37501 c 0,0.14339 0.121325,0.27574 0.26471,0.27574 0.165444,0 0.27574,-0.13235 0.27574,-0.27574 z"
           style="font-style:normal;font-variant:normal;font-weight:normal;font-stretch:normal;font-family:'Nickelodeon NF';-inkscape-font-specification:'Nickelodeon NF';stroke-width:0.275739"
           id="path989" />
        <path
           d="m 60.58298,184.22371 c 0,-0.16545 -0.121325,-0.27574 -0.26471,-0.27574 h -0.617658 c -0.121325,0 -0.198533,0.0551 -0.242651,0.15441 l -1.136049,2.30519 -1.014723,-2.29416 c -0.04412,-0.0993 -0.132355,-0.15442 -0.26471,-0.16544 -0.05515,0 -0.09927,0.0221 -0.154415,0.0551 l -0.705894,0.52942 c -0.07721,0.0551 -0.121326,0.13236 -0.121326,0.23163 0,0.16544 0.132355,0.27574 0.297799,0.27574 0.05515,0 0.110296,-0.0221 0.154415,-0.0662 l 0.430154,-0.33089 c 0.56251,1.32355 0.794131,1.89709 1.058842,2.40445 l -1.169138,2.36034 c -0.165444,0.33089 -0.408095,0.49633 -0.716924,0.49633 -0.363977,0 -0.694865,-0.25368 -0.694865,-0.5956 0,-0.14338 0.110296,-0.55148 0.496332,-0.55148 0.132356,0 0.253681,0.0662 0.253681,0.19853 0,0.0772 -0.04412,0.14339 -0.04412,0.2206 0,0.16544 0.143385,0.26471 0.286769,0.26471 0.220592,0 0.308829,-0.27574 0.308829,-0.48531 0,-0.45221 -0.386036,-0.73898 -0.81619,-0.73898 -0.485303,0 -1.036783,0.50736 -1.036783,1.09193 0,0.65075 0.56251,1.14708 1.202227,1.14708 0.529421,0 1.003693,-0.2978 1.257374,-0.79413 l 2.536808,-5.17288 h 0.452214 c 0.143385,0 0.26471,-0.12133 0.26471,-0.26471 z"
           style="font-style:normal;font-variant:normal;font-weight:normal;font-stretch:normal;font-family:'Nickelodeon NF';-inkscape-font-specification:'Nickelodeon NF';stroke-width:0.275739"
           id="path991" />
        <path
           d="m 62.732543,187.81936 c 0.209562,0 0.297799,-0.13236 0.297799,-0.26472 0,-0.14338 -0.08824,-0.28676 -0.297799,-0.28676 h -0.242651 v -6.29791 c 0,-0.16544 -0.132356,-0.27574 -0.27574,-0.27574 -0.05515,0 -0.110296,0.011 -0.143385,0.0441 l -0.738983,0.45222 c -0.09927,0.0551 -0.154415,0.14338 -0.154415,0.24265 0,0.13235 0.121326,0.26471 0.264711,0.27574 0.05515,0 0.121325,-0.0221 0.176473,-0.0551 l 0.319859,-0.19853 v 5.8126 h -0.430155 c -0.209562,0 -0.286769,0.14338 -0.286769,0.28676 0,0.13236 0.110296,0.26472 0.286769,0.26472 z"
           style="font-style:normal;font-variant:normal;font-weight:normal;font-stretch:normal;font-family:'Nickelodeon NF';-inkscape-font-specification:'Nickelodeon NF';stroke-width:0.275739"
           id="path993" />
        <path
           d="m 67.250889,184.49945 c 0.209562,0 0.297799,-0.13236 0.297799,-0.26472 0,-0.14338 -0.08824,-0.28676 -0.297799,-0.28676 h -0.882368 c -0.187504,0 -0.2978,0.13235 -0.2978,0.26471 0,0.14338 0.110296,0.28677 0.2978,0.28677 l -0.805161,2.3493 -0.805161,-2.3493 h 0.05515 c 0.209562,0 0.28677,-0.14339 0.28677,-0.28677 0,-0.13236 -0.07721,-0.26471 -0.28677,-0.26471 h -0.893398 c -0.209562,0 -0.286769,0.14338 -0.286769,0.28676 0,0.13236 0.110296,0.26472 0.286769,0.26472 h 0.264711 l 1.125019,3.27579 c 0.03309,0.0882 0.154414,0.16544 0.242651,0.16544 h 0.04412 c 0.09927,-0.011 0.176473,-0.0662 0.231621,-0.16544 l 1.11399,-3.27579 z"
           style="font-style:normal;font-variant:normal;font-weight:normal;font-stretch:normal;font-family:'Nickelodeon NF';-inkscape-font-specification:'Nickelodeon NF';stroke-width:0.275739"
           id="path995" />
        <path
           d="m 72.635576,187.55464 c 0,-0.16544 -0.08824,-0.28676 -0.209562,-0.28676 -0.121326,0 -0.165444,0.0551 -0.264711,0.0551 -0.03309,0 -0.04412,-0.011 -0.05515,-0.0441 l -1.3787,-3.07725 c -0.09927,-0.23163 -0.27574,-0.35295 -0.529421,-0.35295 -0.09927,0 -0.187503,0.0221 -0.26471,0.0551 L 68.323,184.6207 c -0.121325,0.0551 -0.187503,0.15442 -0.187503,0.27574 0,0.12133 0.06618,0.26471 0.231622,0.26471 0.05515,0 0.132355,-0.0221 0.231621,-0.0551 l 1.555174,-0.69486 c 0.01103,-0.011 0.02206,-0.011 0.03309,-0.011 0.01103,0 0.02206,0.011 0.03309,0.0331 l 0.121325,0.26471 -0.363977,0.16544 c -0.838249,0.2978 -1.566203,0.91546 -1.566203,1.80886 0,0.66177 0.452214,1.18016 1.246345,1.18016 0.661776,0 1.301493,-0.2978 1.775766,-0.72795 l 0.176473,0.39707 c 0.121326,0.25368 0.297799,0.33088 0.507362,0.33088 0.253681,0 0.518391,-0.0662 0.518391,-0.2978 z m -1.444878,-0.95957 c -0.386036,0.38604 -0.882368,0.71692 -1.555173,0.71692 -0.341918,0 -0.683835,-0.16544 -0.683835,-0.69486 0,-0.72796 0.893397,-1.14708 1.63238,-1.38973 z"
           style="font-style:normal;font-variant:normal;font-weight:normal;font-stretch:normal;font-family:'Nickelodeon NF';-inkscape-font-specification:'Nickelodeon NF';stroke-width:0.275739"
           id="path997" />
        <path
           d="m 77.961663,187.25685 c 0,-0.13236 -0.05515,-0.24266 -0.220592,-0.24266 -0.154414,0 -0.319858,0.35295 -0.485302,0.35295 -0.132355,0 -0.187503,-0.13235 -0.231622,-0.30883 l -0.375006,-2.09562 c -0.121326,-0.61766 -0.584569,-0.98164 -1.257374,-0.98164 -0.28677,0 -0.56251,0.0993 -0.83825,0.28677 0,-0.16544 -0.132355,-0.28677 -0.27574,-0.28677 -0.07721,0 -0.08824,0.0331 -0.143385,0.0441 l -0.738983,0.45222 c -0.09927,0.0551 -0.154414,0.14338 -0.154414,0.24265 0,0.13235 0.121325,0.26471 0.26471,0.27574 0.01103,0 0.05515,-0.011 0.110296,-0.0221 l 0.386036,-0.23162 v 2.52578 H 73.63806 c -0.187503,0 -0.297799,0.13235 -0.297799,0.26471 0,0.14338 0.110296,0.28677 0.297799,0.28677 h 1.158108 c 0.209563,0 0.28677,-0.14339 0.28677,-0.28677 0,-0.13236 -0.07721,-0.26471 -0.28677,-0.26471 h -0.242651 v -2.2721 l 0.132355,-0.13236 c 0.187503,-0.1875 0.386036,-0.34192 0.705895,-0.34192 0.25368,0 0.628687,0.0882 0.716924,0.54045 l 0.386036,2.09563 c 0.09927,0.56251 0.419124,0.72795 0.672805,0.72795 0.330888,0 0.794131,-0.2978 0.794131,-0.62868 z"
           style="font-style:normal;font-variant:normal;font-weight:normal;font-stretch:normal;font-family:'Nickelodeon NF';-inkscape-font-specification:'Nickelodeon NF';stroke-width:0.275739"
           id="path999" />
        <path
           d="m 80.117087,187.81936 c 0.209563,0 0.297799,-0.13236 0.297799,-0.26472 0,-0.14338 -0.08824,-0.28676 -0.297799,-0.28676 h -0.242651 v -3.01109 c 0,-0.16544 -0.132355,-0.27574 -0.27574,-0.27574 -0.05515,0 -0.110296,0.011 -0.143385,0.0441 l -0.738983,0.45222 c -0.09927,0.0551 -0.154414,0.14338 -0.154414,0.24265 0,0.13235 0.121325,0.26471 0.26471,0.27574 0.05515,0 0.121326,-0.0221 0.176474,-0.0551 l 0.319858,-0.19853 v 2.52578 h -0.27574 c -0.209562,0 -0.28677,0.14338 -0.28677,0.28676 0,0.13236 0.110296,0.26472 0.28677,0.26472 z m -0.05515,-4.86406 c 0,-0.31986 -0.253681,-0.57354 -0.573539,-0.57354 -0.308829,0 -0.573539,0.25368 -0.573539,0.57354 0,0.31986 0.26471,0.57354 0.573539,0.57354 0.319858,0 0.573539,-0.25368 0.573539,-0.57354 z"
           style="font-style:normal;font-variant:normal;font-weight:normal;font-stretch:normal;font-family:'Nickelodeon NF';-inkscape-font-specification:'Nickelodeon NF';stroke-width:0.275739"
           id="path1001" />
        <path
           d="m 85.517801,187.55464 c 0,-0.16544 -0.08824,-0.28676 -0.209562,-0.28676 -0.121326,0 -0.165444,0.0551 -0.264711,0.0551 -0.03309,0 -0.04412,-0.011 -0.05515,-0.0441 l -1.3787,-3.07725 c -0.09927,-0.23163 -0.27574,-0.35295 -0.529421,-0.35295 -0.09927,0 -0.187503,0.0221 -0.26471,0.0551 l -1.610322,0.71692 c -0.121325,0.0551 -0.187503,0.15442 -0.187503,0.27574 0,0.12133 0.06618,0.26471 0.231622,0.26471 0.05515,0 0.132355,-0.0221 0.231621,-0.0551 l 1.555174,-0.69486 c 0.01103,-0.011 0.02206,-0.011 0.03309,-0.011 0.01103,0 0.02206,0.011 0.03309,0.0331 l 0.121325,0.26471 -0.363977,0.16544 c -0.838249,0.2978 -1.566203,0.91546 -1.566203,1.80886 0,0.66177 0.452214,1.18016 1.246345,1.18016 0.661776,0 1.301493,-0.2978 1.775766,-0.72795 l 0.176473,0.39707 c 0.121326,0.25368 0.297799,0.33088 0.507362,0.33088 0.253681,0 0.518391,-0.0662 0.518391,-0.2978 z m -1.444878,-0.95957 c -0.386036,0.38604 -0.882368,0.71692 -1.555173,0.71692 -0.341918,0 -0.683835,-0.16544 -0.683835,-0.69486 0,-0.72796 0.893397,-1.14708 1.63238,-1.38973 z"
           style="font-style:normal;font-variant:normal;font-weight:normal;font-stretch:normal;font-family:'Nickelodeon NF';-inkscape-font-specification:'Nickelodeon NF';stroke-width:0.275739"
           id="path1003" />
        <path
           d="m 96.027805,187.62082 c 0,-1.21325 -0.529421,-1.73165 -1.687529,-3.00005 -1.125019,-1.21326 -1.312522,-1.62135 -1.312522,-1.85297 0,-0.67281 0.595598,-0.86031 0.937516,-0.86031 0.352947,0 0.56251,0.0551 0.849279,0.57354 0.07721,0.14338 0.154415,0.20956 0.253681,0.19853 0.143385,0 0.26471,-0.14338 0.26471,-0.28677 0,-0.0221 -0.01103,-0.0551 -0.02206,-0.0993 l -0.319858,-0.88237 c -0.04412,-0.12133 -0.132355,-0.18751 -0.264711,-0.18751 -0.132355,0 -0.25368,0.0662 -0.286769,0.18751 -0.121326,-0.0331 -0.27574,-0.0441 -0.474273,-0.0441 -0.694865,0 -1.477966,0.47427 -1.477966,1.40076 0,0.31986 0.165444,0.70589 0.441184,1.10296 l 1.577232,1.80885 c 0.882368,1.02576 0.981635,1.46694 0.981635,1.86401 0,1.27943 -0.992664,1.96326 -1.897091,1.96326 -0.937516,0 -1.511056,-0.81619 -1.511056,-1.52208 0,-0.67281 0.56251,-1.09193 1.014724,-1.09193 0.297799,0 0.595598,0.20956 0.595598,0.60663 0,0.60662 -0.584569,0.50736 -0.584569,0.86031 0,0.17647 0.154415,0.23162 0.28677,0.23162 0.584569,-0.12133 0.871338,-0.60663 0.871338,-1.0809 0,-0.57354 -0.419125,-1.18017 -1.169137,-1.18017 -0.738984,0 -1.577233,0.5956 -1.577233,1.6765 0,0.98163 0.738983,2.0515 2.095624,2.0515 1.169137,0 2.415482,-0.8603 2.415482,-2.43754 z"
           style="font-style:normal;font-variant:normal;font-weight:normal;font-stretch:normal;font-family:'Nickelodeon NF';-inkscape-font-specification:'Nickelodeon NF';stroke-width:0.275739"
           id="path1005" />
        <path
           d="m 99.526081,187.58773 c 0.08824,-0.0551 0.121326,-0.14338 0.121326,-0.19853 0,-0.16544 -0.132356,-0.28677 -0.2978,-0.28677 -0.187503,0 -0.496332,0.28677 -0.81619,0.28677 -0.408095,-0.011 -0.716924,-0.26471 -0.716924,-0.66178 v -2.22797 h 1.10296 c 0.209562,0 0.297799,-0.13236 0.297799,-0.26472 0,-0.14338 -0.08824,-0.28676 -0.297799,-0.28676 h -1.10296 v -0.60663 c 0,-0.18751 -0.132355,-0.28677 -0.26471,-0.28677 -0.143385,0 -0.28677,0.0993 -0.28677,0.28677 v 0.60663 h -0.363977 c -0.209562,0 -0.28677,0.14338 -0.28677,0.28676 0,0.13236 0.110296,0.26472 0.28677,0.26472 h 0.363977 v 2.22797 c 0,0.71693 0.573539,1.20223 1.268404,1.20223 0.386036,0 0.716924,-0.11029 0.992664,-0.34192 z"
           style="font-style:normal;font-variant:normal;font-weight:normal;font-stretch:normal;font-family:'Nickelodeon NF';-inkscape-font-specification:'Nickelodeon NF';stroke-width:0.275739"
           id="path1007" />
        <path
           d="m 104.11577,184.73107 c 0,-0.69487 -0.47427,-1.06987 -1.00369,-1.06987 -0.34192,0 -0.7059,0.14338 -0.97061,0.4853 l -0.59559,0.73898 v -0.62869 c 0,-0.16544 -0.13236,-0.27574 -0.26471,-0.27574 -0.0551,0 -0.1103,0.011 -0.14339,0.0441 l -0.75001,0.45222 c -0.0993,0.0551 -0.15442,0.14338 -0.15442,0.24265 0,0.13235 0.13236,0.26471 0.27574,0.27574 0.011,0 0.0551,-0.011 0.1103,-0.0221 l 0.38604,-0.23162 v 2.52578 h -0.4081 c -0.20956,0 -0.28677,0.14338 -0.28677,0.28676 0,0.13236 0.1103,0.26472 0.28677,0.26472 h 2.02945 c 0.20956,0 0.2978,-0.13236 0.2978,-0.26472 0,-0.14338 -0.0882,-0.28676 -0.2978,-0.28676 h -1.0809 v -1.43385 l 0.79413,-1.0809 c 0.17647,-0.25368 0.46324,-0.54045 0.77207,-0.54045 0.30883,0 0.45221,0.22059 0.46324,0.47427 0,0.25368 -0.0993,0.50736 -0.33089,0.55148 -0.26471,0.0441 -0.36397,0.15441 -0.39706,0.2978 0,0.17647 0.14338,0.25368 0.27574,0.25368 0.56251,0 0.98163,-0.43016 0.99266,-1.05884 z"
           style="font-style:normal;font-variant:normal;font-weight:normal;font-stretch:normal;font-family:'Nickelodeon NF';-inkscape-font-specification:'Nickelodeon NF';stroke-width:0.275739"
           id="path1009" />
        <path
           d="m 108.72891,186.47374 c 0,-0.0331 0.011,-0.0331 0.011,-0.0772 0,-0.13236 -0.0993,-0.28677 -0.24265,-0.28677 -0.15442,0 -0.25368,0.0662 -0.28677,0.19853 -0.1875,0.62869 -0.7831,1.05884 -1.44488,1.05884 -0.81619,0 -1.50002,-0.68383 -1.50002,-1.50002 0,-0.13236 0.011,-0.25369 0.0441,-0.36398 h 3.13241 c 0.16544,0 0.26471,-0.12133 0.27574,-0.26471 0,-0.0221 -0.011,-0.0551 -0.0221,-0.0993 -0.2978,-0.83825 -1.05884,-1.32355 -1.93018,-1.32355 -1.10296,0 -2.0515,0.94855 -2.0515,2.05151 0,1.11399 0.94854,2.04047 2.0515,2.04047 0.92649,0 1.68753,-0.58457 1.96327,-1.43385 z m -3.15447,-1.51105 c 0.2978,-0.38604 0.72796,-0.60663 1.20223,-0.60663 0.47427,0 0.93752,0.20956 1.21326,0.60663 z"
           style="font-style:normal;font-variant:normal;font-weight:normal;font-stretch:normal;font-family:'Nickelodeon NF';-inkscape-font-specification:'Nickelodeon NF';stroke-width:0.275739"
           id="path1011" />
        <path
           d="m 113.36048,186.47374 c 0,-0.0331 0.011,-0.0331 0.011,-0.0772 0,-0.13236 -0.0993,-0.28677 -0.24265,-0.28677 -0.15442,0 -0.25368,0.0662 -0.28677,0.19853 -0.18751,0.62869 -0.7831,1.05884 -1.44488,1.05884 -0.81619,0 -1.50003,-0.68383 -1.50003,-1.50002 0,-0.13236 0.011,-0.25369 0.0441,-0.36398 h 3.13241 c 0.16544,0 0.26471,-0.12133 0.27574,-0.26471 0,-0.0221 -0.011,-0.0551 -0.0221,-0.0993 -0.2978,-0.83825 -1.05884,-1.32355 -1.93018,-1.32355 -1.10296,0 -2.05151,0.94855 -2.05151,2.05151 0,1.11399 0.94855,2.04047 2.05151,2.04047 0.92649,0 1.68753,-0.58457 1.96327,-1.43385 z m -3.15447,-1.51105 c 0.2978,-0.38604 0.72796,-0.60663 1.20223,-0.60663 0.47427,0 0.93752,0.20956 1.21326,0.60663 z"
           style="font-style:normal;font-variant:normal;font-weight:normal;font-stretch:normal;font-family:'Nickelodeon NF';-inkscape-font-specification:'Nickelodeon NF';stroke-width:0.275739"
           id="path1013" />
        <path
           d="m 116.88909,187.58773 c 0.0882,-0.0551 0.12132,-0.14338 0.12132,-0.19853 0,-0.16544 -0.13235,-0.28677 -0.2978,-0.28677 -0.1875,0 -0.49633,0.28677 -0.81619,0.28677 -0.40809,-0.011 -0.71692,-0.26471 -0.71692,-0.66178 v -2.22797 h 1.10296 c 0.20956,0 0.2978,-0.13236 0.2978,-0.26472 0,-0.14338 -0.0882,-0.28676 -0.2978,-0.28676 h -1.10296 v -0.60663 c 0,-0.18751 -0.13236,-0.28677 -0.26471,-0.28677 -0.14339,0 -0.28677,0.0993 -0.28677,0.28677 v 0.60663 h -0.36398 c -0.20956,0 -0.28677,0.14338 -0.28677,0.28676 0,0.13236 0.1103,0.26472 0.28677,0.26472 h 0.36398 v 2.22797 c 0,0.71693 0.57354,1.20223 1.2684,1.20223 0.38604,0 0.71693,-0.11029 0.99267,-0.34192 z"
           style="font-style:normal;font-variant:normal;font-weight:normal;font-stretch:normal;font-family:'Nickelodeon NF';-inkscape-font-specification:'Nickelodeon NF';stroke-width:0.275739"
           id="path1015" />
      </g>
      <g
         inkscape:export-ydpi="115.23696"
         inkscape:export-xdpi="115.23696"
         transform="translate(-55.634262,10.83145)"
         id="g1098">
        <path
           d="m 128.49361,184.68695 c 0,-1.72062 -1.51106,-3.12138 -3.31991,-3.12138 h -1.7868 c -0.14338,0 -0.27574,0.12133 -0.27574,0.26471 0,0.14339 0.13236,0.27574 0.27574,0.27574 h 0.37501 v 5.47068 c 0,0.12133 0.011,0.24266 0.26471,0.24266 0.25368,0 0.27574,-0.12133 0.27574,-0.24266 v -5.47068 h 0.87134 c 1.48899,0 2.77946,1.14708 2.77946,2.58093 0,1.42282 -1.25738,2.58093 -2.77946,2.58093 -0.14339,0 -0.27574,0.11029 -0.27574,0.27574 0,0.14338 0.13235,0.27574 0.27574,0.27574 1.83091,0 3.31991,-1.42282 3.31991,-3.13241 z"
           style="font-style:normal;font-variant:normal;font-weight:normal;font-stretch:normal;font-family:'Nickelodeon NF';-inkscape-font-specification:'Nickelodeon NF';stroke-width:0.275739"
           id="path1017" />
        <path
           d="m 133.11466,186.47374 c 0,-0.0331 0.011,-0.0331 0.011,-0.0772 0,-0.13236 -0.0993,-0.28677 -0.24265,-0.28677 -0.15442,0 -0.25368,0.0662 -0.28677,0.19853 -0.1875,0.62869 -0.7831,1.05884 -1.44488,1.05884 -0.81619,0 -1.50002,-0.68383 -1.50002,-1.50002 0,-0.13236 0.011,-0.25369 0.0441,-0.36398 h 3.13241 c 0.16544,0 0.26471,-0.12133 0.27574,-0.26471 0,-0.0221 -0.011,-0.0551 -0.0221,-0.0993 -0.2978,-0.83825 -1.05884,-1.32355 -1.93018,-1.32355 -1.10296,0 -2.0515,0.94855 -2.0515,2.05151 0,1.11399 0.94854,2.04047 2.0515,2.04047 0.92649,0 1.68753,-0.58457 1.96327,-1.43385 z m -3.15447,-1.51105 c 0.2978,-0.38604 0.72796,-0.60663 1.20223,-0.60663 0.47427,0 0.93752,0.20956 1.21326,0.60663 z"
           style="font-style:normal;font-variant:normal;font-weight:normal;font-stretch:normal;font-family:'Nickelodeon NF';-inkscape-font-specification:'Nickelodeon NF';stroke-width:0.275739"
           id="path1019" />
        <path
           d="m 138.21516,187.25685 c 0,-0.13236 -0.0551,-0.24266 -0.22059,-0.24266 -0.15441,0 -0.31986,0.35295 -0.4853,0.35295 -0.13236,0 -0.18751,-0.13235 -0.23162,-0.30883 l -0.37501,-2.09562 c -0.12133,-0.61766 -0.58457,-0.98164 -1.25738,-0.98164 -0.28676,0 -0.5625,0.0993 -0.83824,0.28677 0,-0.16544 -0.13236,-0.28677 -0.27574,-0.28677 -0.0772,0 -0.0882,0.0331 -0.14339,0.0441 l -0.73898,0.45222 c -0.0993,0.0551 -0.15442,0.14338 -0.15442,0.24265 0,0.13235 0.12133,0.26471 0.26471,0.27574 0.011,0 0.0551,-0.011 0.1103,-0.0221 l 0.38604,-0.23162 v 2.52578 h -0.36398 c -0.1875,0 -0.2978,0.13235 -0.2978,0.26471 0,0.14338 0.1103,0.28677 0.2978,0.28677 h 1.15811 c 0.20956,0 0.28677,-0.14339 0.28677,-0.28677 0,-0.13236 -0.0772,-0.26471 -0.28677,-0.26471 h -0.24265 v -2.2721 l 0.13235,-0.13236 c 0.1875,-0.1875 0.38604,-0.34192 0.70589,-0.34192 0.25369,0 0.62869,0.0882 0.71693,0.54045 l 0.38603,2.09563 c 0.0993,0.56251 0.41913,0.72795 0.67281,0.72795 0.33089,0 0.79413,-0.2978 0.79413,-0.62868 z"
           style="font-style:normal;font-variant:normal;font-weight:normal;font-stretch:normal;font-family:'Nickelodeon NF';-inkscape-font-specification:'Nickelodeon NF';stroke-width:0.275739"
           id="path1021" />
        <path
           d="m 141.54989,184.49945 c 0.20956,0 0.2978,-0.13236 0.2978,-0.26472 0,-0.14338 -0.0882,-0.28676 -0.2978,-0.28676 h -0.88237 c -0.1875,0 -0.2978,0.13235 -0.2978,0.26471 0,0.14338 0.1103,0.28677 0.2978,0.28677 l -0.80516,2.3493 -0.80516,-2.3493 h 0.0551 c 0.20956,0 0.28677,-0.14339 0.28677,-0.28677 0,-0.13236 -0.0772,-0.26471 -0.28677,-0.26471 h -0.8934 c -0.20956,0 -0.28677,0.14338 -0.28677,0.28676 0,0.13236 0.1103,0.26472 0.28677,0.26472 h 0.26471 l 1.12502,3.27579 c 0.0331,0.0882 0.15442,0.16544 0.24265,0.16544 h 0.0441 c 0.0993,-0.011 0.17648,-0.0662 0.23162,-0.16544 l 1.11399,-3.27579 z"
           style="font-style:normal;font-variant:normal;font-weight:normal;font-stretch:normal;font-family:'Nickelodeon NF';-inkscape-font-specification:'Nickelodeon NF';stroke-width:0.275739"
           id="path1023" />
        <path
           d="m 146.1046,186.47374 c 0,-0.0331 0.011,-0.0331 0.011,-0.0772 0,-0.13236 -0.0993,-0.28677 -0.24265,-0.28677 -0.15441,0 -0.25368,0.0662 -0.28677,0.19853 -0.1875,0.62869 -0.7831,1.05884 -1.44487,1.05884 -0.8162,0 -1.50003,-0.68383 -1.50003,-1.50002 0,-0.13236 0.011,-0.25369 0.0441,-0.36398 h 3.1324 c 0.16545,0 0.26471,-0.12133 0.27574,-0.26471 0,-0.0221 -0.011,-0.0551 -0.0221,-0.0993 -0.2978,-0.83825 -1.05885,-1.32355 -1.93018,-1.32355 -1.10296,0 -2.05151,0.94855 -2.05151,2.05151 0,1.11399 0.94855,2.04047 2.05151,2.04047 0.92648,0 1.68752,-0.58457 1.96326,-1.43385 z m -3.15446,-1.51105 c 0.2978,-0.38604 0.72795,-0.60663 1.20222,-0.60663 0.47428,0 0.93752,0.20956 1.21326,0.60663 z"
           style="font-style:normal;font-variant:normal;font-weight:normal;font-stretch:normal;font-family:'Nickelodeon NF';-inkscape-font-specification:'Nickelodeon NF';stroke-width:0.275739"
           id="path1025" />
        <path
           d="m 150.60381,184.73107 c 0,-0.69487 -0.47427,-1.06987 -1.00369,-1.06987 -0.34192,0 -0.7059,0.14338 -0.97061,0.4853 l -0.5956,0.73898 v -0.62869 c 0,-0.16544 -0.13235,-0.27574 -0.26471,-0.27574 -0.0552,0 -0.11029,0.011 -0.14338,0.0441 l -0.75001,0.45222 c -0.0993,0.0551 -0.15442,0.14338 -0.15442,0.24265 0,0.13235 0.13236,0.26471 0.27574,0.27574 0.011,0 0.0551,-0.011 0.1103,-0.0221 l 0.38603,-0.23162 v 2.52578 h -0.40809 c -0.20956,0 -0.28677,0.14338 -0.28677,0.28676 0,0.13236 0.11029,0.26472 0.28677,0.26472 h 2.02944 c 0.20957,0 0.2978,-0.13236 0.2978,-0.26472 0,-0.14338 -0.0882,-0.28676 -0.2978,-0.28676 h -1.0809 v -1.43385 l 0.79413,-1.0809 c 0.17648,-0.25368 0.46325,-0.54045 0.77208,-0.54045 0.30883,0 0.45221,0.22059 0.46324,0.47427 0,0.25368 -0.0993,0.50736 -0.33089,0.55148 -0.26471,0.0441 -0.36398,0.15441 -0.39706,0.2978 0,0.17647 0.14338,0.25368 0.27574,0.25368 0.56251,0 0.98163,-0.43016 0.99266,-1.05884 z"
           style="font-style:normal;font-variant:normal;font-weight:normal;font-stretch:normal;font-family:'Nickelodeon NF';-inkscape-font-specification:'Nickelodeon NF';stroke-width:0.275739"
           id="path1027" />
        <path
           d="m 151.05672,187.33405 c 0,-0.30883 -0.25368,-0.57354 -0.57354,-0.57354 -0.30883,0 -0.57354,0.26471 -0.57354,0.57354 0,0.27574 0.20956,0.50736 0.47427,0.56251 0,0.0221 -0.23162,0.28677 -0.23162,0.37501 0,0.12132 0.0772,0.20956 0.19853,0.20956 0.0662,0 0.12133,-0.0221 0.17648,-0.0772 0.35294,-0.2978 0.52942,-0.62868 0.52942,-1.06987 z"
           style="font-style:normal;font-variant:normal;font-weight:normal;font-stretch:normal;font-family:'Nickelodeon NF';-inkscape-font-specification:'Nickelodeon NF';stroke-width:0.275739"
           id="path1029" />
        <path
           d="m 161.15966,181.81925 c 0,-0.14338 0,-0.27574 -0.27574,-0.27574 -0.27574,0 -0.27574,0.13236 -0.27574,0.27574 v 0.18751 c -0.45221,-0.2978 -0.93752,-0.45222 -1.45591,-0.45222 -1.52208,0 -2.80152,1.41179 -2.80152,3.14344 0,1.72062 1.25738,3.14343 2.80152,3.14343 0.36398,0 1.02576,-0.0441 1.02576,-0.44118 0,-0.14338 -0.14339,-0.1875 -0.26471,-0.1875 -0.27574,0 -0.39707,0.0993 -0.76105,0.0993 -1.2684,0 -2.26106,-1.20222 -2.26106,-2.61401 0,-1.41179 0.99266,-2.60299 2.26106,-2.60299 0.52942,0 1.04782,0.22059 1.45591,0.61766 v 0.51839 c 0,0.13236 0,0.26471 0.27574,0.26471 0.27574,0 0.27574,-0.13235 0.27574,-0.26471 z"
           style="font-style:normal;font-variant:normal;font-weight:normal;font-stretch:normal;font-family:'Nickelodeon NF';-inkscape-font-specification:'Nickelodeon NF';stroke-width:0.275739"
           id="path1031" />
        <path
           d="m 167.28367,184.86342 c 0,-1.79782 -0.90442,-3.30888 -2.7574,-3.30888 -1.85297,0 -2.76843,1.51106 -2.76843,3.15447 0,1.73165 1.02576,3.11035 2.76843,3.11035 1.72062,0 2.70226,-1.3787 2.7574,-2.95594 z m -0.55148,-0.1875 c -0.0551,1.45591 -0.77207,2.59196 -2.20592,2.59196 -1.44487,0 -2.21695,-1.12502 -2.21695,-2.54784 0,-1.32355 0.67281,-2.61402 2.21695,-2.61402 1.44488,0 2.20592,1.32355 2.20592,2.5699 z"
           style="font-style:normal;font-variant:normal;font-weight:normal;font-stretch:normal;font-family:'Nickelodeon NF';-inkscape-font-specification:'Nickelodeon NF';stroke-width:0.275739"
           id="path1033" />
        <path
           d="m 178.69914,185.80094 c -0.0551,-0.7831 -0.68383,-1.34561 -1.3787,-1.61032 0,-0.011 0,-0.011 0.011,-0.011 0.011,0 0.011,0 0.0221,-0.011 0.43015,-0.34192 0.60663,-0.73899 0.60663,-1.09193 0,-0.77208 -0.80516,-1.51106 -1.76474,-1.51106 h -0.12132 c -1.05885,0 -1.62136,0.81619 -1.62136,1.43385 0.0331,0.47427 0.23163,0.87134 0.5956,1.16914 0,-0.011 0.011,0 0.0331,0.0221 -0.73898,0.27574 -1.33458,0.88236 -1.36767,1.72061 0.0331,1.29047 1.42282,1.90813 2.49269,1.90813 1.05884,0 2.49269,-0.63972 2.49269,-2.01842 z m -0.55148,0.0993 c 0,0.65075 -0.73898,1.36768 -1.94121,1.36768 -0.79413,0 -1.91915,-0.4081 -1.91915,-1.35665 0,-0.9706 1.1912,-1.36767 1.91915,-1.36767 0.79413,0 1.94121,0.44119 1.94121,1.35664 z m -0.75001,-2.90078 c 0,0.61766 -0.52942,0.9706 -1.14708,0.9706 -0.61766,0 -1.24635,-0.28677 -1.24635,-0.93751 0.0551,-0.61766 0.60663,-0.91546 1.1912,-0.91546 0.57354,0 1.14708,0.27574 1.20223,0.88237 z"
           style="font-style:normal;font-variant:normal;font-weight:normal;font-stretch:normal;font-family:'Nickelodeon NF';-inkscape-font-specification:'Nickelodeon NF';stroke-width:0.275739"
           id="path1035" />
        <path
           d="m 183.34105,184.78621 c 0,-1.67649 -0.90443,-3.1324 -2.01842,-3.1324 -1.11399,0 -2.02945,1.42282 -2.02945,3.1324 0,1.70959 0.91546,3.13241 2.02945,3.13241 1.11399,0 2.01842,-1.42282 2.01842,-3.13241 z m -0.55148,0 c 0,1.40076 -0.65075,2.59196 -1.46694,2.59196 -0.82722,0 -1.47797,-1.18017 -1.47797,-2.59196 0,-1.42281 0.67281,-2.58092 1.47797,-2.58092 0.80516,0 1.46694,1.16914 1.46694,2.58092 z"
           style="font-style:normal;font-variant:normal;font-weight:normal;font-stretch:normal;font-family:'Nickelodeon NF';-inkscape-font-specification:'Nickelodeon NF';stroke-width:0.275739"
           id="path1037" />
        <path
           d="m 187.71843,183.70531 c 0,-1.22428 -0.83825,-2.15077 -2.01842,-2.15077 -0.70589,0 -1.36767,0.45222 -1.72062,1.16914 -0.0331,0.0331 -0.0331,0.0882 -0.0331,0.12133 0,0.13235 0.11029,0.27574 0.27574,0.27574 0.12132,0 0.19853,-0.0551 0.24265,-0.15442 0.26471,-0.54045 0.73898,-0.86031 1.23531,-0.86031 0.87134,0 1.47797,0.66178 1.47797,1.59929 0,0.49634 -0.46324,1.23532 -0.76104,1.53312 l -2.12872,2.11768 c -0.0551,0.0551 -0.0882,0.12133 -0.0882,0.19853 0,0.16545 0.14338,0.26472 0.27574,0.26472 h 2.39342 c 0.1103,0 0.1875,-0.0441 0.23162,-0.13236 l 0.35295,-0.60663 c 0.0331,-0.0441 0.0331,-0.0882 0.0441,-0.13235 0,-0.16545 -0.14339,-0.27574 -0.28677,-0.27574 -0.0993,0 -0.17648,0.0441 -0.23162,0.14338 l -0.26471,0.46324 h -1.57724 l 1.66547,-1.65444 c 0.35295,-0.35294 0.91546,-1.24634 0.91546,-1.91915 z"
           style="font-style:normal;font-variant:normal;font-weight:normal;font-stretch:normal;font-family:'Nickelodeon NF';-inkscape-font-specification:'Nickelodeon NF';stroke-width:0.275739"
           id="path1039" />
        <path
           d="m 192.36723,184.78621 c 0,-1.67649 -0.90443,-3.1324 -2.01842,-3.1324 -1.11399,0 -2.02944,1.42282 -2.02944,3.1324 0,1.70959 0.91545,3.13241 2.02944,3.13241 1.11399,0 2.01842,-1.42282 2.01842,-3.13241 z m -0.55148,0 c 0,1.40076 -0.65075,2.59196 -1.46694,2.59196 -0.82722,0 -1.47796,-1.18017 -1.47796,-2.59196 0,-1.42281 0.6728,-2.58092 1.47796,-2.58092 0.80516,0 1.46694,1.16914 1.46694,2.58092 z"
           style="font-style:normal;font-variant:normal;font-weight:normal;font-stretch:normal;font-family:'Nickelodeon NF';-inkscape-font-specification:'Nickelodeon NF';stroke-width:0.275739"
           id="path1041" />
        <path
           d="m 196.62327,185.4149 c 0,-0.80516 -0.33089,-1.57723 -1.21325,-1.78679 0.31985,-0.31986 0.52942,-0.67281 0.52942,-1.05884 0,-0.72796 -0.50736,-0.99267 -1.12502,-0.99267 -0.83825,0 -1.84195,0.51839 -1.84195,1.01472 0,0.17648 0.14339,0.27574 0.26471,0.27574 0.2978,0 0.48531,-0.72795 1.68753,-0.72795 0.25368,0 0.47428,0.17647 0.47428,0.4081 0,0.2978 -0.2978,0.73898 -0.91546,1.0809 -0.0993,0.0551 -0.14339,0.14338 -0.14339,0.27574 0,0.16544 0.16545,0.23162 0.28677,0.23162 0.12133,0 0.20957,-0.0221 0.2978,-0.0221 0.71693,0 1.15811,0.43015 1.15811,1.27943 0,1.24635 -1.21325,2.85667 -2.5699,3.47433 -0.0993,0.0441 -0.15441,0.12132 -0.16544,0.23162 0,0.16544 0.13236,0.27574 0.26471,0.28677 0.0331,0 0.0882,0 0.12133,-0.0331 1.54414,-0.70589 2.8346,-2.49269 2.88975,-3.93757 z"
           style="font-style:normal;font-variant:normal;font-weight:normal;font-stretch:normal;font-family:'Nickelodeon NF';-inkscape-font-specification:'Nickelodeon NF';stroke-width:0.275739"
           id="path1043" />
      </g>
    </g>
  </g>
</svg>
